<?xml version="1.0" encoding="UTF-8"?>
<svg version="1.1" xmlns="http://www.w3.org/2000/svg" xmlns:xlink="http://www.w3.org/1999/xlink" x="0px" y="0px" viewBox="0 0 1024 1024">
  <path d="M514.133333 957.866667h-4.266666c-32 0-57.6-25.6-57.6-57.6V659.2c0-32 25.6-57.6 57.6-57.6h4.266666c32 0 57.6 25.6 57.6 57.6v241.066667c0 32-25.6 57.6-57.6 57.6z" p-id="15540"></path>
  <path d="M770.133333 300.8c-70.4 19.2-140.8-23.466667-160-91.733333-8.533333-27.733333-4.266667-57.6 4.266667-83.2 8.533333-19.2-2.133333-42.666667-23.466667-49.066667-27.733333-6.4-78.933333-10.666667-108.8-8.533333-140.8 8.533333-256 136.533333-256 277.333333V682.666667c0 38.4 32 70.4 70.4 70.4h426.666667c38.4 0 70.4-32 70.4-70.4V341.333333v-23.466666c0-12.8-10.666667-19.2-23.466667-17.066667z" p-id="15541"></path>
  <path d="M401.066667 518.4h-4.266667c-25.6 0-44.8-21.333333-44.8-44.8v-98.133333c0-25.6 21.333333-44.8 44.8-44.8h4.266667c25.6 0 44.8 21.333333 44.8 44.8v98.133333c2.133333 25.6-19.2 44.8-44.8 44.8zM627.2 518.4h-4.266667c-25.6 0-44.8-21.333333-44.8-44.8v-98.133333c0-25.6 21.333333-44.8 44.8-44.8h4.266667c25.6 0 44.8 21.333333 44.8 44.8v98.133333c0 25.6-19.2 44.8-44.8 44.8zM654.933333 640c-74.666667 0-100.266667-83.2-166.4-70.4-40.533333 6.4-36.266667 38.4-83.2 57.6-66.133333 27.733333-134.4-19.2-177.066666-29.866667v87.466667c0 38.4 32 70.4 70.4 70.4h426.666666c38.4 0 70.4-32 70.4-70.4v-119.466667c-32 4.266667-72.533333 74.666667-140.8 74.666667z" p-id="15542"></path>
</svg>