<?xml version="1.0" encoding="UTF-8"?>
<svg version="1.1" xmlns="http://www.w3.org/2000/svg" xmlns:xlink="http://www.w3.org/1999/xlink" x="0px" y="0px" viewBox="0 0 1152 1024">
<path d="M361.0935 283C439.4935 217 545.2935 160 672.0935 160s232.6 57 311 123c78.2 66 133.8 144.8 162 199.6 9.4 18.4 9.4 40.2 0 58.6-28.2 54.8-83.8 133.6-162 199.6C904.6935 807 798.8935 864 672.0935 864s-232.6-57-311-123c-32.4-27.4-61-57-85.4-86.2l-179.4 104.4c-25 14.6-56.8 10.6-77.4-9.8s-24.8-52-10.4-77.2L100.0935 512 8.4935 351.8c-14.4-25.2-10-56.8 10.6-77.2s52.2-24.4 77.4-9.8l179.4 104.6c24.4-29.2 53-58.8 85.4-86.2zM896.0935 512a64 64 0 1 0-128 0 64 64 0 1 0 128 0z" p-id="6926"></path>
</svg>