<?xml version="1.0" standalone="no"?>
<!DOCTYPE svg PUBLIC "-//W3C//DTD SVG 1.1//EN" "http://www.w3.org/Graphics/SVG/1.1/DTD/svg11.dtd" >
<svg xmlns="http://www.w3.org/2000/svg" xmlns:xlink="http://www.w3.org/1999/xlink" version="1.1">
<metadata>
Created by FontForge 20170731 at Thu Jun 27 15:58:50 2013
 By Aleksey,,,
(c) 2013 Microsoft Corporation. All Rights Reserved.
</metadata>
<defs>
<font id="SegoeUIEmoji" horiz-adv-x="2048" >
  <font-face 
    font-family="Segoe UI Emoji"
    font-weight="400"
    font-stretch="normal"
    units-per-em="2048"
    panose-1="2 11 5 2 4 2 4 2 2 3"
    ascent="1638"
    descent="-410"
    x-height="1024"
    cap-height="1434"
    bbox="-717 -501 2398 2246"
    underline-thickness="119"
    underline-position="-355"
    unicode-range="U+000D-1F6C5"
  />
<missing-glyph horiz-adv-x="1322" 
d="M166 0v1398h990v-1398h-990zM314 148h694v1102h-694v-1102z" />
    <glyph glyph-name=".notdef" horiz-adv-x="1322" 
d="M166 0v1398h990v-1398h-990zM314 148h694v1102h-694v-1102z" />
    <glyph glyph-name=".null" horiz-adv-x="0" 
 />
    <glyph glyph-name="uni000D" unicode="&#xd;" horiz-adv-x="0" 
 />
    <glyph glyph-name="space" unicode=" " horiz-adv-x="561" 
 />
    <glyph glyph-name="exclam" unicode="!" horiz-adv-x="582" 
d="M375 1434l-19 -1030h-135l-18 1030h172zM291 -18q-46 0 -78.5 32t-32.5 78t32.5 78.5t78.5 32.5q45 0 78 -32.5t33 -78.5t-33 -78t-78 -32z" />
    <glyph glyph-name="quotedbl" unicode="&#x22;" horiz-adv-x="803" 
d="M323 1434l-30 -447h-115l-30 447h175zM655 1434l-30 -447h-115l-30 447h175z" />
    <glyph glyph-name="numbersign" unicode="#" horiz-adv-x="1210" 
d="M1166 1032l-23 -106h-261l-63 -300h281l-27 -106h-275l-88 -397h-126l86 397h-250l-84 -397h-125l84 397h-262l20 106h265l61 300h-277l21 106h277l84 402h126l-84 -402h252l86 402h123l-84 -402h263zM758 926h-252l-66 -300h254z" />
    <glyph glyph-name="dollar" unicode="$" horiz-adv-x="1104" 
d="M616 8v-217h-104v209q-213 0 -346 86v174q58 -51 158.5 -85.5t187.5 -34.5v512q-220 106 -285 195.5t-65 211.5q0 145 99 250.5t251 126.5v180h104v-176q196 -6 271 -56v-170q-102 80 -271 86v-528q208 -99 284.5 -191.5t76.5 -210.5q0 -142 -95.5 -238.5t-265.5 -123.5z
M512 828v466q-84 -17 -133 -74.5t-49 -139.5q0 -86 40 -141t142 -111zM616 600v-452q193 42 193 208q0 138 -193 244z" />
    <glyph glyph-name="percent" unicode="%" horiz-adv-x="1676" 
d="M404 715q-148 0 -236 97.5t-88 260.5q0 178 93 280.5t251 102.5q153 0 237.5 -95t84.5 -267t-94.5 -275.5t-247.5 -103.5zM418 1346q-95 0 -150 -70.5t-55 -193.5q0 -121 54 -188.5t147 -67.5q94 0 147 70t53 194q0 121 -52.5 188.5t-143.5 67.5zM1364 1434l-920 -1444
h-143l919 1444h144zM1258 -22q-148 0 -236 98t-88 260q0 178 94 281.5t250 103.5q152 0 237 -96t85 -269q0 -171 -94.5 -274.5t-247.5 -103.5zM1272 608q-96 0 -150.5 -70t-54.5 -194q0 -119 54 -186.5t147 -67.5q94 0 147 70.5t53 193.5q0 122 -52.5 188t-143.5 66z" />
    <glyph glyph-name="ampersand" unicode="&#x26;" horiz-adv-x="1639" 
d="M1445 -23q-57 0 -100.5 15.5t-80.5 44t-71.5 69.5t-72.5 93q-40 -43 -92.5 -83t-116.5 -71t-140 -49.5t-165 -18.5q-108 0 -198 27t-154 79.5t-99.5 129.5t-35.5 177q0 153 87 261.5t246 177.5q-30 22 -60 51.5t-53.5 67t-38 83t-14.5 99.5q0 79 28.5 140t78.5 103
t118 63.5t147 21.5q78 0 142.5 -21.5t111 -61.5t72.5 -96t26 -125q0 -120 -68.5 -199.5t-205.5 -135.5q69 -27 125 -66t103.5 -87t88.5 -103t81 -114q81 113 122 249t41 285q0 38 -4.5 71.5t-12.5 66.5h159q8 -33 9.5 -62.5t3.5 -70.5q0 -91 -19 -183t-51 -178.5
t-74.5 -164.5t-89.5 -143q35 -48 64 -83.5t58.5 -59.5t61 -35.5t71.5 -11.5q30 0 61 8t64 20v-152q-36 -14 -75.5 -21t-77.5 -7zM606 119q76 0 140 16.5t118 44t98 64t80 76.5q-61 95 -112.5 162.5t-104 116.5t-112 84t-137.5 65q-63 -25 -116 -55.5t-91.5 -72t-60.5 -96.5
t-22 -129q0 -68 25 -120t68.5 -86.5t101.5 -52t125 -17.5zM856 1140q0 50 -18.5 85t-47 58t-63.5 33.5t-69 10.5q-98 0 -156.5 -53t-59.5 -144q0 -41 12.5 -77t35 -67t52.5 -55t64 -41q126 44 188 102.5t62 147.5z" />
    <glyph glyph-name="quotesingle" unicode="'" horiz-adv-x="471" 
d="M323 1434l-30 -447h-115l-30 447h175z" />
    <glyph glyph-name="parenleft" unicode="(" horiz-adv-x="618" 
d="M596 -326h-146q-310 354 -310 873q0 521 310 887h148q-314 -380 -314 -885q0 -501 312 -875z" />
    <glyph glyph-name="parenright" unicode=")" horiz-adv-x="618" 
d="M170 -326h-146q312 374 312 875q0 505 -314 885h148q312 -366 312 -887q0 -519 -312 -873z" />
    <glyph glyph-name="asterisk" unicode="*" horiz-adv-x="854" 
d="M780 1104l-274 -56l190 -243l-110 -76l-156 265l-158 -265l-110 76l190 243l-276 56l45 125l262 -99l-23 304h138l-23 -304l263 99z" />
    <glyph glyph-name="plus" unicode="+" horiz-adv-x="1401" 
d="M1172 530h-404v-403h-133v403h-403v134h403v403h133v-403h404v-134z" />
    <glyph glyph-name="comma" unicode="," horiz-adv-x="444" 
d="M316 228l-160 -492h-117l117 492h160z" />
    <glyph glyph-name="hyphen" unicode="-" horiz-adv-x="819" 
d="M690 506h-546v129h546v-129z" />
    <glyph glyph-name="period" unicode="." horiz-adv-x="444" 
d="M223 -22q-46 0 -78.5 33t-32.5 79t32.5 79.5t78.5 33.5q47 0 80 -33.5t33 -79.5t-33 -79t-80 -33z" />
    <glyph glyph-name="slash" unicode="/" horiz-adv-x="798" 
d="M813 1434l-688 -1672h-153l686 1672h155z" />
    <glyph glyph-name="zero" unicode="0" horiz-adv-x="1104" 
d="M538 -24q-213 0 -332.5 183t-119.5 529q0 380 124.5 575t359.5 195q450 0 450 -735q0 -364 -127 -555.5t-355 -191.5zM561 1319q-307 0 -307 -623q0 -582 301 -582q297 0 297 592q0 613 -291 613z" />
    <glyph glyph-name="one" unicode="1" horiz-adv-x="1104" 
d="M987 0h-811v144h324v1114l-332 -99v156l496 151v-1322h323v-144z" />
    <glyph glyph-name="two" unicode="2" horiz-adv-x="1104" 
d="M960 0h-864v146l418 419q160 160 228.5 266.5t68.5 227.5q0 124 -71 192t-202 68q-192 0 -368 -164v172q168 131 391 131q192 0 302 -104t110 -279q0 -138 -76 -269.5t-273 -326.5l-331 -327v-4h667v-148z" />
    <glyph glyph-name="three" unicode="3" horiz-adv-x="1104" 
d="M131 53v177q147 -116 332 -116q150 0 239.5 75t89.5 202q0 281 -399 281h-119v139h113q355 0 355 264q0 244 -271 244q-151 0 -285 -103v160q138 82 326 82q181 0 289.5 -96t108.5 -246q0 -283 -288 -364v-4q155 -15 246.5 -108.5t91.5 -233.5q0 -193 -138.5 -311.5
t-365.5 -118.5q-204 0 -325 77z" />
    <glyph glyph-name="four" unicode="4" horiz-adv-x="1104" 
d="M1034 381h-184v-381h-162v381h-674v107l638 946h198v-920h184v-133zM688 514v620q0 66 4 148h-4q-14 -36 -55 -110l-441 -658h496z" />
    <glyph glyph-name="five" unicode="5" horiz-adv-x="1104" 
d="M164 35v174q147 -95 299 -95t245 86t93 228q0 141 -95 220t-272 79q-60 0 -225 -12v719h694v-148h-539v-420q66 4 122 4q230 0 356 -115.5t126 -316.5q0 -208 -135.5 -335t-371.5 -127q-199 0 -297 59z" />
    <glyph glyph-name="six" unicode="6" horiz-adv-x="1104" 
d="M934 1417v-155q-111 57 -234 57q-191 0 -305.5 -170t-114.5 -455h4q100 203 328 203q188 0 299 -120.5t111 -322.5q0 -211 -127 -344.5t-323 -133.5q-216 0 -339 172t-123 483q0 377 161 602t425 225q150 0 238 -41zM576 758q-127 0 -206 -86t-79 -203q0 -147 78.5 -251
t208.5 -104q124 0 200 90.5t76 229.5q0 152 -73 238t-205 86z" />
    <glyph glyph-name="seven" unicode="7" horiz-adv-x="1104" 
d="M1010 1382l-568 -1382h-170l537 1286h-723v148h924v-52z" />
    <glyph glyph-name="eight" unicode="8" horiz-adv-x="1104" 
d="M410 752v4q-258 120 -258 348q0 155 118 254.5t304 99.5q168 0 276 -93t108 -239q0 -238 -266 -370v-4q314 -112 314 -388q0 -178 -128 -283t-356 -105q-184 0 -303 104t-119 270q0 276 310 402zM790 1106q0 99 -62 156t-169 57q-100 0 -169.5 -59.5t-69.5 -151.5
q0 -187 233 -282q237 98 237 280zM542 674q-274 -109 -274 -316q0 -107 79.5 -175.5t209.5 -68.5q124 0 202.5 67.5t78.5 170.5q0 216 -296 322z" />
    <glyph glyph-name="nine" unicode="9" horiz-adv-x="1104" 
d="M172 24v158q120 -68 254 -68q195 0 303.5 157t108.5 446q-2 -1 -4 0q-92 -185 -320 -185q-184 0 -302 125t-118 322q0 210 129.5 344.5t331.5 134.5q212 0 330.5 -167.5t118.5 -487.5q0 -397 -154 -612t-428 -215q-144 0 -250 48zM540 1319q-119 0 -198.5 -89.5
t-79.5 -227.5q0 -151 78 -237.5t211 -86.5q116 0 196.5 79t80.5 193q0 163 -80 266t-208 103z" />
    <glyph glyph-name="colon" unicode=":" horiz-adv-x="444" 
d="M223 824q-46 0 -78.5 33t-32.5 79t32.5 78t78.5 32q47 0 80 -32t33 -78t-33 -79t-80 -33zM223 -22q-46 0 -78.5 33t-32.5 79t32.5 79.5t78.5 33.5q47 0 80 -33.5t33 -79.5t-33 -79t-80 -33z" />
    <glyph glyph-name="semicolon" unicode=";" horiz-adv-x="444" 
d="M226 824q-47 0 -79.5 33t-32.5 79t32.5 78t79.5 32q46 0 79 -32t33 -78t-33 -79t-79 -33zM316 228l-160 -492h-117l117 492h160z" />
    <glyph glyph-name="less" unicode="&#x3c;" horiz-adv-x="1401" 
d="M1132 127l-860 432v59l860 482v-150l-642 -356v-4l642 -314v-149z" />
    <glyph glyph-name="equal" unicode="=" horiz-adv-x="1401" 
d="M1172 744h-940v132h940v-132zM1172 318h-940v132h940v-132z" />
    <glyph glyph-name="greater" unicode="&#x3e;" horiz-adv-x="1401" 
d="M1132 559l-860 -432v149l644 312v6l-644 356v150l860 -482v-59z" />
    <glyph glyph-name="question" unicode="?" horiz-adv-x="918" 
d="M335 398q-9 26 -16 67.5t-7 82.5q0 64 25.5 115.5t63.5 96.5t83 86.5t83 84t63.5 89t25.5 102.5q0 48 -18.5 85t-50.5 62t-74 37.5t-89 12.5q-169 0 -293 -133v176q153 96 317 96q76 0 143 -20t117.5 -59.5t79.5 -98.5t29 -137q0 -74 -26 -132t-65.5 -106.5t-85.5 -90.5
t-85.5 -83.5t-65.5 -86.5t-26 -99q0 -46 11 -83.5t22 -63.5h-161zM425 -18q-44 0 -78 32q-33 32 -33 78q0 47 33 78q33 33 78 33t78 -33q33 -31 33 -78q0 -46 -33 -78q-34 -32 -78 -32z" />
    <glyph glyph-name="at" unicode="@" horiz-adv-x="1956" 
d="M1164 420h-5q-73 -238 -287 -238q-137 0 -220.5 101t-83.5 272q0 226 115.5 375.5t303.5 149.5q72 0 128.5 -37t72.5 -93h4q2 28 10 115h125q-47 -551 -47 -561q0 -207 119 -207q108 0 179.5 117t71.5 303q0 275 -174 449t-482 174q-297 0 -491 -208t-194 -520
q0 -307 184.5 -495.5t497.5 -188.5q247 0 422 82v-124q-173 -74 -432 -74q-364 0 -586.5 219.5t-222.5 574.5q0 366 233.5 607t596.5 241q340 0 563 -202t223 -527q0 -238 -117.5 -390.5t-286.5 -152.5q-219 0 -220 238zM985 964q-124 0 -200.5 -118t-76.5 -293
q0 -118 51.5 -186t137.5 -68q124 0 196.5 123.5t72.5 327.5q0 214 -181 214z" />
    <glyph glyph-name="A" unicode="A" horiz-adv-x="1321" 
d="M1298 0h-186l-152 402h-608l-143 -402h-187l550 1434h174zM905 553l-225 611q-11 30 -22 96h-4q-10 -61 -23 -96l-223 -611h497z" />
    <glyph glyph-name="B" unicode="B" horiz-adv-x="1174" 
d="M188 0v1434h408q186 0 295 -91t109 -237q0 -122 -66 -212t-182 -128v-4q145 -17 232 -109.5t87 -240.5q0 -184 -132 -298t-333 -114h-418zM356 1282v-463h172q138 0 217 66.5t79 187.5q0 209 -275 209h-193zM356 668v-516h228q148 0 229.5 70t81.5 192q0 254 -346 254
h-193z" />
    <glyph glyph-name="C" unicode="C" horiz-adv-x="1268" 
d="M1164 60q-159 -84 -396 -84q-306 0 -490 197t-184 517q0 344 207 556t525 212q204 0 338 -59v-179q-154 86 -340 86q-247 0 -400.5 -165t-153.5 -441q0 -262 143.5 -417.5t376.5 -155.5q216 0 374 96v-163z" />
    <glyph glyph-name="D" unicode="D" horiz-adv-x="1436" 
d="M188 0v1434h396q758 0 758 -699q0 -332 -210.5 -533.5t-563.5 -201.5h-380zM356 1282v-1130h214q282 0 439 151t157 428q0 551 -586 551h-224z" />
    <glyph glyph-name="E" unicode="E" horiz-adv-x="1036" 
d="M948 0h-760v1434h728v-152h-560v-477h518v-151h-518v-502h592v-152z" />
    <glyph glyph-name="F" unicode="F" horiz-adv-x="1000" 
d="M916 1282h-560v-496h518v-151h-518v-635h-168v1434h728v-152z" />
    <glyph glyph-name="G" unicode="G" horiz-adv-x="1405" 
d="M1260 98q-216 -122 -480 -122q-307 0 -496.5 198t-189.5 524q0 333 210.5 546.5t533.5 213.5q234 0 393 -76v-186q-174 110 -412 110q-241 0 -395 -166t-154 -430q0 -272 143 -427.5t388 -155.5q168 0 291 67v402h-314v152h482v-650z" />
    <glyph glyph-name="H" unicode="H" horiz-adv-x="1454" 
d="M1266 0h-168v654h-742v-654h-168v1434h168v-629h742v629h168v-1434z" />
    <glyph glyph-name="I" unicode="I" horiz-adv-x="545" 
d="M496 1434v-144h-140v-1146h140v-144h-448v144h140v1146h-140v144h448z" />
    <glyph glyph-name="J" unicode="J" horiz-adv-x="731" 
d="M555 514q0 -255 -108 -396.5t-289 -141.5q-84 0 -138 24v166q54 -39 140 -39q227 0 227 385v922h168v-920z" />
    <glyph glyph-name="K" unicode="K" horiz-adv-x="1188" 
d="M1186 0h-234l-554 656q-31 37 -38 50h-4v-706h-168v1434h168v-674h4q14 22 38 49l536 625h209l-615 -688z" />
    <glyph glyph-name="L" unicode="L" horiz-adv-x="964" 
d="M932 0h-744v1434h168v-1282h576v-152z" />
    <glyph glyph-name="M" unicode="M" horiz-adv-x="1839" 
d="M1650 0h-167v962q0 114 14 279h-4q-24 -97 -43 -139l-490 -1102h-82l-489 1094q-21 48 -43 147h-4q8 -86 8 -281v-960h-162v1434h222l440 -1000q51 -115 66 -172h6q43 118 69 176l449 996h210v-1434z" />
    <glyph glyph-name="N" unicode="N" horiz-adv-x="1532" 
d="M1344 0h-206l-738 1143q-28 43 -46 90h-6q8 -46 8 -197v-1036h-168v1434h218l718 -1125q45 -70 58 -96h4q-10 62 -10 211v1010h168v-1434z" />
    <glyph glyph-name="O" unicode="O" horiz-adv-x="1544" 
d="M766 -24q-305 0 -488.5 201t-183.5 523q0 346 187 552t509 206q297 0 478.5 -200t181.5 -523q0 -351 -186 -555t-498 -204zM778 1306q-226 0 -367 -163t-141 -428t137.5 -426.5t358.5 -161.5q236 0 372 154t136 431q0 284 -132 439t-364 155z" />
    <glyph glyph-name="P" unicode="P" horiz-adv-x="1147" 
d="M356 542v-542h-168v1434h394q230 0 356.5 -112t126.5 -316t-140.5 -334t-379.5 -130h-189zM356 1282v-588h176q174 0 265.5 79.5t91.5 224.5q0 284 -336 284h-197z" />
    <glyph glyph-name="Q" unicode="Q" horiz-adv-x="1544" 
d="M756 -24q-64 0 -130 12.5t-128 38t-118.5 63t-102.5 87.5q-183 200 -183 523q0 347 186 552q188 206 514 206q292 0 474 -200t182 -523q0 -136 -30.5 -256.5t-92.5 -217.5t-156 -164.5t-222 -96.5q52 -56 97.5 -99t91 -72.5t94.5 -44.5t108 -15q16 0 35 1.5t38.5 5
t37.5 8t33 10.5v-162q-16 -5 -36 -8.5t-40.5 -6t-40.5 -4t-37 -1.5q-96 0 -172.5 28.5t-143 78t-128.5 115.5t-130 142zM778 1306q-226 0 -367 -163t-141 -428q0 -264 137 -427q138 -161 359 -161q236 0 372 154t136 431q0 285 -132 439q-132 155 -364 155z" />
    <glyph glyph-name="R" unicode="R" horiz-adv-x="1225" 
d="M1216 0h-200l-240 402q-33 56 -64 95.5t-63.5 64.5t-70 36.5t-84.5 11.5h-138v-610h-168v1434h428q94 0 173.5 -23.5t138 -71.5t91.5 -119.5t33 -167.5q0 -75 -22.5 -137.5t-64 -111.5t-100 -83.5t-131.5 -53.5v-4q36 -16 62.5 -36.5t50.5 -48.5t47.5 -63.5t52.5 -82.5z
M356 1282v-520h228q63 0 116.5 19t92.5 54.5t61 87t22 115.5q0 115 -74.5 179.5t-215.5 64.5h-230z" />
    <glyph glyph-name="S" unicode="S" horiz-adv-x="1088" 
d="M121 58v198q34 -30 81.5 -54t100 -40.5t105.5 -25.5t98 -9q155 0 231.5 57.5t76.5 165.5q0 58 -25.5 101t-70.5 78.5t-106.5 68t-132.5 68.5q-75 38 -140 77t-113 86t-75.5 106.5t-27.5 139.5q0 98 43 170.5t113 119.5t159.5 70t182.5 23q212 0 309 -51v-189
q-127 88 -326 88q-55 0 -110 -11.5t-98 -37.5t-70 -67t-27 -100q0 -55 20.5 -95t60.5 -73t97.5 -64t132.5 -68q77 -38 146 -80t121 -93t82.5 -113t30.5 -142q0 -106 -41.5 -179.5t-112 -119.5t-162.5 -66.5t-194 -20.5q-34 0 -84 5.5t-102 16t-98.5 26t-74.5 34.5z" />
    <glyph glyph-name="T" unicode="T" horiz-adv-x="1073" 
d="M1036 1282h-414v-1282h-168v1282h-413v152h995v-152z" />
    <glyph glyph-name="U" unicode="U" horiz-adv-x="1407" 
d="M1237 580q0 -604 -545 -604q-522 0 -522 581v877h168v-866q0 -441 372 -441q359 0 359 426v881h168v-854z" />
    <glyph glyph-name="V" unicode="V" horiz-adv-x="1272" 
d="M1254 1434l-531 -1434h-185l-520 1434h187l397 -1137q19 -55 29 -127h4q8 60 33 129l405 1135h181z" />
    <glyph glyph-name="W" unicode="W" horiz-adv-x="1913" 
d="M1888 1434l-405 -1434h-197l-295 1048q-19 67 -23 146h-4q-6 -74 -26 -144l-297 -1050h-195l-420 1434h185l305 -1100q19 -69 24 -144h5q5 53 31 144l317 1100h161l304 -1108q16 -57 24 -134h4q4 52 27 138l293 1104h182z" />
    <glyph glyph-name="X" unicode="X" horiz-adv-x="1208" 
d="M1178 0h-205l-330 549q-15 25 -33 71h-4q-10 -23 -34 -71l-340 -549h-206l480 721l-442 713h206l293 -504q29 -50 51 -100h4q32 66 56 104l305 500h193l-451 -711z" />
    <glyph glyph-name="Y" unicode="Y" horiz-adv-x="1132" 
d="M1120 1434l-473 -904v-530h-168v526l-461 908h191l321 -648q6 -12 35 -88h3q10 34 38 88l336 648h178z" />
    <glyph glyph-name="Z" unicode="Z" horiz-adv-x="1168" 
d="M1124 1394l-840 -1242h820v-152h-1071v47l833 1235h-766v152h1024v-40z" />
    <glyph glyph-name="bracketleft" unicode="[" horiz-adv-x="618" 
d="M568 -326h-368v1760h368v-119h-222v-1522h222v-119z" />
    <glyph glyph-name="backslash" unicode="\" horiz-adv-x="776" 
d="M798 -240h-151l-673 1674h155z" />
    <glyph glyph-name="bracketright" unicode="]" horiz-adv-x="618" 
d="M420 -326h-367v119h221v1522h-221v119h367v-1760z" />
    <glyph glyph-name="asciicircum" unicode="^" horiz-adv-x="1401" 
d="M1174 624h-150l-332 619h-6l-309 -619h-147l422 834h65z" />
    <glyph glyph-name="underscore" unicode="_" horiz-adv-x="850" 
d="M850 -297h-850v119h850v-119z" />
    <glyph glyph-name="grave" unicode="`" horiz-adv-x="549" 
d="M471 1218h-127l-262 328h168z" />
    <glyph glyph-name="a" unicode="a" horiz-adv-x="1042" 
d="M899 0h-164v160h-4q-107 -184 -315 -184q-153 0 -239.5 81t-86.5 215q0 287 338 334l307 43q0 261 -211 261q-185 0 -334 -126v168q151 96 348 96q361 0 361 -382v-666zM735 518l-247 -34q-114 -16 -172 -56.5t-58 -143.5q0 -75 53.5 -122.5t142.5 -47.5
q122 0 201.5 85.5t79.5 216.5v102z" />
    <glyph glyph-name="b" unicode="b" horiz-adv-x="1204" 
d="M334 148h-4v-148h-164v1516h164v-672h4q121 204 354 204q197 0 308.5 -137.5t111.5 -368.5q0 -257 -125 -411.5t-342 -154.5q-203 0 -307 172zM330 561v-143q0 -127 82.5 -215.5t209.5 -88.5q149 0 233.5 114t84.5 317q0 171 -79 268t-214 97q-143 0 -230 -99.5
t-87 -249.5z" />
    <glyph glyph-name="c" unicode="c" horiz-adv-x="946" 
d="M864 47q-118 -71 -280 -71q-219 0 -353.5 142.5t-134.5 369.5q0 253 145 406.5t387 153.5q135 0 238 -50v-168q-114 80 -244 80q-157 0 -257.5 -112.5t-100.5 -295.5q0 -180 94.5 -284t253.5 -104q134 0 252 89v-156z" />
    <glyph glyph-name="d" unicode="d" horiz-adv-x="1206" 
d="M1040 0h-164v174h-4q-114 -198 -352 -198q-193 0 -308.5 137.5t-115.5 374.5q0 254 128 407t341 153q211 0 307 -166h4v634h164v-1516zM876 463v151q0 124 -82 210t-208 86q-150 0 -236 -110t-86 -304q0 -177 82.5 -279.5t221.5 -102.5q137 0 222.5 99t85.5 250z" />
    <glyph glyph-name="e" unicode="e" horiz-adv-x="1071" 
d="M989 471h-723q4 -171 92 -264t242 -93q173 0 318 114v-154q-135 -98 -357 -98q-217 0 -341 139.5t-124 392.5q0 239 135.5 389.5t336.5 150.5t311 -130t110 -361v-86zM821 610q-1 142 -68.5 221t-187.5 79q-116 0 -197 -83t-100 -217h553z" />
    <glyph glyph-name="f" unicode="f" horiz-adv-x="641" 
d="M672 1372q-48 27 -109 27q-172 0 -172 -217v-158h240v-140h-240v-884h-163v884h-175v140h175v166q0 161 93 254.5t232 93.5q75 0 119 -18v-148z" />
    <glyph glyph-name="g" unicode="g" horiz-adv-x="1206" 
d="M1040 82q0 -564 -540 -564q-190 0 -332 72v164q173 -96 330 -96q378 0 378 402v112h-4q-117 -196 -352 -196q-191 0 -307.5 136.5t-116.5 366.5q0 261 125.5 415t343.5 154q207 0 307 -166h4v142h164v-942zM876 463v151q0 122 -82.5 209t-205.5 87q-152 0 -238 -110.5
t-86 -309.5q0 -171 82.5 -273.5t218.5 -102.5q138 0 224.5 98t86.5 251z" />
    <glyph glyph-name="h" unicode="h" horiz-adv-x="1159" 
d="M1016 0h-164v590q0 320 -238 320q-120 0 -202 -92.5t-82 -237.5v-580h-164v1516h164v-662h4q118 194 336 194q346 0 346 -417v-631z" />
    <glyph glyph-name="i" unicode="i" horiz-adv-x="496" 
d="M250 1284q-44 0 -75 30t-31 76t31 76.5t75 30.5q45 0 76.5 -30.5t31.5 -76.5q0 -44 -31.5 -75t-76.5 -31zM330 0h-164v1024h164v-1024z" />
    <glyph glyph-name="j" unicode="j" horiz-adv-x="496" 
d="M330 43q0 -252 -101.5 -388.5t-290.5 -136.5q-70 0 -136 32v153q74 -45 140 -45q224 0 224 358v1008h164v-981zM250 1284q-44 0 -75 30t-31 76t31 76.5t75 30.5q45 0 76.5 -30.5t31.5 -76.5q0 -44 -31.5 -75t-76.5 -31z" />
    <glyph glyph-name="k" unicode="k" horiz-adv-x="1018" 
d="M1016 0h-230l-452 492h-4v-492h-164v1516h164v-961h4l430 469h215l-475 -494z" />
    <glyph glyph-name="l" unicode="l" horiz-adv-x="496" 
d="M330 0h-164v1516h164v-1516z" />
    <glyph glyph-name="m" unicode="m" horiz-adv-x="1764" 
d="M1620 0h-164v588q0 170 -52.5 246t-176.5 76q-105 0 -178.5 -96t-73.5 -230v-584h-164v608q0 302 -233 302q-108 0 -178 -90.5t-70 -235.5v-584h-164v1024h164v-162h4q109 186 318 186q105 0 183 -58.5t107 -153.5q114 212 340 212q338 0 338 -417v-631z" />
    <glyph glyph-name="n" unicode="n" horiz-adv-x="1159" 
d="M1016 0h-164v584q0 326 -238 326q-123 0 -203.5 -92.5t-80.5 -233.5v-584h-164v1024h164v-170h4q116 194 336 194q168 0 257 -108.5t89 -313.5v-626z" />
    <glyph glyph-name="o" unicode="o" horiz-adv-x="1200" 
d="M594 -24q-227 0 -362.5 143.5t-135.5 380.5q0 258 141 403t381 145q229 0 357.5 -141t128.5 -391q0 -245 -138.5 -392.5t-371.5 -147.5zM606 910q-158 0 -250 -107.5t-92 -296.5q0 -182 93 -287t249 -105q159 0 244.5 103t85.5 293q0 192 -85.5 296t-244.5 104z" />
    <glyph glyph-name="p" unicode="p" horiz-adv-x="1204" 
d="M334 148h-4v-619h-164v1495h164v-180h4q121 204 354 204q198 0 309 -137.5t111 -368.5q0 -257 -125 -411.5t-342 -154.5q-199 0 -307 172zM330 561v-143q0 -127 82.5 -215.5t209.5 -88.5q149 0 233.5 114t84.5 317q0 171 -79 268t-214 97q-143 0 -230 -99.5t-87 -249.5z
" />
    <glyph glyph-name="q" unicode="q" horiz-adv-x="1206" 
d="M1040 -471h-164v647h-4q-107 -200 -350 -200q-193 0 -309.5 137.5t-116.5 374.5q0 255 128 407.5t344 152.5q210 0 304 -166h4v142h164v-1495zM876 461v149q0 126 -82.5 213t-209.5 87q-148 0 -234 -109.5t-86 -308.5q0 -177 83 -277.5t214 -100.5q144 0 229.5 98.5
t85.5 248.5z" />
    <glyph glyph-name="r" unicode="r" horiz-adv-x="712" 
d="M700 858q-43 33 -124 33q-105 0 -175.5 -99t-70.5 -270v-522h-164v1024h164v-211h4q35 108 107 168.5t161 60.5q64 0 98 -14v-170z" />
    <glyph glyph-name="s" unicode="s" horiz-adv-x="869" 
d="M104 37v176q134 -99 295 -99q216 0 216 144q0 41 -18.5 69.5t-50 50.5t-74 39.5t-91.5 36.5q-68 27 -119.5 54.5t-86 62t-52 78.5t-17.5 103q0 72 33 127.5t88 93t125.5 56.5t145.5 19q133 0 238 -46v-166q-113 74 -260 74q-46 0 -83 -10.5t-63.5 -29.5t-41 -45.5
t-14.5 -58.5q0 -40 14.5 -67t42.5 -48t68 -38t91 -37q68 -26 122 -53.5t92 -62t58.5 -79.5t20.5 -107q0 -76 -33.5 -132t-89.5 -93t-129 -55t-153 -18q-158 0 -274 61z" />
    <glyph glyph-name="t" unicode="t" horiz-adv-x="694" 
d="M641 10q-58 -32 -153 -32q-269 0 -269 300v606h-176v140h176v250l164 53v-303h258v-140h-258v-577q0 -103 35 -147t116 -44q62 0 107 34v-140z" />
    <glyph glyph-name="u" unicode="u" horiz-adv-x="1159" 
d="M994 0h-164v162h-4q-102 -186 -316 -186q-366 0 -366 436v612h163v-586q0 -324 248 -324q120 0 197.5 88.5t77.5 231.5v590h164v-1024z" />
    <glyph glyph-name="v" unicode="v" horiz-adv-x="981" 
d="M971 1024l-408 -1024h-161l-388 1024h180l260 -744q29 -82 36 -143h4q10 77 32 139l272 748h173z" />
    <glyph glyph-name="w" unicode="w" horiz-adv-x="1480" 
d="M1456 1024l-307 -1024h-170l-211 733q-12 42 -16 95h-4q-3 -36 -21 -93l-229 -735h-164l-310 1024h172l212 -770q10 -35 14 -92h8q3 44 18 94l236 768h150l212 -772q10 -37 15 -92h8q2 39 17 92l208 772h162z" />
    <glyph glyph-name="x" unicode="x" horiz-adv-x="940" 
d="M914 1024l-344 -518l338 -506h-191l-201 332q-19 31 -45 78h-4q-5 -9 -47 -78l-205 -332h-189l349 502l-334 522h191l198 -350q22 -39 43 -80h4l256 430h181z" />
    <glyph glyph-name="y" unicode="y" horiz-adv-x="991" 
d="M981 1024l-471 -1188q-126 -318 -354 -318q-64 0 -107 13v147q53 -18 97 -18q124 0 186 148l82 194l-400 1022h182l277 -788q5 -15 21 -78h6q5 24 20 76l291 790h170z" />
    <glyph glyph-name="z" unicode="z" horiz-adv-x="926" 
d="M880 977l-606 -837h600v-140h-841v51l606 833h-549v140h790v-47z" />
    <glyph glyph-name="braceleft" unicode="{" horiz-adv-x="618" 
d="M555 -326q-307 4 -307 310v300q0 202 -156 212v116q156 10 156 216v292q0 310 307 314v-128q-159 -4 -159 -198v-293q0 -210 -150 -258v-4q150 -45 150 -256v-289q0 -111 35.5 -158.5t123.5 -49.5v-126z" />
    <glyph glyph-name="bar" unicode="|" horiz-adv-x="490" 
d="M320 -482h-148v2048h148v-2048z" />
    <glyph glyph-name="braceright" unicode="}" horiz-adv-x="618" 
d="M528 496q-156 -10 -156 -212v-300q0 -306 -306 -310v126q87 2 123.5 50t36.5 158v289q0 211 149 256v4q-149 48 -149 258v293q0 194 -160 198v128q306 -4 306 -314v-292q0 -206 156 -216v-116z" />
    <glyph glyph-name="asciitilde" unicode="~" horiz-adv-x="1401" 
d="M1194 750q-7 -148 -80.5 -229t-199.5 -81q-109 0 -265 109q-97 67 -159 67q-140 0 -146 -176h-135q5 143 79.5 226.5t201.5 83.5q106 0 235 -88q132 -90 197 -90q61 0 98 49t39 129h135z" />
    <glyph glyph-name="uni00A0" unicode="&#xa0;" horiz-adv-x="561" 
 />
    <glyph glyph-name="exclamdown" unicode="&#xa1;" horiz-adv-x="582" 
d="M291 826q-46 0 -78.5 32t-32.5 78t32.5 78t78.5 32q45 0 78 -32t33 -78t-33 -78t-78 -32zM379 -406h-172l19 1030h134z" />
    <glyph glyph-name="cent" unicode="&#xa2;" horiz-adv-x="1104" 
d="M952 209q-96 -59 -221 -69v-189h-125v191q-193 22 -307.5 161t-114.5 346q0 219 114.5 366.5t307.5 184.5v213h125v-203q123 -2 221 -51v-172q-101 71 -221 78v-785q122 12 221 86v-157zM606 291v761q-119 -31 -186.5 -133.5t-67.5 -252.5t68 -249t186 -126z" />
    <glyph glyph-name="sterling" unicode="&#xa3;" horiz-adv-x="1104" 
d="M1006 0h-900v135q218 69 218 313v187h-197v141h197v254q0 188 109 308t282 120q117 0 213 -41v-155q-100 57 -211 57q-229 0 -229 -307v-236h296v-141h-296v-156q0 -242 -193 -339h711v-140z" />
    <glyph glyph-name="currency" unicode="&#xa4;" horiz-adv-x="1138" 
d="M1038 354l-92 -96l-137 138q-105 -76 -239 -76q-136 0 -240 76l-138 -138l-92 96l138 134q-76 113 -76 237q0 129 76 237l-138 136l92 96l138 -137q110 77 240 77q129 0 237 -77l139 137l92 -96l-137 -136q78 -112 78 -237q0 -121 -78 -237zM570 1002q-116 0 -195.5 -81
t-79.5 -194t80.5 -194t194.5 -81q113 0 194.5 81t81.5 194t-83 194t-193 81z" />
    <glyph glyph-name="yen" unicode="&#xa5;" horiz-adv-x="1104" 
d="M1042 1434l-356 -656h285v-139h-334v-207h334v-139h-334v-293h-164v293h-344v139h344v207h-344v139h291l-352 656h192l250 -514q28 -58 47 -111h4q13 42 49 117l252 508h180z" />
    <glyph glyph-name="brokenbar" unicode="&#xa6;" horiz-adv-x="490" 
d="M320 715h-148v851h148v-851zM320 -482h-148v852h148v-852z" />
    <glyph glyph-name="section" unicode="&#xa7;" horiz-adv-x="918" 
d="M658 416q90 -74 90 -186q0 -132 -100 -214t-255 -82q-131 0 -239 56v158q130 -74 250 -74q84 0 130 39.5t46 99.5q0 53 -35.5 89.5t-180.5 113.5q-233 122 -233 317q0 163 147 244q-106 83 -106 223q0 127 93.5 209t246.5 82q130 0 219 -43v-158q-101 62 -223 62
q-168 0 -168 -144q0 -55 40.5 -100t203.5 -123q223 -107 223 -293q0 -170 -149 -276zM398 905q-101 -51 -101 -159q0 -72 56.5 -126.5t197.5 -117.5q88 68 88 172q0 72 -52.5 122.5t-188.5 108.5z" />
    <glyph glyph-name="dieresis" unicode="&#xa8;" horiz-adv-x="848" 
d="M610 1218q-40 0 -69 28t-29 71q0 42 28 70t68 28q42 0 71 -28.5t29 -69.5t-28 -70t-70 -29zM226 1218q-42 0 -71.5 29.5t-29.5 69.5q0 42 28.5 70t69.5 28t71 -28.5t30 -69.5t-29 -70t-69 -29z" />
    <glyph glyph-name="copyright" unicode="&#xa9;" horiz-adv-x="1823" 
d="M912 -33q-311 0 -530.5 219.5t-219.5 530.5t219.5 530.5t530.5 219.5q310 0 529.5 -219.5t219.5 -530.5t-219.5 -530.5t-529.5 -219.5zM912 1379q-274 0 -468 -194t-194 -468t194 -467.5t468 -193.5t467.5 193.5t193.5 467.5t-193.5 468t-467.5 194zM1213 266
q-114 -69 -269 -69q-209 0 -350 141.5t-141 353.5q0 247 144.5 394t375.5 147q132 0 236 -53v-150q-95 72 -254 72q-156 0 -257.5 -106.5t-101.5 -286.5q0 -174 103.5 -279.5t263.5 -105.5q146 0 250 78v-136z" />
    <glyph glyph-name="ordfeminine" unicode="&#xaa;" horiz-adv-x="803" 
d="M688 717h-129v100h-4q-79 -119 -231 -119q-109 0 -175.5 59.5t-66.5 152.5q0 202 248 235l229 31q0 168 -151 168q-136 0 -254 -86v128q111 70 266 70q126 0 197 -72t71 -202v-465zM559 1075l-180 -25q-168 -23 -168 -134q0 -51 38.5 -83t102.5 -32q82 0 144.5 61
t62.5 146v67z" />
    <glyph glyph-name="guillemotleft" unicode="&#xab;" horiz-adv-x="1036" 
d="M946 200h-168l-299 336l299 344h170l-307 -344zM557 200h-166l-299 336l299 344h166l-303 -344z" />
    <glyph glyph-name="logicalnot" unicode="&#xac;" horiz-adv-x="1401" 
d="M1172 254h-132v430h-808v133h940v-563z" />
    <glyph glyph-name="uni00AD" unicode="&#xad;" horiz-adv-x="819" 
d="M690 506h-546v129h546v-129z" />
    <glyph glyph-name="registered" unicode="&#xae;" horiz-adv-x="1823" 
d="M912 -33q-311 0 -530.5 219.5t-219.5 530.5t219.5 530.5t530.5 219.5q310 0 529.5 -219.5t219.5 -530.5t-219.5 -530.5t-529.5 -219.5zM912 1379q-274 0 -468 -194t-194 -468t194 -467.5t468 -193.5t467.5 193.5t193.5 467.5t-193.5 468t-467.5 194zM1276 248h-162
l-104 229q-79 172 -170 172h-88v-401h-133v954h268q167 0 257.5 -70t90.5 -190q0 -98 -63.5 -167t-177.5 -93v-4q79 -17 157 -176zM752 1088v-326h143q197 0 197 164q0 88 -53 125t-168 37h-119z" />
    <glyph glyph-name="macron" unicode="&#xaf;" horiz-adv-x="1200" 
d="M1174 1048l-168 -180q98 -138 98 -346q0 -252 -139 -399t-371 -147q-192 0 -318 102l-145 -160l-82 78l149 164q-102 137 -102 340q0 258 142 403t382 145q184 0 308 -98l162 176zM821 836q-79 74 -215 74q-159 0 -250.5 -107.5t-91.5 -296.5q0 -132 50 -224zM891 742
l-508 -552q87 -76 221 -76q163 0 248.5 104t85.5 294q0 134 -47 230z" />
    <glyph glyph-name="degree" unicode="&#xb0;" horiz-adv-x="772" 
d="M385 897q-115 0 -196 81.5t-81 197.5q0 115 80 194.5t195 79.5q116 0 197.5 -80t81.5 -194q0 -116 -81 -197.5t-196 -81.5zM385 1333q-65 0 -111 -46t-46 -111q0 -67 45 -114.5t110 -47.5t112 48t47 114t-46 111.5t-111 45.5z" />
    <glyph glyph-name="plusminus" unicode="&#xb1;" horiz-adv-x="1401" 
d="M1172 652h-404v-404h-131v404h-405v132h405v404h131v-404h404v-132zM1172 0h-940v133h940v-133z" />
    <glyph glyph-name="uni00B2" unicode="&#xb2;" horiz-adv-x="750" 
d="M658 584h-554v114l240 236q104 102 132 156.5t28 109.5q0 58 -38 94.5t-100 36.5q-118 0 -216 -102v149q84 76 235 76q118 0 187 -66t69 -174q0 -153 -205 -348l-164 -156v-4h386v-122z" />
    <glyph glyph-name="uni00B3" unicode="&#xb3;" horiz-adv-x="750" 
d="M129 616v142q103 -76 217 -76q80 0 126 37.5t46 101.5q0 141 -219 141h-84v118h80q197 0 197 134q0 119 -144 119q-94 0 -186 -69v139q87 51 213 51q113 0 180 -59.5t67 -155.5q0 -151 -145 -205v-4q177 -42 177 -202q0 -117 -85 -191t-227 -74q-137 0 -213 53z" />
    <glyph glyph-name="acute" unicode="&#xb4;" horiz-adv-x="578" 
d="M524 1546l-262 -328h-127l223 328h166z" />
    <glyph glyph-name="mu" unicode="&#xb5;" horiz-adv-x="1182" 
d="M1048 0h-170q-23 72 -23 168h-5q-84 -191 -279 -191q-167 0 -238 123h-4v-496h-163v1420h163v-626q0 -127 69 -202t180 -75q121 0 196.5 86t75.5 231v586h166v-759q0 -188 32 -265z" />
    <glyph glyph-name="paragraph" unicode="&#xb6;" horiz-adv-x="938" 
d="M834 1331h-128v-1331h-106v1331h-158v-1331h-108v903q-108 0 -179 76t-71 191q0 117 74.5 190.5t181.5 73.5h494v-103z" />
    <glyph glyph-name="periodcentered" unicode="&#xb7;" horiz-adv-x="444" 
d="M223 510q-46 0 -78.5 33t-32.5 79q0 47 32.5 80t78.5 33q47 0 80 -33t33 -80q0 -46 -33 -79t-80 -33z" />
    <glyph glyph-name="cedilla" unicode="&#xb8;" horiz-adv-x="420" 
d="M391 -256q0 -176 -275 -176q-38 0 -65 2v90q43 -6 70 -6q141 0 141 90q0 78 -129 78q-10 0 -41 -4v182h108v-104q88 0 139.5 -40t51.5 -112z" />
    <glyph glyph-name="uni00B9" unicode="&#xb9;" horiz-adv-x="719" 
d="M639 584h-504v112h185v594l-193 -55v125l323 96v-760h189v-112z" />
    <glyph glyph-name="ordmasculine" unicode="&#xba;" horiz-adv-x="882" 
d="M436 696q-167 0 -262.5 100.5t-95.5 272.5q0 181 102.5 283t271.5 102q163 0 257 -99.5t94 -270.5q0 -178 -99.5 -283t-267.5 -105zM444 1344q-106 0 -168.5 -72t-62.5 -199q0 -124 59.5 -194t169.5 -70q105 0 166.5 71.5t61.5 194.5q0 126 -60.5 197.5t-165.5 71.5z" />
    <glyph glyph-name="guillemotright" unicode="&#xbb;" horiz-adv-x="1036" 
d="M948 538l-301 -338h-165l302 338l-302 342h165zM559 538l-299 -338h-170l308 338l-308 342h170z" />
    <glyph glyph-name="onequarter" unicode="&#xbc;" horiz-adv-x="1856" 
d="M639 584h-504v112h185v594l-193 -55v125l323 96v-760h189v-112zM1393 1434l-858 -1434h-144l859 1434h143zM1706 204h-110v-204h-132v204h-393v92l369 554h156v-537h110v-109zM1468 724h-4q-12 -31 -38 -73l-218 -338h256v323q0 32 4 88z" />
    <glyph glyph-name="onehalf" unicode="&#xbd;" horiz-adv-x="1906" 
d="M639 584h-504v112h185v594l-193 -55v125l323 96v-760h189v-112zM1393 1434l-858 -1434h-144l859 1434h143zM1748 1h-554v114l240 236q104 102 132 156.5t28 109.5q0 58 -38 94.5t-100 36.5q-118 0 -216 -102v149q84 76 235 76q118 0 187 -66t69 -174q0 -153 -205 -348
l-164 -156v-4h386v-122z" />
    <glyph glyph-name="threequarters" unicode="&#xbe;" horiz-adv-x="1950" 
d="M129 616v142q103 -76 217 -76q80 0 126 37.5t46 101.5q0 141 -219 141h-84v118h80q197 0 197 134q0 119 -144 119q-94 0 -186 -69v139q87 51 213 51q113 0 180 -59.5t67 -155.5q0 -151 -145 -205v-4q177 -42 177 -202q0 -117 -85 -191t-227 -74q-137 0 -213 53z
M1464 1434l-858 -1434h-144l859 1434h143zM1771 204h-110v-204h-132v204h-393v92l369 554h156v-537h110v-109zM1533 724h-4q-12 -31 -38 -73l-218 -338h256v323q0 32 4 88z" />
    <glyph glyph-name="questiondown" unicode="&#xbf;" horiz-adv-x="918" 
d="M625 630q9 -26 16 -67.5t7 -82.5q0 -64 -25.5 -115.5t-63.5 -96.5t-83 -86.5t-83 -84t-63.5 -89t-25.5 -102.5q0 -48 18.5 -85t50.5 -62t74 -37.5t89 -12.5q169 0 293 133v-176q-153 -96 -317 -96q-76 0 -143 20t-117 59.5t-79.5 98.5t-29.5 137q0 74 26 132t65.5 106.5
t85.5 90.5t85.5 83.5t65.5 86.5t26 99q0 46 -11 83.5t-22 63.5h161zM535 1046q44 0 78 -32q33 -31 33 -78q0 -46 -33 -78q-33 -33 -78 -33t-78 33q-33 32 -33 78q0 47 33 78q34 32 78 32z" />
    <glyph glyph-name="Agrave" unicode="&#xc0;" horiz-adv-x="1321" 
d="M1298 0h-186l-152 402h-608l-143 -402h-187l550 1434h174zM905 553l-225 611q-11 30 -22 96h-4q-10 -61 -23 -96l-223 -611h497zM758 1566h-127l-262 328h168z" />
    <glyph glyph-name="Aacute" unicode="&#xc1;" horiz-adv-x="1321" 
d="M1298 0h-186l-152 402h-608l-143 -402h-187l550 1434h174zM905 553l-225 611q-11 30 -22 96h-4q-10 -61 -23 -96l-223 -611h497zM867 1894l-262 -328h-127l223 328h166z" />
    <glyph glyph-name="Acircumflex" unicode="&#xc2;" horiz-adv-x="1321" 
d="M1298 0h-186l-152 402h-608l-143 -402h-187l550 1434h174zM905 553l-225 611q-11 30 -22 96h-4q-10 -61 -23 -96l-223 -611h497zM927 1565h-122l-164 230l-165 -230h-113l215 332h133z" />
    <glyph glyph-name="Atilde" unicode="&#xc3;" horiz-adv-x="1321" 
d="M1298 0h-186l-152 402h-608l-143 -402h-187l550 1434h174zM905 553l-225 611q-11 30 -22 96h-4q-10 -61 -23 -96l-223 -611h497zM977 1803q0 -105 -48 -171.5t-130 -66.5q-71 0 -162 52q-77 43 -119 43q-88 0 -88 -113h-94q0 107 48 171.5t134 64.5q65 0 149 -52
q74 -44 128 -44q84 0 84 116h98z" />
    <glyph glyph-name="Adieresis" unicode="&#xc4;" horiz-adv-x="1321" 
d="M1298 0h-186l-152 402h-608l-143 -402h-187l550 1434h174zM905 553l-225 611q-11 30 -22 96h-4q-10 -61 -23 -96l-223 -611h497zM840 1565q-40 0 -69 28t-29 71q0 42 28 70t68 28q42 0 71 -28.5t29 -69.5t-28 -70t-70 -29zM456 1565q-42 0 -71.5 29.5t-29.5 69.5
q0 42 28.5 70t69.5 28t71 -28.5t30 -69.5t-29 -70t-69 -29z" />
    <glyph glyph-name="Aring" unicode="&#xc5;" horiz-adv-x="1321" 
d="M1298 0h-186l-152 402h-608l-143 -402h-187l529 1378q-101 52 -101 164q0 89 60 144t152 55q88 0 144 -54.5t56 -138.5q0 -112 -96 -166zM656 1659q-50 0 -82 -31.5t-32 -79.5q0 -114 114 -114q48 0 81 33t33 81q0 49 -33 80t-81 31zM905 553l-225 611q-11 30 -22 96h-4
q-10 -61 -23 -96l-223 -611h497z" />
    <glyph glyph-name="AE" unicode="&#xc6;" horiz-adv-x="1762" 
d="M1667 0h-759v402h-510l-193 -402h-195l700 1434h924v-152h-559v-477h519v-151h-519v-502h592v-152zM908 553v729h-95l-346 -729h441z" />
    <glyph glyph-name="Ccedilla" unicode="&#xc7;" horiz-adv-x="1268" 
d="M1164 60q-159 -84 -396 -84q-306 0 -490 197t-184 517q0 344 207 556t525 212q204 0 338 -59v-179q-154 86 -340 86q-247 0 -400.5 -165t-153.5 -441q0 -262 143.5 -417.5t376.5 -155.5q216 0 374 96v-163zM960 -256q0 -176 -275 -176q-38 0 -65 2v90q43 -6 70 -6
q141 0 141 90q0 78 -129 78q-10 0 -41 -4v182h108v-104q88 0 139.5 -40t51.5 -112z" />
    <glyph glyph-name="Egrave" unicode="&#xc8;" horiz-adv-x="1036" 
d="M948 0h-760v1434h728v-152h-560v-477h518v-151h-518v-502h592v-152zM703 1566h-127l-262 328h168z" />
    <glyph glyph-name="Eacute" unicode="&#xc9;" horiz-adv-x="1036" 
d="M948 0h-760v1434h728v-152h-560v-477h518v-151h-518v-502h592v-152zM803 1893l-262 -328h-127l223 328h166z" />
    <glyph glyph-name="Ecircumflex" unicode="&#xca;" horiz-adv-x="1036" 
d="M948 0h-760v1434h728v-152h-560v-477h518v-151h-518v-502h592v-152zM827 1567h-122l-164 230l-165 -230h-113l215 332h133z" />
    <glyph glyph-name="Edieresis" unicode="&#xcb;" horiz-adv-x="1036" 
d="M948 0h-760v1434h728v-152h-560v-477h518v-151h-518v-502h592v-152zM749 1566q-40 0 -69 28t-29 71q0 42 28 70t68 28q42 0 71 -28.5t29 -69.5t-28 -70t-70 -29zM365 1566q-42 0 -71.5 29.5t-29.5 69.5q0 42 28.5 70t69.5 28t71 -28.5t30 -69.5t-29 -70t-69 -29z" />
    <glyph glyph-name="Igrave" unicode="&#xcc;" horiz-adv-x="545" 
d="M496 1434v-144h-140v-1146h140v-144h-448v144h140v1146h-140v144h448zM416 1566h-127l-262 328h168z" />
    <glyph glyph-name="Iacute" unicode="&#xcd;" horiz-adv-x="545" 
d="M496 1434v-144h-140v-1146h140v-144h-448v144h140v1146h-140v144h448zM509 1894l-262 -328h-127l223 328h166z" />
    <glyph glyph-name="Icircumflex" unicode="&#xce;" horiz-adv-x="545" 
d="M496 1434v-144h-140v-1146h140v-144h-448v144h140v1146h-140v144h448zM560 1567h-122l-164 230l-165 -230h-113l215 332h133z" />
    <glyph glyph-name="Idieresis" unicode="&#xcf;" horiz-adv-x="545" 
d="M496 1434v-144h-140v-1146h140v-144h-448v144h140v1146h-140v144h448zM470 1566q-40 0 -69 28t-29 71q0 42 28 70t68 28q42 0 71 -28.5t29 -69.5t-28 -70t-70 -29zM86 1566q-42 0 -71.5 29.5t-29.5 69.5q0 42 28.5 70t69.5 28t71 -28.5t30 -69.5t-29 -70t-69 -29z" />
    <glyph glyph-name="Eth" unicode="&#xd0;" horiz-adv-x="1436" 
d="M188 0v641h-160v155h160v638h396q758 0 758 -699q0 -334 -210.5 -534.5t-563.5 -200.5h-380zM356 1282v-486h336v-155h-336v-489h214q282 0 439 151t157 428q0 551 -586 551h-224z" />
    <glyph glyph-name="Ntilde" unicode="&#xd1;" horiz-adv-x="1532" 
d="M1344 0h-206l-738 1143q-28 43 -46 90h-6q8 -46 8 -197v-1036h-168v1434h218l718 -1125q45 -70 58 -96h4q-10 62 -10 211v1010h168v-1434zM1113 1803q0 -105 -48 -171.5t-130 -66.5q-71 0 -162 52q-77 43 -119 43q-88 0 -88 -113h-94q0 107 48 171.5t134 64.5
q65 0 149 -52q74 -44 128 -44q84 0 84 116h98z" />
    <glyph glyph-name="Ograve" unicode="&#xd2;" horiz-adv-x="1544" 
d="M766 -24q-305 0 -488.5 201t-183.5 523q0 346 187 552t509 206q297 0 478.5 -200t181.5 -523q0 -351 -186 -555t-498 -204zM778 1306q-226 0 -367 -163t-141 -428t137.5 -426.5t358.5 -161.5q236 0 372 154t136 431q0 284 -132 439t-364 155zM880 1566h-127l-262 328h168
z" />
    <glyph glyph-name="Oacute" unicode="&#xd3;" horiz-adv-x="1544" 
d="M766 -24q-305 0 -488.5 201t-183.5 523q0 346 187 552t509 206q297 0 478.5 -200t181.5 -523q0 -351 -186 -555t-498 -204zM778 1306q-226 0 -367 -163t-141 -428t137.5 -426.5t358.5 -161.5q236 0 372 154t136 431q0 284 -132 439t-364 155zM1028 1894l-262 -328h-127
l223 328h166z" />
    <glyph glyph-name="Ocircumflex" unicode="&#xd4;" horiz-adv-x="1544" 
d="M766 -24q-305 0 -488.5 201t-183.5 523q0 346 187 552t509 206q297 0 478.5 -200t181.5 -523q0 -351 -186 -555t-498 -204zM778 1306q-226 0 -367 -163t-141 -428t137.5 -426.5t358.5 -161.5q236 0 372 154t136 431q0 284 -132 439t-364 155zM1063 1566h-122l-164 230
l-165 -230h-113l215 332h133z" />
    <glyph glyph-name="Otilde" unicode="&#xd5;" horiz-adv-x="1544" 
d="M766 -24q-305 0 -488.5 201t-183.5 523q0 346 187 552t509 206q297 0 478.5 -200t181.5 -523q0 -351 -186 -555t-498 -204zM778 1306q-226 0 -367 -163t-141 -428t137.5 -426.5t358.5 -161.5q236 0 372 154t136 431q0 284 -132 439t-364 155zM1103 1802
q0 -105 -48 -171.5t-130 -66.5q-71 0 -162 52q-77 43 -119 43q-88 0 -88 -113h-94q0 107 48 171.5t134 64.5q65 0 149 -52q74 -44 128 -44q84 0 84 116h98z" />
    <glyph glyph-name="Odieresis" unicode="&#xd6;" horiz-adv-x="1544" 
d="M766 -24q-305 0 -488.5 201t-183.5 523q0 346 187 552t509 206q297 0 478.5 -200t181.5 -523q0 -351 -186 -555t-498 -204zM778 1306q-226 0 -367 -163t-141 -428t137.5 -426.5t358.5 -161.5q236 0 372 154t136 431q0 284 -132 439t-364 155zM968 1563q-40 0 -69 28
t-29 71q0 42 28 70t68 28q42 0 71 -28.5t29 -69.5t-28 -70t-70 -29zM584 1563q-42 0 -71.5 29.5t-29.5 69.5q0 42 28.5 70t69.5 28t71 -28.5t30 -69.5t-29 -70t-69 -29z" />
    <glyph glyph-name="multiply" unicode="&#xd7;" horiz-adv-x="1401" 
d="M1134 258l-94 -94l-340 340l-338 -340l-94 94l340 338l-340 340l94 94l338 -340l340 340l94 -94l-340 -340z" />
    <glyph glyph-name="Oslash" unicode="&#xd8;" horiz-adv-x="1544" 
d="M324 131l-152 -182l-78 65l158 191q-158 195 -158 495q0 343 186.5 550.5t509.5 207.5q234 0 402 -129l135 162l78 -63l-139 -166q184 -200 184 -527q0 -351 -186 -555t-498 -204q-266 0 -442 155zM1090 1204q-126 102 -312 102q-227 0 -367.5 -164t-140.5 -427
q0 -223 98 -373zM1157 1130l-725 -866q131 -137 334 -137q236 0 372 154.5t136 430.5q0 260 -117 418z" />
    <glyph glyph-name="Ugrave" unicode="&#xd9;" horiz-adv-x="1407" 
d="M1237 580q0 -604 -545 -604q-522 0 -522 581v877h168v-866q0 -441 372 -441q359 0 359 426v881h168v-854zM830 1566h-127l-262 328h168z" />
    <glyph glyph-name="Uacute" unicode="&#xda;" horiz-adv-x="1407" 
d="M1237 580q0 -604 -545 -604q-522 0 -522 581v877h168v-866q0 -441 372 -441q359 0 359 426v881h168v-854zM960 1893l-262 -328h-127l223 328h166z" />
    <glyph glyph-name="Ucircumflex" unicode="&#xdb;" horiz-adv-x="1407" 
d="M1237 580q0 -604 -545 -604q-522 0 -522 581v877h168v-866q0 -441 372 -441q359 0 359 426v881h168v-854zM987 1567h-122l-164 230l-165 -230h-113l215 332h133z" />
    <glyph glyph-name="Udieresis" unicode="&#xdc;" horiz-adv-x="1407" 
d="M1237 580q0 -604 -545 -604q-522 0 -522 581v877h168v-866q0 -441 372 -441q359 0 359 426v881h168v-854zM895 1567q-40 0 -69 28t-29 71q0 42 28 70t68 28q42 0 71 -28.5t29 -69.5t-28 -70t-70 -29zM511 1567q-42 0 -71.5 29.5t-29.5 69.5q0 42 28.5 70t69.5 28
t71 -28.5t30 -69.5t-29 -70t-69 -29z" />
    <glyph glyph-name="Yacute" unicode="&#xdd;" horiz-adv-x="1132" 
d="M1120 1434l-473 -904v-530h-168v526l-461 908h191l321 -648q6 -12 35 -88h3q10 34 38 88l336 648h178zM831 1894l-262 -328h-127l223 328h166z" />
    <glyph glyph-name="Thorn" unicode="&#xde;" horiz-adv-x="1147" 
d="M356 318v-318h-168v1434h168v-226h226q232 0 357.5 -111.5t125.5 -316.5q0 -204 -141.5 -333t-381.5 -129h-186zM356 1057v-588h176q173 0 265 78t92 223q0 287 -336 287h-197z" />
    <glyph glyph-name="germandbls" unicode="&#xdf;" horiz-adv-x="1114" 
d="M461 2v160q75 -48 170 -48q109 0 177 73.5t68 197.5q0 150 -100 243.5t-278 113.5v130q118 20 194 103t76 197q0 108 -55 167.5t-152 59.5q-231 0 -231 -309v-1090h-164v1114q0 192 110 308t296 116q166 0 265 -95t99 -251q0 -127 -75 -228t-195 -140v-5
q378 -75 378 -426q0 -177 -111 -297t-294 -120q-101 0 -178 26z" />
    <glyph glyph-name="agrave" unicode="&#xe0;" horiz-adv-x="1042" 
d="M899 0h-164v160h-4q-107 -184 -315 -184q-153 0 -239.5 81t-86.5 215q0 287 338 334l307 43q0 261 -211 261q-185 0 -334 -126v168q151 96 348 96q361 0 361 -382v-666zM735 518l-247 -34q-114 -16 -172 -56.5t-58 -143.5q0 -75 53.5 -122.5t142.5 -47.5
q122 0 201.5 85.5t79.5 216.5v102zM674 1218h-127l-262 328h168z" />
    <glyph glyph-name="aacute" unicode="&#xe1;" horiz-adv-x="1042" 
d="M899 0h-164v160h-4q-107 -184 -315 -184q-153 0 -239.5 81t-86.5 215q0 287 338 334l307 43q0 261 -211 261q-185 0 -334 -126v168q151 96 348 96q361 0 361 -382v-666zM735 518l-247 -34q-114 -16 -172 -56.5t-58 -143.5q0 -75 53.5 -122.5t142.5 -47.5
q122 0 201.5 85.5t79.5 216.5v102zM757 1546l-262 -328h-127l223 328h166z" />
    <glyph glyph-name="acircumflex" unicode="&#xe2;" horiz-adv-x="1042" 
d="M899 0h-164v160h-4q-107 -184 -315 -184q-153 0 -239.5 81t-86.5 215q0 287 338 334l307 43q0 261 -211 261q-185 0 -334 -126v168q151 96 348 96q361 0 361 -382v-666zM735 518l-247 -34q-114 -16 -172 -56.5t-58 -143.5q0 -75 53.5 -122.5t142.5 -47.5
q122 0 201.5 85.5t79.5 216.5v102zM806 1218h-122l-164 230l-165 -230h-113l215 332h133z" />
    <glyph glyph-name="atilde" unicode="&#xe3;" horiz-adv-x="1042" 
d="M899 0h-164v160h-4q-107 -184 -315 -184q-153 0 -239.5 81t-86.5 215q0 287 338 334l307 43q0 261 -211 261q-185 0 -334 -126v168q151 96 348 96q361 0 361 -382v-666zM735 518l-247 -34q-114 -16 -172 -56.5t-58 -143.5q0 -75 53.5 -122.5t142.5 -47.5
q122 0 201.5 85.5t79.5 216.5v102zM844 1458q0 -105 -48 -171.5t-130 -66.5q-71 0 -162 52q-77 43 -119 43q-88 0 -88 -113h-94q0 107 48 171.5t134 64.5q65 0 149 -52q74 -44 128 -44q84 0 84 116h98z" />
    <glyph glyph-name="adieresis" unicode="&#xe4;" horiz-adv-x="1042" 
d="M899 0h-164v160h-4q-107 -184 -315 -184q-153 0 -239.5 81t-86.5 215q0 287 338 334l307 43q0 261 -211 261q-185 0 -334 -126v168q151 96 348 96q361 0 361 -382v-666zM735 518l-247 -34q-114 -16 -172 -56.5t-58 -143.5q0 -75 53.5 -122.5t142.5 -47.5
q122 0 201.5 85.5t79.5 216.5v102zM708 1218q-40 0 -69 28t-29 71q0 42 28 70t68 28q42 0 71 -28.5t29 -69.5t-28 -70t-70 -29zM324 1218q-42 0 -71.5 29.5t-29.5 69.5q0 42 28.5 70t69.5 28t71 -28.5t30 -69.5t-29 -70t-69 -29z" />
    <glyph glyph-name="aring" unicode="&#xe5;" horiz-adv-x="1042" 
d="M899 0h-164v160h-4q-107 -184 -315 -184q-153 0 -239.5 81t-86.5 215q0 287 338 334l307 43q0 261 -211 261q-185 0 -334 -126v168q151 96 348 96q361 0 361 -382v-666zM735 518l-247 -34q-114 -16 -172 -56.5t-58 -143.5q0 -75 53.5 -122.5t142.5 -47.5
q122 0 201.5 85.5t79.5 216.5v102zM517 1176q-87 0 -144.5 52.5t-57.5 137.5q0 90 59 144t150 54q89 0 146 -54t57 -138t-61 -140t-149 -56zM517 1483q-48 0 -80 -32.5t-32 -80.5q0 -112 112 -112q50 0 83 32t33 80q0 49 -33 81t-83 32z" />
    <glyph glyph-name="ae" unicode="&#xe6;" horiz-adv-x="1704" 
d="M1622 471h-725q3 -171 91 -264t241 -93q177 0 321 114v-154q-132 -98 -358 -98q-270 0 -383 229h-4q-145 -229 -387 -229q-153 0 -240.5 80.5t-87.5 215.5q0 300 383 324l262 16q0 298 -215 298q-175 0 -330 -122v164q148 96 348 96q232 0 300 -200h4q116 200 356 200
q202 0 313 -130.5t111 -362.5v-84zM1454 610q-2 144 -68.5 222t-185.5 78q-116 0 -199 -82t-102 -218h555zM735 410v63l-203 -12q-139 -8 -207.5 -49t-68.5 -136q0 -73 53 -117.5t143 -44.5q119 0 201 84.5t82 211.5z" />
    <glyph glyph-name="ccedilla" unicode="&#xe7;" horiz-adv-x="946" 
d="M864 47q-118 -71 -280 -71q-219 0 -353.5 142.5t-134.5 369.5q0 253 145 406.5t387 153.5q135 0 238 -50v-168q-114 80 -244 80q-157 0 -257.5 -112.5t-100.5 -295.5q0 -180 94.5 -284t253.5 -104q134 0 252 89v-156zM778 -256q0 -176 -275 -176q-38 0 -65 2v90
q43 -6 70 -6q141 0 141 90q0 78 -129 78q-10 0 -41 -4v182h108v-104q88 0 139.5 -40t51.5 -112z" />
    <glyph glyph-name="egrave" unicode="&#xe8;" horiz-adv-x="1071" 
d="M989 471h-723q4 -171 92 -264t242 -93q173 0 318 114v-154q-135 -98 -357 -98q-217 0 -341 139.5t-124 392.5q0 239 135.5 389.5t336.5 150.5t311 -130t110 -361v-86zM821 610q-1 142 -68.5 221t-187.5 79q-116 0 -197 -83t-100 -217h553zM725 1218h-127l-262 328h168z
" />
    <glyph glyph-name="eacute" unicode="&#xe9;" horiz-adv-x="1071" 
d="M989 471h-723q4 -171 92 -264t242 -93q173 0 318 114v-154q-135 -98 -357 -98q-217 0 -341 139.5t-124 392.5q0 239 135.5 389.5t336.5 150.5t311 -130t110 -361v-86zM821 610q-1 142 -68.5 221t-187.5 79q-116 0 -197 -83t-100 -217h553zM795 1546l-262 -328h-127
l223 328h166z" />
    <glyph glyph-name="ecircumflex" unicode="&#xea;" horiz-adv-x="1071" 
d="M989 471h-723q4 -171 92 -264t242 -93q173 0 318 114v-154q-135 -98 -357 -98q-217 0 -341 139.5t-124 392.5q0 239 135.5 389.5t336.5 150.5t311 -130t110 -361v-86zM821 610q-1 142 -68.5 221t-187.5 79q-116 0 -197 -83t-100 -217h553zM840 1218h-122l-164 230
l-165 -230h-113l215 332h133z" />
    <glyph glyph-name="edieresis" unicode="&#xeb;" horiz-adv-x="1071" 
d="M989 471h-723q4 -171 92 -264t242 -93q173 0 318 114v-154q-135 -98 -357 -98q-217 0 -341 139.5t-124 392.5q0 239 135.5 389.5t336.5 150.5t311 -130t110 -361v-86zM821 610q-1 142 -68.5 221t-187.5 79q-116 0 -197 -83t-100 -217h553zM746 1218q-40 0 -69 28t-29 71
q0 42 28 70t68 28q42 0 71 -28.5t29 -69.5t-28 -70t-70 -29zM362 1218q-42 0 -71.5 29.5t-29.5 69.5q0 42 28.5 70t69.5 28t71 -28.5t30 -69.5t-29 -70t-69 -29z" />
    <glyph glyph-name="igrave" unicode="&#xec;" horiz-adv-x="496" 
d="M330 0h-164v1024h164v-1024zM369 1218h-127l-262 328h168z" />
    <glyph glyph-name="iacute" unicode="&#xed;" horiz-adv-x="496" 
d="M330 0h-164v1024h164v-1024zM477 1546l-262 -328h-127l223 328h166z" />
    <glyph glyph-name="icircumflex" unicode="&#xee;" horiz-adv-x="496" 
d="M330 0h-164v1024h164v-1024zM519 1218h-122l-164 230l-165 -230h-113l215 332h133z" />
    <glyph glyph-name="idieresis" unicode="&#xef;" horiz-adv-x="496" 
d="M330 0h-164v1024h164v-1024zM430 1218q-40 0 -69 28t-29 71q0 42 28 70t68 28q42 0 71 -28.5t29 -69.5t-28 -70t-70 -29zM46 1218q-42 0 -71.5 29.5t-29.5 69.5q0 42 28.5 70t69.5 28t71 -28.5t30 -69.5t-29 -70t-69 -29z" />
    <glyph glyph-name="eth" unicode="&#xf0;" horiz-adv-x="1145" 
d="M786 968l4 3q-90 162 -198 266l-299 -151l-51 98l270 131q-118 105 -264 201h221q75 -52 172 -136l289 144l55 -94l-264 -130q327 -307 327 -774q0 -240 -129 -394t-351 -154t-347 140t-125 382q0 243 130 394.5t350 151.5q123 0 210 -78zM582 910q-148 0 -233 -108.5
t-85 -295.5q0 -181 83 -286.5t231 -105.5q139 0 220.5 108t81.5 288q0 400 -298 400z" />
    <glyph glyph-name="ntilde" unicode="&#xf1;" horiz-adv-x="1159" 
d="M1016 0h-164v584q0 326 -238 326q-123 0 -203.5 -92.5t-80.5 -233.5v-584h-164v1024h164v-170h4q116 194 336 194q168 0 257 -108.5t89 -313.5v-626zM908 1458q0 -105 -48 -171.5t-130 -66.5q-71 0 -162 52q-77 43 -119 43q-88 0 -88 -113h-94q0 107 48 171.5t134 64.5
q65 0 149 -52q74 -44 128 -44q84 0 84 116h98z" />
    <glyph glyph-name="ograve" unicode="&#xf2;" horiz-adv-x="1200" 
d="M594 -24q-227 0 -362.5 143.5t-135.5 380.5q0 258 141 403t381 145q229 0 357.5 -141t128.5 -391q0 -245 -138.5 -392.5t-371.5 -147.5zM606 910q-158 0 -250 -107.5t-92 -296.5q0 -182 93 -287t249 -105q159 0 244.5 103t85.5 293q0 192 -85.5 296t-244.5 104zM747 1218
h-127l-262 328h168z" />
    <glyph glyph-name="oacute" unicode="&#xf3;" horiz-adv-x="1200" 
d="M594 -24q-227 0 -362.5 143.5t-135.5 380.5q0 258 141 403t381 145q229 0 357.5 -141t128.5 -391q0 -245 -138.5 -392.5t-371.5 -147.5zM606 910q-158 0 -250 -107.5t-92 -296.5q0 -182 93 -287t249 -105q159 0 244.5 103t85.5 293q0 192 -85.5 296t-244.5 104zM846 1546
l-262 -328h-127l223 328h166z" />
    <glyph glyph-name="ocircumflex" unicode="&#xf4;" horiz-adv-x="1200" 
d="M594 -24q-227 0 -362.5 143.5t-135.5 380.5q0 258 141 403t381 145q229 0 357.5 -141t128.5 -391q0 -245 -138.5 -392.5t-371.5 -147.5zM606 910q-158 0 -250 -107.5t-92 -296.5q0 -182 93 -287t249 -105q159 0 244.5 103t85.5 293q0 192 -85.5 296t-244.5 104zM885 1218
h-122l-164 230l-165 -230h-113l215 332h133z" />
    <glyph glyph-name="otilde" unicode="&#xf5;" horiz-adv-x="1200" 
d="M594 -24q-227 0 -362.5 143.5t-135.5 380.5q0 258 141 403t381 145q229 0 357.5 -141t128.5 -391q0 -245 -138.5 -392.5t-371.5 -147.5zM606 910q-158 0 -250 -107.5t-92 -296.5q0 -182 93 -287t249 -105q159 0 244.5 103t85.5 293q0 192 -85.5 296t-244.5 104zM931 1458
q0 -105 -48 -171.5t-130 -66.5q-71 0 -162 52q-77 43 -119 43q-88 0 -88 -113h-94q0 107 48 171.5t134 64.5q65 0 149 -52q74 -44 128 -44q84 0 84 116h98z" />
    <glyph glyph-name="odieresis" unicode="&#xf6;" horiz-adv-x="1200" 
d="M594 -24q-227 0 -362.5 143.5t-135.5 380.5q0 258 141 403t381 145q229 0 357.5 -141t128.5 -391q0 -245 -138.5 -392.5t-371.5 -147.5zM606 910q-158 0 -250 -107.5t-92 -296.5q0 -182 93 -287t249 -105q159 0 244.5 103t85.5 293q0 192 -85.5 296t-244.5 104zM793 1218
q-40 0 -69 28t-29 71q0 42 28 70t68 28q42 0 71 -28.5t29 -69.5t-28 -70t-70 -29zM409 1218q-42 0 -71.5 29.5t-29.5 69.5q0 42 28.5 70t69.5 28t71 -28.5t30 -69.5t-29 -70t-69 -29z" />
    <glyph glyph-name="divide" unicode="&#xf7;" horiz-adv-x="1401" 
d="M708 868q-44 0 -74 30.5t-30 74.5q0 45 29 77t75 32q103 0 103 -107q0 -47 -30.5 -77t-72.5 -30zM1172 530h-940v134h940v-134zM704 112q-44 0 -75 30t-31 73q0 45 30 78t76 33q101 0 101 -109q0 -45 -29 -75t-72 -30z" />
    <glyph glyph-name="ugrave" unicode="&#xf9;" horiz-adv-x="1159" 
d="M994 0h-164v162h-4q-102 -186 -316 -186q-366 0 -366 436v612h163v-586q0 -324 248 -324q120 0 197.5 88.5t77.5 231.5v590h164v-1024zM705 1218h-127l-262 328h168z" />
    <glyph glyph-name="uacute" unicode="&#xfa;" horiz-adv-x="1159" 
d="M994 0h-164v162h-4q-102 -186 -316 -186q-366 0 -366 436v612h163v-586q0 -324 248 -324q120 0 197.5 88.5t77.5 231.5v590h164v-1024zM840 1546l-262 -328h-127l223 328h166z" />
    <glyph glyph-name="ucircumflex" unicode="&#xfb;" horiz-adv-x="1159" 
d="M994 0h-164v162h-4q-102 -186 -316 -186q-366 0 -366 436v612h163v-586q0 -324 248 -324q120 0 197.5 88.5t77.5 231.5v590h164v-1024zM854 1218h-122l-164 230l-165 -230h-113l215 332h133z" />
    <glyph glyph-name="udieresis" unicode="&#xfc;" horiz-adv-x="1159" 
d="M994 0h-164v162h-4q-102 -186 -316 -186q-366 0 -366 436v612h163v-586q0 -324 248 -324q120 0 197.5 88.5t77.5 231.5v590h164v-1024zM770 1218q-40 0 -69 28t-29 71q0 42 28 70t68 28q42 0 71 -28.5t29 -69.5t-28 -70t-70 -29zM386 1218q-42 0 -71.5 29.5t-29.5 69.5
q0 42 28.5 70t69.5 28t71 -28.5t30 -69.5t-29 -70t-69 -29z" />
    <glyph glyph-name="yacute" unicode="&#xfd;" horiz-adv-x="991" 
d="M981 1024l-471 -1188q-126 -318 -354 -318q-64 0 -107 13v147q53 -18 97 -18q124 0 186 148l82 194l-400 1022h182l277 -788q5 -15 21 -78h6q5 24 20 76l291 790h170zM762 1546l-262 -328h-127l223 328h166z" />
    <glyph glyph-name="thorn" unicode="&#xfe;" horiz-adv-x="1204" 
d="M334 148h-4v-619h-164v1987h164v-672h4q121 204 354 204q198 0 309 -137.5t111 -368.5q0 -257 -125 -411.5t-342 -154.5q-199 0 -307 172zM330 561v-143q0 -127 82.5 -215.5t209.5 -88.5q149 0 233.5 114t84.5 317q0 171 -79 268t-214 97q-143 0 -230 -99.5t-87 -249.5z
" />
    <glyph glyph-name="ydieresis" unicode="&#xff;" horiz-adv-x="991" 
d="M981 1024l-471 -1188q-126 -318 -354 -318q-64 0 -107 13v147q53 -18 97 -18q124 0 186 148l82 194l-400 1022h182l277 -788q5 -15 21 -78h6q5 24 20 76l291 790h170zM689 1218q-40 0 -69 28t-29 71q0 42 28 70t68 28q42 0 71 -28.5t29 -69.5t-28 -70t-70 -29zM305 1218
q-42 0 -71.5 29.5t-29.5 69.5q0 42 28.5 70t69.5 28t71 -28.5t30 -69.5t-29 -70t-69 -29z" />
    <glyph glyph-name="dotlessi" unicode="&#x131;" horiz-adv-x="496" 
d="M330 0h-164v1024h164v-1024z" />
    <glyph glyph-name="Lslash" unicode="&#x141;" horiz-adv-x="964" 
d="M932 0h-744v547l-155 -97v152l155 96v736h168v-631l328 203v-154l-328 -200v-500h576v-152z" />
    <glyph glyph-name="lslash" unicode="&#x142;" horiz-adv-x="561" 
d="M530 811l-174 -123v-688h-164v578l-170 -119v157l170 119v781h164v-670l174 122v-157z" />
    <glyph glyph-name="OE" unicode="&#x152;" horiz-adv-x="1906" 
d="M1810 0h-720q-16 0 -138 -14q-98 -10 -182 -10q-312 0 -494 201t-182 523q0 346 189.5 552t514.5 206q90 0 178 -10q112 -14 114 -14h688v-152h-560v-477h518v-151h-518v-502h592v-152zM1050 160v1118q-160 28 -268 28q-229 0 -370.5 -166t-141.5 -425q0 -258 139.5 -423
t366.5 -165q116 0 274 33z" />
    <glyph glyph-name="oe" unicode="&#x153;" horiz-adv-x="1900" 
d="M1825 471h-725q3 -171 91.5 -264t242.5 -93q175 0 319 114v-154q-136 -98 -357 -98q-270 0 -382 237h-4q-131 -237 -416 -237q-229 0 -363.5 143t-134.5 379q0 258 142 404t382 146q294 0 402 -235h4q119 235 385 235q196 0 305 -131.5t109 -357.5v-88zM1657 610
q-2 142 -69 221t-183 79q-120 0 -203.5 -85.5t-99.5 -214.5h555zM606 910q-158 0 -250 -108.5t-92 -299.5q0 -180 92 -284t248 -104q159 0 245.5 102.5t86.5 291.5q0 194 -86.5 298t-243.5 104z" />
    <glyph glyph-name="Scaron" unicode="&#x160;" horiz-adv-x="1088" 
d="M121 58v198q34 -30 81.5 -54t100 -40.5t105.5 -25.5t98 -9q155 0 231.5 57.5t76.5 165.5q0 58 -25.5 101t-70.5 78.5t-106.5 68t-132.5 68.5q-75 38 -140 77t-113 86t-75.5 106.5t-27.5 139.5q0 98 43 170.5t113 119.5t159.5 70t182.5 23q212 0 309 -51v-189
q-127 88 -326 88q-55 0 -110 -11.5t-98 -37.5t-70 -67t-27 -100q0 -55 20.5 -95t60.5 -73t97.5 -64t132.5 -68q77 -38 146 -80t121 -93t82.5 -113t30.5 -142q0 -106 -41.5 -179.5t-112 -119.5t-162.5 -66.5t-194 -20.5q-34 0 -84 5.5t-102 16t-98.5 26t-74.5 34.5zM826 1898
l-214 -330h-132l-216 330h115l164 -229l164 229h119z" />
    <glyph glyph-name="scaron" unicode="&#x161;" horiz-adv-x="869" 
d="M104 37v176q134 -99 295 -99q216 0 216 144q0 41 -18.5 69.5t-50 50.5t-74 39.5t-91.5 36.5q-68 27 -119.5 54.5t-86 62t-52 78.5t-17.5 103q0 72 33 127.5t88 93t125.5 56.5t145.5 19q133 0 238 -46v-166q-113 74 -260 74q-46 0 -83 -10.5t-63.5 -29.5t-41 -45.5
t-14.5 -58.5q0 -40 14.5 -67t42.5 -48t68 -38t91 -37q68 -26 122 -53.5t92 -62t58.5 -79.5t20.5 -107q0 -76 -33.5 -132t-89.5 -93t-129 -55t-153 -18q-158 0 -274 61zM682 1548l-214 -330h-132l-216 330h115l164 -229l164 229h119z" />
    <glyph glyph-name="Ydieresis" unicode="&#x178;" horiz-adv-x="1132" 
d="M1120 1434l-473 -904v-530h-168v526l-461 908h191l321 -648q6 -12 35 -88h3q10 34 38 88l336 648h178zM759 1565q-40 0 -69 28t-29 71q0 42 28 70t68 28q42 0 71 -28.5t29 -69.5t-28 -70t-70 -29zM375 1565q-42 0 -71.5 29.5t-29.5 69.5q0 42 28.5 70t69.5 28t71 -28.5
t30 -69.5t-29 -70t-69 -29z" />
    <glyph glyph-name="Zcaron" unicode="&#x17d;" horiz-adv-x="1168" 
d="M1124 1394l-840 -1242h820v-152h-1071v47l833 1235h-766v152h1024v-40zM900 1895l-214 -330h-132l-216 330h115l164 -229l164 229h119z" />
    <glyph glyph-name="zcaron" unicode="&#x17e;" horiz-adv-x="926" 
d="M880 977l-606 -837h600v-140h-841v51l606 833h-549v140h790v-47zM782 1548l-214 -330h-132l-216 330h115l164 -229l164 229h119z" />
    <glyph glyph-name="florin" unicode="&#x192;" horiz-adv-x="1104" 
d="M952 1266q-48 28 -108 28q-146 0 -170 -160l-31 -208h166v-138h-187l-90 -648q-58 -418 -348 -418q-31 0 -90 16v143q36 -21 86 -21q150 0 190 292l91 636h-103v138h124l28 219q17 131 104.5 210t221.5 79q64 0 116 -19v-149z" />
    <glyph glyph-name="circumflex" unicode="&#x2c6;" horiz-adv-x="760" 
d="M656 1218h-122l-164 230l-165 -230h-113l215 332h133z" />
    <glyph glyph-name="caron" unicode="&#x2c7;" horiz-adv-x="760" 
d="M664 1548l-214 -330h-132l-216 330h115l164 -229l164 229h119z" />
    <glyph glyph-name="uni02C9" unicode="&#x2c9;" horiz-adv-x="635" 
d="M570 1218h-508v109h508v-109z" />
    <glyph glyph-name="ring" unicode="&#x2da;" horiz-adv-x="574" 
d="M284 1176q-87 0 -144.5 52.5t-57.5 137.5q0 90 59 144t150 54q89 0 146 -54t57 -138t-61 -140t-149 -56zM284 1483q-48 0 -80 -32.5t-32 -80.5q0 -112 112 -112q50 0 83 32t33 80q0 49 -33 81t-83 32z" />
    <glyph glyph-name="tilde" unicode="&#x2dc;" horiz-adv-x="690" 
d="M676 1458q0 -105 -48 -171.5t-130 -66.5q-71 0 -162 52q-77 43 -119 43q-88 0 -88 -113h-94q0 107 48 171.5t134 64.5q65 0 149 -52q74 -44 128 -44q84 0 84 116h98z" />
    <glyph glyph-name="uni2002" unicode="&#x2002;" horiz-adv-x="1024" 
 />
    <glyph glyph-name="uni2003" unicode="&#x2003;" 
 />
    <glyph glyph-name="uni2005" unicode="&#x2005;" horiz-adv-x="512" 
 />
    <glyph glyph-name="endash" unicode="&#x2013;" horiz-adv-x="1024" 
d="M1024 506h-1024v129h1024v-129z" />
    <glyph glyph-name="emdash" unicode="&#x2014;" 
d="M2048 506h-2048v129h2048v-129z" />
    <glyph glyph-name="quoteleft" unicode="&#x2018;" horiz-adv-x="469" 
d="M364 1458l-108 -446h-150l140 446h118z" />
    <glyph glyph-name="quoteright" unicode="&#x2019;" horiz-adv-x="469" 
d="M368 1458l-140 -446h-118l111 446h147z" />
    <glyph glyph-name="quotesinglbase" unicode="&#x201a;" horiz-adv-x="469" 
d="M346 217l-141 -445h-117l110 445h148z" />
    <glyph glyph-name="quotedblleft" unicode="&#x201c;" horiz-adv-x="772" 
d="M668 1458l-111 -446h-147l141 446h117zM364 1458l-108 -446h-150l140 446h118z" />
    <glyph glyph-name="quotedblright" unicode="&#x201d;" horiz-adv-x="772" 
d="M672 1458l-140 -446h-118l108 446h150zM368 1458l-140 -446h-118l111 446h147z" />
    <glyph glyph-name="quotedblbase" unicode="&#x201e;" horiz-adv-x="772" 
d="M649 217l-139 -445h-119l109 445h149zM346 217l-141 -445h-117l110 445h148z" />
    <glyph glyph-name="dagger" unicode="&#x2020;" horiz-adv-x="768" 
d="M728 893l-262 30l-40 -694h-76l-40 694l-262 -30v150l302 -20l-40 410h156l-40 -410l302 20v-150z" />
    <glyph glyph-name="daggerdbl" unicode="&#x2021;" horiz-adv-x="768" 
d="M728 519l-302 20l40 -310h-156l40 310l-302 -20v150l262 -30l58 192l-58 192l-262 -30v150l302 -20l-40 310h156l-40 -310l302 20v-150l-262 30l-58 -192l58 -192l262 30v-150z" />
    <glyph glyph-name="bullet" unicode="&#x2022;" horiz-adv-x="832" 
d="M418 408q-104 0 -179 73t-75 177q0 103 75 178.5t179 75.5t177 -75t73 -179t-73 -177t-177 -73z" />
    <glyph glyph-name="ellipsis" unicode="&#x2026;" horiz-adv-x="1501" 
d="M1252 -18q-46 0 -77.5 32t-31.5 78t31.5 79.5t77.5 33.5q45 0 77.5 -33.5t32.5 -79.5t-32.5 -78t-77.5 -32zM750 -18q-46 0 -78.5 32t-32.5 78t32.5 79.5t78.5 33.5q45 0 77.5 -33.5t32.5 -79.5t-32.5 -78t-77.5 -32zM248 -18q-46 0 -77 32t-31 78t31 79.5t77 33.5
q45 0 77.5 -33.5t32.5 -79.5t-32 -78t-78 -32z" />
    <glyph glyph-name="perthousand" unicode="&#x2030;" horiz-adv-x="2478" 
d="M404 715q-148 0 -236 97.5t-88 260.5q0 178 93 280.5t251 102.5q153 0 237.5 -95t84.5 -267t-94.5 -275.5t-247.5 -103.5zM418 1346q-95 0 -150 -70.5t-55 -193.5q0 -121 54 -188.5t147 -67.5q94 0 147 70t53 194q0 121 -52.5 188.5t-143.5 67.5zM1366 1434l-922 -1444
h-143l921 1444h144zM2056 -22q-148 0 -236 98t-88 260q0 177 94.5 281t249.5 104q153 0 237.5 -95.5t84.5 -269.5q0 -171 -94 -274.5t-248 -103.5zM2070 608q-96 0 -150 -70.5t-54 -193.5q0 -120 53.5 -187t146.5 -67q95 0 148 70.5t53 193.5q0 121 -53 187.5t-144 66.5z
M1258 -22q-148 0 -236 98t-88 260q0 178 94 281.5t250 103.5q152 0 237 -96t85 -269q0 -171 -94.5 -274.5t-247.5 -103.5zM1272 608q-96 0 -150.5 -70t-54.5 -194q0 -119 54 -186.5t147 -67.5q94 0 147 70.5t53 193.5q0 122 -52.5 188t-143.5 66z" />
    <glyph glyph-name="guilsinglleft" unicode="&#x2039;" horiz-adv-x="647" 
d="M557 200h-166l-299 336l299 344h168l-305 -344z" />
    <glyph glyph-name="guilsinglright" unicode="&#x203a;" horiz-adv-x="647" 
d="M559 538l-301 -338h-166l304 338l-304 342h166z" />
    <glyph glyph-name="exclamdbl" unicode="&#x203c;" horiz-adv-x="983" 
d="M375 1434l-19 -1030h-135l-18 1030h172zM291 -18q-46 0 -78.5 32t-32.5 78t32.5 78.5t78.5 32.5q45 0 78 -32.5t33 -78.5t-33 -78t-78 -32zM776 1434l-19 -1030h-135l-18 1030h172zM692 -18q-46 0 -78.5 32t-32.5 78t32.5 78.5t78.5 32.5q45 0 78 -32.5t33 -78.5t-33 -78
t-78 -32z" />
    <glyph glyph-name="fraction" unicode="&#x2044;" horiz-adv-x="354" 
d="M690 1434l-858 -1434h-144l859 1434h143z" />
    <glyph glyph-name="uni2049" unicode="&#x2049;" horiz-adv-x="1339" 
d="M375 1434l-19 -1030h-135l-18 1030h172zM291 -18q-46 0 -78.5 32t-32.5 78t32.5 78.5t78.5 32.5q45 0 78 -32.5t33 -78.5t-33 -78t-78 -32zM756 398q-9 26 -16 67.5t-7 82.5q0 64 25.5 115.5t63.5 96.5t83 86.5t83 84t63.5 89t25.5 102.5q0 48 -18.5 85t-50.5 62
t-74 37.5t-89 12.5q-169 0 -293 -133v176q153 96 317 96q76 0 143 -20t117.5 -59.5t79.5 -98.5t29 -137q0 -74 -26 -132t-65.5 -106.5t-85.5 -90.5t-85.5 -83.5t-65.5 -86.5t-26 -99q0 -46 11 -83.5t22 -63.5h-161zM846 -18q-44 0 -78 32q-33 32 -33 78q0 47 33 78
q33 33 78 33t78 -33q33 -31 33 -78q0 -46 -33 -78q-34 -32 -78 -32z" />
    <glyph glyph-name="Euro" unicode="&#x20ac;" horiz-adv-x="1104" 
d="M1014 50q-133 -74 -282 -74q-427 0 -509 506h-121v140h108q-4 31 -4 77q0 48 6 108h-110v140h131q51 240 192.5 375.5t343.5 135.5q137 0 245 -56v-162q-114 78 -256 78q-125 0 -222.5 -100.5t-136.5 -270.5h497v-140h-519q-8 -99 -1 -185h520v-140h-504
q72 -366 350 -366q131 0 272 87v-153z" />
    <glyph glyph-name="uni20E3" unicode="&#x20e3;" horiz-adv-x="0" 
d="M-717 1434h1434v-1434h-1434v1434zM-593 124h1186v1186h-1186v-1186z" />
    <glyph glyph-name="trademark" unicode="&#x2122;" horiz-adv-x="1583" 
d="M1396 772h-108v478h-4l-219 -478h-59l-214 478h-4v-478h-102v662h127l225 -496h4l228 496h126v-662zM602 1336h-209v-564h-111v564h-206v98h526v-98z" />
    <glyph glyph-name="Omega" unicode="&#x2126;" horiz-adv-x="1546" 
d="M1449 0h-519v147q345 255 345 633q0 245 -139 387.5t-358 142.5q-222 0 -363 -142t-141 -387q0 -378 346 -634v-147h-520v148l348 -1q-348 235 -348 638q0 313 185 493t487 180q309 0 493 -178.5t184 -493.5q0 -402 -347 -639l347 1v-148z" />
    <glyph glyph-name="uni2139" unicode="&#x2139;" horiz-adv-x="1691" 
d="M845 1411q103 0 198.5 -27t178.5 -75.5t151.5 -117t117 -152.5t75 -179t26.5 -199q0 -103 -26.5 -198t-75 -178.5t-117 -151.5t-151.5 -117t-178.5 -75.5t-198.5 -26.5t-198.5 26.5t-178.5 75.5t-151.5 117t-117 151.5t-75.5 178.5t-27 198q0 104 27 199t75.5 179
t117 152.5t151.5 117t178.5 75.5t198.5 27zM948 255v613h-185v-613h185zM857 956q51 0 82 31t31 80t-31 78.5t-82 29.5q-50 0 -81.5 -29.5t-31.5 -78.5q0 -23 8.5 -43t23.5 -35.5t35.5 -24t45.5 -8.5z" />
    <glyph glyph-name="arrowleft" unicode="&#x2190;" horiz-adv-x="1767" 
d="M1565 515h-1082l284 -284h-226l-399 363l399 376h226l-284 -286h1082v-169z" />
    <glyph glyph-name="arrowup" unicode="&#x2191;" horiz-adv-x="967" 
d="M400 -30v1082l-284 -284v226l363 399l376 -399v-226l-286 284v-1082h-169z" />
    <glyph glyph-name="arrowright" unicode="&#x2192;" horiz-adv-x="1767" 
d="M200 685h1082l-284 284h226l399 -363l-399 -376h-226l284 286h-1082v169z" />
    <glyph glyph-name="arrowdown" unicode="&#x2193;" horiz-adv-x="967" 
d="M567 1392v-1082l284 284v-226l-363 -399l-376 399v226l286 -284v1082h169z" />
    <glyph glyph-name="arrowboth" unicode="&#x2194;" horiz-adv-x="1765" 
d="M1366 970l399 -373l-399 -366h-226l283 284h-1082l284 -284h-226l-399 363l399 376h226l-284 -286h1082l-283 286h226z" />
    <glyph glyph-name="arrowupdn" unicode="&#x2195;" horiz-adv-x="967" 
d="M853 116l-373 -399l-366 399v226l284 -283v1082l-284 -284v226l363 399l376 -399v-226l-286 284v-1082l286 283v-226z" />
    <glyph glyph-name="uni2196" unicode="&#x2196;" horiz-adv-x="1501" 
d="M1253 232l-145 -146l-642 645v-482l-219 192v652h650l194 -212h-482z" />
    <glyph glyph-name="uni2197" unicode="&#x2197;" horiz-adv-x="1499" 
d="M891 881h-482l194 212h650v-652l-219 -192v482l-642 -645l-145 146z" />
    <glyph glyph-name="uni2198" unicode="&#x2198;" horiz-adv-x="1501" 
d="M247 946l145 146l642 -645v482l219 -192v-652h-650l-194 212h482z" />
    <glyph glyph-name="uni2199" unicode="&#x2199;" horiz-adv-x="1501" 
d="M609 297h482l-194 -212h-650v652l219 192v-482l642 645l145 -146z" />
    <glyph glyph-name="uni21A9" unicode="&#x21a9;" horiz-adv-x="1767" 
d="M1224 697q64 0 120 25t97.5 67.5t65.5 99t24 120.5t-24 120t-65.5 98t-97.5 66t-120 24l-32 -3v207h32q106 0 199.5 -40t163.5 -109.5t110.5 -163t40.5 -199.5t-40.5 -199.5t-110.5 -163.5t-163.5 -110.5t-199.5 -40.5h-792l349 -344h-275l-478 450l478 440h275
l-349 -344h792z" />
    <glyph glyph-name="uni21AA" unicode="&#x21aa;" horiz-adv-x="1767" 
d="M1334 697l-349 344h275l478 -440l-478 -450h-275l349 344h-792q-106 0 -199.5 40.5t-163.5 110.5t-110.5 163.5t-40.5 199.5t40.5 199.5t110.5 163t163.5 109.5t199.5 40h32v-207l-32 3q-64 0 -120 -24t-97.5 -66t-65.5 -98t-24 -120t24 -120.5t65.5 -99t97.5 -67.5
t120 -25h792z" />
    <glyph glyph-name="Delta" unicode="&#x2206;" horiz-adv-x="1320" 
d="M1272 0h-1221v76l521 1358h174l526 -1358v-76zM1057 152l-361 968q-33 88 -38 142h-4q-6 -48 -40 -142l-352 -968h795z" />
    <glyph glyph-name="product" unicode="&#x220f;" horiz-adv-x="1544" 
d="M1362 -469h-168v1749h-838v-1749h-168v1903h1174v-1903z" />
    <glyph glyph-name="summation" unicode="&#x2211;" horiz-adv-x="1263" 
d="M1210 -469h-1159v78l676 883l-639 852v90h1082v-154h-836l594 -784l-625 -812h907v-153z" />
    <glyph glyph-name="minus" unicode="&#x2212;" horiz-adv-x="1401" 
d="M1172 530h-940v134h940v-134z" />
    <glyph glyph-name="approxequal" unicode="&#x2248;" horiz-adv-x="1403" 
d="M1194 960q-7 -146 -80.5 -227t-199.5 -81q-109 0 -265 108q-97 68 -159 68q-140 0 -146 -176h-135q5 144 79.5 226t201.5 82q106 0 235 -88q132 -90 197 -90q61 0 98 49t39 129h135zM1194 549q-7 -147 -80.5 -228t-199.5 -81q-109 0 -265 108q-94 66 -159 66
q-140 0 -146 -174h-135q5 143 79.5 226t201.5 83q106 0 235 -88q132 -91 197 -91q61 0 98 50t39 129h135z" />
    <glyph glyph-name="uni231A" unicode="&#x231a;" horiz-adv-x="1726" 
d="M1097 1713v-342h-475v342h475zM1097 3v-334h-475v334h475zM1456 697q0 -83 -22 -155l-145 -608h-86v175h-689v-175h-71l-145 608h2q-22 72 -22 155q0 41 5.5 81t16.5 79h-2l145 603h71v-187h689v187h86l145 -603q10 -39 16 -79t6 -81zM866 239q95 0 178.5 36t146 98
t99 145.5t36.5 178.5q0 94 -36.5 177t-99 145.5t-146 98.5t-178.5 36q-94 0 -177.5 -36t-145.5 -98.5t-98.5 -145.5t-36.5 -177q0 -95 36.5 -178.5t98.5 -145.5t145.5 -98t177.5 -36zM1041 726q20 0 35.5 -17t15.5 -37q0 -22 -15.5 -36.5t-35.5 -14.5h-197q-23 0 -38.5 14.5
t-15.5 36.5v315q0 23 15.5 37.5t38.5 14.5q22 0 37 -14.5t15 -37.5v-261h145z" />
    <glyph glyph-name="uni231B" unicode="&#x231b;" horiz-adv-x="1220" 
d="M1074 1591q-1 -71 -8 -142.5t-22.5 -142t-41 -139t-62.5 -132.5q-25 -43 -46.5 -73t-38.5 -52.5t-30.5 -41t-22.5 -38.5t-13.5 -45.5t-4.5 -61.5q0 -37 4.5 -62.5t13.5 -46t22.5 -39t31 -41t39 -52.5t46.5 -74q37 -65 62 -133t40.5 -138.5t22.5 -142t8 -142.5v-12
q0 -15 -11 -26t-26 -11h-851q-17 0 -27 11t-10 26v12q0 71 6.5 142.5t21.5 142t40 138.5t62 133q25 44 47 74t39.5 52.5t31.5 41t23 39t14 46t5 62.5q0 36 -5 61.5t-14 46t-23 38.5t-31.5 41t-39 53t-46.5 73q-37 64 -62 132t-40.5 138.5t-22 142t-6.5 142.5v13
q0 17 10 26.5t25 9.5h853q15 0 26 -9.5t11 -26.5v-13zM887 265q-34 36 -71.5 74.5t-73 72t-64.5 58.5t-47 34l-5 2h-2q-4 2 -6.5 2.5t-8.5 0.5q-2 0 -5 -1.5t-7 -1.5h-5l-3 -2q-17 -9 -46.5 -34t-64 -58.5t-72 -72t-70.5 -74.5l-2 -2l-8 -20q-4 -13 -7.5 -23t-7.5 -21
q-14 -51 -21 -91.5t-10.5 -69.5t-4 -45t-0.5 -18v-20h674v22q0 1 -0.5 16.5t-4.5 44t-12 69.5t-23 94q-4 10 -6 20.5t-6 21.5l-7 20z" />
    <glyph glyph-name="uni23CF" unicode="&#x23cf;" horiz-adv-x="1400" 
d="M1170 567v-415h-940v415h940zM700 1318l470 -601h-940z" />
    <glyph glyph-name="uni23E9" unicode="&#x23e9;" horiz-adv-x="1530" 
d="M1430 638l-639 -638v1280zM741 638l-641 -638v1280z" />
    <glyph glyph-name="uni23EA" unicode="&#x23ea;" horiz-adv-x="1530" 
d="M1430 0l-639 638l639 642v-1280zM739 0l-639 638l639 642v-1280z" />
    <glyph glyph-name="uni23EB" unicode="&#x23eb;" horiz-adv-x="1480" 
d="M1380 691h-1280l642 639zM1380 0h-1280l642 639z" />
    <glyph glyph-name="uni23EC" unicode="&#x23ec;" horiz-adv-x="1480" 
d="M1380 1330l-638 -639l-642 639h1280zM1380 639l-638 -639l-642 639h1280z" />
    <glyph glyph-name="uni23ED" unicode="&#x23ed;" horiz-adv-x="1684" 
d="M1584 -64h-128v1280h128v-1280zM1430 576l-640 -640v1280zM740 576l-640 -640v1280z" />
    <glyph glyph-name="uni23EE" unicode="&#x23ee;" horiz-adv-x="1684" 
d="M1584 -64l-640 640l640 640v-1280zM894 -64l-640 640l640 640v-1280zM228 -64h-128v1280h128v-1280z" />
    <glyph glyph-name="uni23EF" unicode="&#x23ef;" horiz-adv-x="1247" 
d="M894 -64h-128v1280h128v-1280zM740 576l-640 -640v1280zM1147 -64h-128v1280h128v-1280z" />
    <glyph glyph-name="uni23F0" unicode="&#x23f0;" 
d="M1191 1558q52 69 118 110t146 41q49 0 102 -17.5t111 -57.5q89 -61 127.5 -130.5t38.5 -141.5q0 -45 -13 -89t-37 -87q-51 73 -115.5 135t-140 109.5t-161 80t-176.5 47.5zM1051 -110q-108 0 -208.5 28t-187.5 79t-159 123t-123 159t-79 187.5t-28 208.5q0 107 28 207
t79 187t123 159t159 123.5t187.5 79.5t208.5 28t208.5 -28t187.5 -79.5t159 -123.5t123 -159t79 -187t28 -207q0 -108 -28 -208.5t-79 -187.5t-123 -159t-159 -123t-187.5 -79t-208.5 -28zM1051 1285q-126 0 -237.5 -48t-194 -130.5t-130.5 -194t-48 -237.5q0 -84 22 -162.5
t61.5 -146.5t95 -124t123.5 -96t146 -62t162 -22t161.5 22t145.5 62t123.5 96t95.5 124t62 146.5t22 162.5t-22 162t-62 146t-95.5 123.5t-123.5 95t-145.5 61.5t-161.5 22zM1390 584h-339q-37 0 -61.5 27t-24.5 64v403q0 37 24.5 61.5t61.5 24.5q35 0 58 -24.5t23 -61.5
v-317h258q38 0 62.5 -25.5t24.5 -60.5q0 -37 -24.5 -64t-62.5 -27zM869 1551q-90 -19 -173.5 -55t-157 -87.5t-135.5 -116t-110 -140.5q-34 50 -52.5 102.5t-18.5 106.5q0 73 38.5 142.5t126.5 129.5q58 40 111.5 58.5t103.5 18.5q81 0 148.5 -43.5t118.5 -115.5z" />
    <glyph glyph-name="uni23F3" unicode="&#x23f3;" horiz-adv-x="1220" 
d="M1084 1624q-1 -72 -8 -144t-22 -142.5t-40 -138.5t-62 -132q-26 -44 -47.5 -74t-39 -52.5t-31 -41t-22.5 -39t-13.5 -46t-4.5 -61.5t4.5 -61.5t13.5 -45.5t22.5 -38.5t31 -41t39 -52.5t46.5 -73q38 -65 63 -133t40 -139t22 -143t8 -144v-12q0 -15 -11 -23.5t-26 -8.5
h-851q-15 0 -26 8.5t-11 23.5v12q1 72 7.5 144t21.5 142.5t40 139t62 132.5q25 43 46.5 73t39 53t31.5 41t23 38.5t14 46t5 61.5t-5 61.5t-14 46t-23 39t-31.5 41.5t-39.5 53t-47 74q-37 64 -61.5 131.5t-39.5 138t-21.5 142.5t-7.5 144v12q0 15 11 26t26 11h851
q15 0 26 -11t11 -26v-12zM949 15q-17 18 -45 47.5t-60.5 63t-67.5 68t-66 62t-55 45t-34 17.5t-33.5 -17.5t-54.5 -45t-66 -62t-67.5 -68t-60.5 -63t-45 -47.5l-17 -17h686zM899 1260l10 30l-24 -18q-3 -2 -21.5 -8.5t-52 -14t-81.5 -13.5t-109 -6t-108.5 6t-81 13.5t-52 14
t-21.5 8.5l-27 20l10 -32q3 -7 7 -18q4 -9 8.5 -21.5t11.5 -26.5q11 -24 28.5 -56.5t45.5 -69.5q8 -13 13.5 -21t9.5 -13t7 -9t7 -9q24 -31 45 -63t36.5 -69t24.5 -80t9 -95q0 -23 9 -31t18 -8q10 0 18.5 8t8.5 31q0 52 9 95t25 80t37 70t45 65q20 27 33 44.5t21.5 30
t14 21.5t10.5 17q9 17 16.5 32t15.5 30q6 14 10.5 26.5t7.5 21.5z" />
    <glyph glyph-name="uni24B6" unicode="&#x24b6;" horiz-adv-x="1764" 
d="M1278 266h-117l-96 253h-383l-90 -253h-118l346 903h110zM1030 614l-142 385q-7 19 -13 61h-3q-6 -39 -14 -61l-141 -385h313zM140 716q0 101 27 195.5t75.5 177t116.5 150.5t150 116.5t176.5 75.5t195.5 27t195.5 -27t177 -75.5t151 -116.5t117 -150.5t75.5 -177
t27 -195.5q0 -102 -27 -196t-75.5 -176.5t-117 -150.5t-151 -116.5t-177 -75t-195.5 -26.5q-102 0 -196 26.5t-176.5 75t-150.5 116.5t-116.5 150.5t-75 177t-26.5 195.5zM264 716q0 -127 48.5 -239.5t132.5 -196.5t196.5 -132.5t239.5 -48.5t239.5 49t197 133t133.5 196
t49 239q0 85 -22.5 163.5t-63 147.5t-97.5 125.5t-125.5 97t-147 62.5t-163.5 22q-127 0 -239.5 -49t-196.5 -133t-132.5 -196.5t-48.5 -239.5z" />
    <glyph glyph-name="uni24B7" unicode="&#x24b7;" horiz-adv-x="1764" 
d="M658 266v903h257q118 0 186.5 -57t68.5 -149q0 -77 -41.5 -133.5t-114.5 -80.5v-3q91 -11 146 -69t55 -151q0 -116 -83.5 -188t-209.5 -72h-264zM764 1074v-292h109q87 0 136.5 42t49.5 118q0 132 -173 132h-122zM764 687v-325h144q93 0 144.5 44t51.5 121
q0 160 -218 160h-122zM140 716q0 101 27 195.5t75.5 177t116.5 150.5t150 116.5t176.5 75.5t195.5 27t195.5 -27t177 -75.5t151 -116.5t117 -150.5t75.5 -177t27 -195.5q0 -102 -27 -196t-75.5 -176.5t-117 -150.5t-151 -116.5t-177 -75t-195.5 -26.5q-102 0 -196 26.5
t-176.5 75t-150.5 116.5t-116.5 150.5t-75 177t-26.5 195.5zM264 716q0 -127 48.5 -239.5t132.5 -196.5t196.5 -132.5t239.5 -48.5t239.5 49t197 133t133.5 196t49 239q0 85 -22.5 163.5t-63 147.5t-97.5 125.5t-125.5 97t-147 62.5t-163.5 22q-127 0 -239.5 -49
t-196.5 -133t-132.5 -196.5t-48.5 -239.5z" />
    <glyph glyph-name="uni24B8" unicode="&#x24b8;" horiz-adv-x="1764" 
d="M1143 304q-100 -53 -249 -53q-193 0 -309 124t-116 326q0 216 130.5 350t330.5 134q129 0 213 -38v-112q-97 54 -214 54q-155 0 -252 -104t-97 -278q0 -165 90.5 -263t237.5 -98q136 0 235 60v-102zM140 716q0 101 27 195.5t75.5 177t116.5 150.5t150 116.5t176.5 75.5
t195.5 27t195.5 -27t177 -75.5t151 -116.5t117 -150.5t75.5 -177t27 -195.5q0 -102 -27 -196t-75.5 -176.5t-117 -150.5t-151 -116.5t-177 -75t-195.5 -26.5q-102 0 -196 26.5t-176.5 75t-150.5 116.5t-116.5 150.5t-75 177t-26.5 195.5zM264 716q0 -127 48.5 -239.5
t132.5 -196.5t196.5 -132.5t239.5 -48.5t239.5 49t197 133t133.5 196t49 239q0 85 -22.5 163.5t-63 147.5t-97.5 125.5t-125.5 97t-147 62.5t-163.5 22q-127 0 -239.5 -49t-196.5 -133t-132.5 -196.5t-48.5 -239.5z" />
    <glyph glyph-name="uni24B9" unicode="&#x24b9;" horiz-adv-x="1764" 
d="M598 266v903h250q477 0 477 -440q0 -209 -132.5 -336t-354.5 -127h-240zM704 1074v-712h135q178 0 277 95t99 270q0 347 -370 347h-141zM140 716q0 101 27 195.5t75.5 177t116.5 150.5t150 116.5t176.5 75.5t195.5 27t195.5 -27t177 -75.5t151 -116.5t117 -150.5
t75.5 -177t27 -195.5q0 -102 -27 -196t-75.5 -176.5t-117 -150.5t-151 -116.5t-177 -75t-195.5 -26.5q-102 0 -196 26.5t-176.5 75t-150.5 116.5t-116.5 150.5t-75 177t-26.5 195.5zM264 716q0 -127 48.5 -239.5t132.5 -196.5t196.5 -132.5t239.5 -48.5t239.5 49t197 133
t133.5 196t49 239q0 85 -22.5 163.5t-63 147.5t-97.5 125.5t-125.5 97t-147 62.5t-163.5 22q-127 0 -239.5 -49t-196.5 -133t-132.5 -196.5t-48.5 -239.5z" />
    <glyph glyph-name="uni24BA" unicode="&#x24ba;" horiz-adv-x="1764" 
d="M1127 266h-479v903h459v-95h-353v-301h327v-95h-327v-316h373v-96zM140 716q0 101 27 195.5t75.5 177t116.5 150.5t150 116.5t176.5 75.5t195.5 27t195.5 -27t177 -75.5t151 -116.5t117 -150.5t75.5 -177t27 -195.5q0 -102 -27 -196t-75.5 -176.5t-117 -150.5
t-151 -116.5t-177 -75t-195.5 -26.5q-102 0 -196 26.5t-176.5 75t-150.5 116.5t-116.5 150.5t-75 177t-26.5 195.5zM264 716q0 -127 48.5 -239.5t132.5 -196.5t196.5 -132.5t239.5 -48.5t239.5 49t197 133t133.5 196t49 239q0 85 -22.5 163.5t-63 147.5t-97.5 125.5
t-125.5 97t-147 62.5t-163.5 22q-127 0 -239.5 -49t-196.5 -133t-132.5 -196.5t-48.5 -239.5z" />
    <glyph glyph-name="uni24BB" unicode="&#x24bb;" horiz-adv-x="1764" 
d="M1117 1074h-353v-313h327v-95h-327v-400h-106v903h459v-95zM140 716q0 101 27 195.5t75.5 177t116.5 150.5t150 116.5t176.5 75.5t195.5 27t195.5 -27t177 -75.5t151 -116.5t117 -150.5t75.5 -177t27 -195.5q0 -102 -27 -196t-75.5 -176.5t-117 -150.5t-151 -116.5
t-177 -75t-195.5 -26.5q-102 0 -196 26.5t-176.5 75t-150.5 116.5t-116.5 150.5t-75 177t-26.5 195.5zM264 716q0 -127 48.5 -239.5t132.5 -196.5t196.5 -132.5t239.5 -48.5t239.5 49t197 133t133.5 196t49 239q0 85 -22.5 163.5t-63 147.5t-97.5 125.5t-125.5 97t-147 62.5
t-163.5 22q-127 0 -239.5 -49t-196.5 -133t-132.5 -196.5t-48.5 -239.5z" />
    <glyph glyph-name="uni24BC" unicode="&#x24bc;" horiz-adv-x="1764" 
d="M1174 328q-136 -77 -303 -77q-193 0 -312.5 124.5t-119.5 330.5q0 210 132.5 344.5t336.5 134.5q147 0 248 -48v-118q-110 70 -260 70q-152 0 -249 -104.5t-97 -271.5q0 -171 90 -269t245 -98q105 0 183 42v253h-198v96h304v-409zM140 716q0 101 27 195.5t75.5 177
t116.5 150.5t150 116.5t176.5 75.5t195.5 27t195.5 -27t177 -75.5t151 -116.5t117 -150.5t75.5 -177t27 -195.5q0 -102 -27 -196t-75.5 -176.5t-117 -150.5t-151 -116.5t-177 -75t-195.5 -26.5q-102 0 -196 26.5t-176.5 75t-150.5 116.5t-116.5 150.5t-75 177t-26.5 195.5z
M264 716q0 -127 48.5 -239.5t132.5 -196.5t196.5 -132.5t239.5 -48.5t239.5 49t197 133t133.5 196t49 239q0 85 -22.5 163.5t-63 147.5t-97.5 125.5t-125.5 97t-147 62.5t-163.5 22q-127 0 -239.5 -49t-196.5 -133t-132.5 -196.5t-48.5 -239.5z" />
    <glyph glyph-name="uni24BD" unicode="&#x24bd;" horiz-adv-x="1764" 
d="M1218 266h-106v412h-468v-412h-106v903h106v-396h468v396h106v-903zM140 716q0 101 27 195.5t75.5 177t116.5 150.5t150 116.5t176.5 75.5t195.5 27t195.5 -27t177 -75.5t151 -116.5t117 -150.5t75.5 -177t27 -195.5q0 -102 -27 -196t-75.5 -176.5t-117 -150.5
t-151 -116.5t-177 -75t-195.5 -26.5q-102 0 -196 26.5t-176.5 75t-150.5 116.5t-116.5 150.5t-75 177t-26.5 195.5zM264 716q0 -127 48.5 -239.5t132.5 -196.5t196.5 -132.5t239.5 -48.5t239.5 49t197 133t133.5 196t49 239q0 85 -22.5 163.5t-63 147.5t-97.5 125.5
t-125.5 97t-147 62.5t-163.5 22q-127 0 -239.5 -49t-196.5 -133t-132.5 -196.5t-48.5 -239.5z" />
    <glyph glyph-name="uni24BE" unicode="&#x24be;" horiz-adv-x="1764" 
d="M1022 1169v-90h-88v-722h88v-91h-282v91h88v722h-88v90h282zM140 716q0 101 27 195.5t75.5 177t116.5 150.5t150 116.5t176.5 75.5t195.5 27t195.5 -27t177 -75.5t151 -116.5t117 -150.5t75.5 -177t27 -195.5q0 -102 -27 -196t-75.5 -176.5t-117 -150.5t-151 -116.5
t-177 -75t-195.5 -26.5q-102 0 -196 26.5t-176.5 75t-150.5 116.5t-116.5 150.5t-75 177t-26.5 195.5zM264 716q0 -127 48.5 -239.5t132.5 -196.5t196.5 -132.5t239.5 -48.5t239.5 49t197 133t133.5 196t49 239q0 85 -22.5 163.5t-63 147.5t-97.5 125.5t-125.5 97t-147 62.5
t-163.5 22q-127 0 -239.5 -49t-196.5 -133t-132.5 -196.5t-48.5 -239.5z" />
    <glyph glyph-name="uni24BF" unicode="&#x24bf;" horiz-adv-x="1764" 
d="M1010 590q0 -161 -68 -250t-182 -89q-53 0 -87 15v105q34 -25 88 -25q143 0 143 243v580h106v-579zM140 716q0 101 27 195.5t75.5 177t116.5 150.5t150 116.5t176.5 75.5t195.5 27t195.5 -27t177 -75.5t151 -116.5t117 -150.5t75.5 -177t27 -195.5q0 -102 -27 -196
t-75.5 -176.5t-117 -150.5t-151 -116.5t-177 -75t-195.5 -26.5q-102 0 -196 26.5t-176.5 75t-150.5 116.5t-116.5 150.5t-75 177t-26.5 195.5zM264 716q0 -127 48.5 -239.5t132.5 -196.5t196.5 -132.5t239.5 -48.5t239.5 49t197 133t133.5 196t49 239q0 85 -22.5 163.5
t-63 147.5t-97.5 125.5t-125.5 97t-147 62.5t-163.5 22q-127 0 -239.5 -49t-196.5 -133t-132.5 -196.5t-48.5 -239.5z" />
    <glyph glyph-name="uni24C0" unicode="&#x24c0;" horiz-adv-x="1764" 
d="M1207 266h-147l-349 413q-20 24 -24 32h-3v-445h-106v903h106v-424h3q9 14 24 31l337 393h132l-387 -433zM140 716q0 101 27 195.5t75.5 177t116.5 150.5t150 116.5t176.5 75.5t195.5 27t195.5 -27t177 -75.5t151 -116.5t117 -150.5t75.5 -177t27 -195.5q0 -102 -27 -196
t-75.5 -176.5t-117 -150.5t-151 -116.5t-177 -75t-195.5 -26.5q-102 0 -196 26.5t-176.5 75t-150.5 116.5t-116.5 150.5t-75 177t-26.5 195.5zM264 716q0 -127 48.5 -239.5t132.5 -196.5t196.5 -132.5t239.5 -48.5t239.5 49t197 133t133.5 196t49 239q0 85 -22.5 163.5
t-63 147.5t-97.5 125.5t-125.5 97t-147 62.5t-163.5 22q-127 0 -239.5 -49t-196.5 -133t-132.5 -196.5t-48.5 -239.5z" />
    <glyph glyph-name="uni24C1" unicode="&#x24c1;" horiz-adv-x="1764" 
d="M1137 266h-469v903h106v-807h363v-96zM140 716q0 101 27 195.5t75.5 177t116.5 150.5t150 116.5t176.5 75.5t195.5 27t195.5 -27t177 -75.5t151 -116.5t117 -150.5t75.5 -177t27 -195.5q0 -102 -27 -196t-75.5 -176.5t-117 -150.5t-151 -116.5t-177 -75t-195.5 -26.5
q-102 0 -196 26.5t-176.5 75t-150.5 116.5t-116.5 150.5t-75 177t-26.5 195.5zM264 716q0 -127 48.5 -239.5t132.5 -196.5t196.5 -132.5t239.5 -48.5t239.5 49t197 133t133.5 196t49 239q0 85 -22.5 163.5t-63 147.5t-97.5 125.5t-125.5 97t-147 62.5t-163.5 22
q-127 0 -239.5 -49t-196.5 -133t-132.5 -196.5t-48.5 -239.5z" />
    <glyph glyph-name="uni24C2" unicode="&#x24c2;" horiz-adv-x="1764" 
d="M140 716q0 101 27 195.5t75.5 177t116.5 150.5t150 116.5t176.5 75.5t195.5 27t195.5 -27t177 -75.5t151 -116.5t117 -150.5t75.5 -177t27 -195.5q0 -102 -27 -196t-75.5 -176.5t-117 -150.5t-151 -116.5t-177 -75t-195.5 -26.5q-102 0 -196 26.5t-176.5 75t-150.5 116.5
t-116.5 150.5t-75 177t-26.5 195.5zM264 716q0 -127 48.5 -239.5t132.5 -196.5t196.5 -132.5t239.5 -48.5t239.5 49t197 133t133.5 196t49 239q0 85 -22.5 163.5t-63 147.5t-97.5 125.5t-125.5 97t-147 62.5t-163.5 22q-127 0 -239.5 -49t-196.5 -133t-132.5 -196.5
t-48.5 -239.5zM1258 266h-105v710l-241 -710h-52l-245 710v-710h-102v903h141l233 -694l239 694h132v-903z" />
    <glyph glyph-name="uni24C3" unicode="&#x24c3;" horiz-adv-x="1764" 
d="M1247 266h-130l-465 720q-18 27 -29 57h-4q5 -29 5 -124v-653h-106v903h138l452 -708q28 -44 37 -61h2q-6 39 -6 133v636h106v-903zM140 716q0 101 27 195.5t75.5 177t116.5 150.5t150 116.5t176.5 75.5t195.5 27t195.5 -27t177 -75.5t151 -116.5t117 -150.5t75.5 -177
t27 -195.5q0 -102 -27 -196t-75.5 -176.5t-117 -150.5t-151 -116.5t-177 -75t-195.5 -26.5q-102 0 -196 26.5t-176.5 75t-150.5 116.5t-116.5 150.5t-75 177t-26.5 195.5zM264 716q0 -127 48.5 -239.5t132.5 -196.5t196.5 -132.5t239.5 -48.5t239.5 49t197 133t133.5 196
t49 239q0 85 -22.5 163.5t-63 147.5t-97.5 125.5t-125.5 97t-147 62.5t-163.5 22q-127 0 -239.5 -49t-196.5 -133t-132.5 -196.5t-48.5 -239.5z" />
    <glyph glyph-name="uni24C4" unicode="&#x24c4;" horiz-adv-x="1764" 
d="M883 251q-193 0 -308.5 126.5t-115.5 329.5q0 218 118 348t321 130q187 0 301 -126t114 -330q0 -221 -117 -349.5t-313 -128.5zM890 1089q-142 0 -231 -103t-89 -270t86.5 -268.5t226.5 -101.5q148 0 234 97t86 272q0 178 -83.5 276t-229.5 98zM140 716q0 101 27 195.5
t75.5 177t116.5 150.5t150 116.5t176.5 75.5t195.5 27t195.5 -27t177 -75.5t151 -116.5t117 -150.5t75.5 -177t27 -195.5q0 -102 -27 -196t-75.5 -176.5t-117 -150.5t-151 -116.5t-177 -75t-195.5 -26.5q-102 0 -196 26.5t-176.5 75t-150.5 116.5t-116.5 150.5t-75 177
t-26.5 195.5zM264 716q0 -127 48.5 -239.5t132.5 -196.5t196.5 -132.5t239.5 -48.5t239.5 49t197 133t133.5 196t49 239q0 85 -22.5 163.5t-63 147.5t-97.5 125.5t-125.5 97t-147 62.5t-163.5 22q-127 0 -239.5 -49t-196.5 -133t-132.5 -196.5t-48.5 -239.5z" />
    <glyph glyph-name="uni24C5" unicode="&#x24c5;" horiz-adv-x="1764" 
d="M774 607v-341h-106v903h249q145 0 224.5 -70.5t79.5 -198.5q0 -129 -88.5 -211t-239.5 -82h-119zM774 1074v-371h111q110 0 167.5 50t57.5 142q0 179 -212 179h-124zM140 716q0 101 27 195.5t75.5 177t116.5 150.5t150 116.5t176.5 75.5t195.5 27t195.5 -27t177 -75.5
t151 -116.5t117 -150.5t75.5 -177t27 -195.5q0 -102 -27 -196t-75.5 -176.5t-117 -150.5t-151 -116.5t-177 -75t-195.5 -26.5q-102 0 -196 26.5t-176.5 75t-150.5 116.5t-116.5 150.5t-75 177t-26.5 195.5zM264 716q0 -127 48.5 -239.5t132.5 -196.5t196.5 -132.5
t239.5 -48.5t239.5 49t197 133t133.5 196t49 239q0 85 -22.5 163.5t-63 147.5t-97.5 125.5t-125.5 97t-147 62.5t-163.5 22q-127 0 -239.5 -49t-196.5 -133t-132.5 -196.5t-48.5 -239.5z" />
    <glyph glyph-name="uni24C6" unicode="&#x24c6;" horiz-adv-x="1764" 
d="M876 251q-96 0 -173.5 36t-131.5 98t-83 145t-29 177q0 105 29 192.5t85 151t138 99t189 35.5q97 0 174 -35.5t130 -97t81 -145t28 -178.5q0 -85 -19 -161.5t-58 -137.5t-98 -103.5t-140 -60.5l108 -103l-108 -40q-27 28 -58.5 62t-63.5 66zM890 1089q-78 0 -137.5 -30
t-100 -81.5t-61.5 -119t-21 -142.5t20 -142t59.5 -117.5t98 -80.5t135.5 -30q81 0 141 28t100 77t59.5 116.5t19.5 147.5q0 79 -18.5 147.5t-57 118.5t-97.5 79t-140 29zM140 716q0 101 27 195.5t75.5 177t116.5 150.5t150 116.5t176.5 75.5t195.5 27t195.5 -27t177 -75.5
t151 -116.5t117 -150.5t75.5 -177t27 -195.5q0 -102 -27 -196t-75.5 -176.5t-117 -150.5t-151 -116.5t-177 -75t-195.5 -26.5q-102 0 -196 26.5t-176.5 75t-150.5 116.5t-116.5 150.5t-75 177t-26.5 195.5zM264 716q0 -127 48.5 -239.5t132.5 -196.5t196.5 -132.5
t239.5 -48.5t239.5 49t197 133t133.5 196t49 239q0 85 -22.5 163.5t-63 147.5t-97.5 125.5t-125.5 97t-147 62.5t-163.5 22q-127 0 -239.5 -49t-196.5 -133t-132.5 -196.5t-48.5 -239.5z" />
    <glyph glyph-name="uni24C7" unicode="&#x24c7;" horiz-adv-x="1764" 
d="M1266 266h-126l-151 253q-21 36 -40.5 60.5t-40 40.5t-44 23t-53.5 7h-87v-384h-106v903h270q59 0 109 -14.5t87 -45t58 -75.5t21 -105q0 -47 -14.5 -86.5t-40.5 -70.5t-63 -52.5t-83 -33.5v-3q23 -10 39.5 -23t32 -30.5t30 -40t33.5 -51.5zM724 1074v-328h144
q40 0 73.5 12t58 34.5t38.5 55t14 72.5q0 72 -47 113t-136 41h-145zM140 716q0 101 27 195.5t75.5 177t116.5 150.5t150 116.5t176.5 75.5t195.5 27t195.5 -27t177 -75.5t151 -116.5t117 -150.5t75.5 -177t27 -195.5q0 -102 -27 -196t-75.5 -176.5t-117 -150.5t-151 -116.5
t-177 -75t-195.5 -26.5q-102 0 -196 26.5t-176.5 75t-150.5 116.5t-116.5 150.5t-75 177t-26.5 195.5zM264 716q0 -127 48.5 -239.5t132.5 -196.5t196.5 -132.5t239.5 -48.5t239.5 49t197 133t133.5 196t49 239q0 85 -22.5 163.5t-63 147.5t-97.5 125.5t-125.5 97t-147 62.5
t-163.5 22q-127 0 -239.5 -49t-196.5 -133t-132.5 -196.5t-48.5 -239.5z" />
    <glyph glyph-name="uni24C8" unicode="&#x24c8;" horiz-adv-x="1764" 
d="M614 303v124q22 -19 51.5 -34t63 -25.5t66.5 -16t62 -5.5q97 0 145.5 36t48.5 104q0 37 -16 64t-44.5 49.5t-67.5 43t-83 43.5q-47 24 -88 48.5t-71.5 54t-48 67t-17.5 87.5q0 62 27.5 107.5t71.5 75.5t100.5 44.5t114.5 14.5q134 0 195 -33v-119q-80 56 -205 56
q-35 0 -69.5 -7.5t-62 -23.5t-44.5 -42t-17 -63q0 -35 13 -60t38.5 -46t61.5 -40.5t83 -42.5q49 -24 92.5 -50.5t76 -58.5t52 -71.5t19.5 -89.5q0 -67 -26.5 -113t-70.5 -75t-102 -42t-123 -13q-21 0 -52.5 3.5t-64.5 10t-62 16.5t-47 22zM140 716q0 101 27 195.5t75.5 177
t116.5 150.5t150 116.5t176.5 75.5t195.5 27t195.5 -27t177 -75.5t151 -116.5t117 -150.5t75.5 -177t27 -195.5q0 -102 -27 -196t-75.5 -176.5t-117 -150.5t-151 -116.5t-177 -75t-195.5 -26.5q-102 0 -196 26.5t-176.5 75t-150.5 116.5t-116.5 150.5t-75 177t-26.5 195.5z
M264 716q0 -127 48.5 -239.5t132.5 -196.5t196.5 -132.5t239.5 -48.5t239.5 49t197 133t133.5 196t49 239q0 85 -22.5 163.5t-63 147.5t-97.5 125.5t-125.5 97t-147 62.5t-163.5 22q-127 0 -239.5 -49t-196.5 -133t-132.5 -196.5t-48.5 -239.5z" />
    <glyph glyph-name="uni24C9" unicode="&#x24c9;" horiz-adv-x="1764" 
d="M1193 1074h-261v-808h-106v808h-260v95h627v-95zM140 716q0 101 27 195.5t75.5 177t116.5 150.5t150 116.5t176.5 75.5t195.5 27t195.5 -27t177 -75.5t151 -116.5t117 -150.5t75.5 -177t27 -195.5q0 -102 -27 -196t-75.5 -176.5t-117 -150.5t-151 -116.5t-177 -75
t-195.5 -26.5q-102 0 -196 26.5t-176.5 75t-150.5 116.5t-116.5 150.5t-75 177t-26.5 195.5zM264 716q0 -127 48.5 -239.5t132.5 -196.5t196.5 -132.5t239.5 -48.5t239.5 49t197 133t133.5 196t49 239q0 85 -22.5 163.5t-63 147.5t-97.5 125.5t-125.5 97t-147 62.5
t-163.5 22q-127 0 -239.5 -49t-196.5 -133t-132.5 -196.5t-48.5 -239.5z" />
    <glyph glyph-name="uni24CA" unicode="&#x24ca;" horiz-adv-x="1764" 
d="M1224 631q0 -380 -343 -380q-329 0 -329 366v552h106v-545q0 -278 234 -278q226 0 226 268v555h106v-538zM140 716q0 101 27 195.5t75.5 177t116.5 150.5t150 116.5t176.5 75.5t195.5 27t195.5 -27t177 -75.5t151 -116.5t117 -150.5t75.5 -177t27 -195.5q0 -102 -27 -196
t-75.5 -176.5t-117 -150.5t-151 -116.5t-177 -75t-195.5 -26.5q-102 0 -196 26.5t-176.5 75t-150.5 116.5t-116.5 150.5t-75 177t-26.5 195.5zM264 716q0 -127 48.5 -239.5t132.5 -196.5t196.5 -132.5t239.5 -48.5t239.5 49t197 133t133.5 196t49 239q0 85 -22.5 163.5
t-63 147.5t-97.5 125.5t-125.5 97t-147 62.5t-163.5 22q-127 0 -239.5 -49t-196.5 -133t-132.5 -196.5t-48.5 -239.5z" />
    <glyph glyph-name="uni24CB" unicode="&#x24cb;" horiz-adv-x="1764" 
d="M1271 1169l-335 -903h-116l-328 903h118l250 -716q12 -35 19 -80h2q5 38 21 81l255 715h114zM140 716q0 101 27 195.5t75.5 177t116.5 150.5t150 116.5t176.5 75.5t195.5 27t195.5 -27t177 -75.5t151 -116.5t117 -150.5t75.5 -177t27 -195.5q0 -102 -27 -196
t-75.5 -176.5t-117 -150.5t-151 -116.5t-177 -75t-195.5 -26.5q-102 0 -196 26.5t-176.5 75t-150.5 116.5t-116.5 150.5t-75 177t-26.5 195.5zM264 716q0 -127 48.5 -239.5t132.5 -196.5t196.5 -132.5t239.5 -48.5t239.5 49t197 133t133.5 196t49 239q0 85 -22.5 163.5
t-63 147.5t-97.5 125.5t-125.5 97t-147 62.5t-163.5 22q-127 0 -239.5 -49t-196.5 -133t-132.5 -196.5t-48.5 -239.5z" />
    <glyph glyph-name="uni24CC" unicode="&#x24cc;" horiz-adv-x="1764" 
d="M1289 1169l-135 -903h-144l-121 722l-125 -722h-143l-145 903h117l97 -763l143 763h121l129 -762l92 762h114zM140 716q0 101 27 195.5t75.5 177t116.5 150.5t150 116.5t176.5 75.5t195.5 27t195.5 -27t177 -75.5t151 -116.5t117 -150.5t75.5 -177t27 -195.5
q0 -102 -27 -196t-75.5 -176.5t-117 -150.5t-151 -116.5t-177 -75t-195.5 -26.5q-102 0 -196 26.5t-176.5 75t-150.5 116.5t-116.5 150.5t-75 177t-26.5 195.5zM264 716q0 -127 48.5 -239.5t132.5 -196.5t196.5 -132.5t239.5 -48.5t239.5 49t197 133t133.5 196t49 239
q0 85 -22.5 163.5t-63 147.5t-97.5 125.5t-125.5 97t-147 62.5t-163.5 22q-127 0 -239.5 -49t-196.5 -133t-132.5 -196.5t-48.5 -239.5z" />
    <glyph glyph-name="uni24CD" unicode="&#x24cd;" horiz-adv-x="1764" 
d="M1242 266h-129l-208 346q-9 16 -21 45h-2q-7 -15 -22 -45l-214 -346h-130l303 454l-279 449h130l185 -317q18 -32 32 -63h2q20 41 36 65l192 315h121l-284 -448zM140 716q0 101 27 195.5t75.5 177t116.5 150.5t150 116.5t176.5 75.5t195.5 27t195.5 -27t177 -75.5
t151 -116.5t117 -150.5t75.5 -177t27 -195.5q0 -102 -27 -196t-75.5 -176.5t-117 -150.5t-151 -116.5t-177 -75t-195.5 -26.5q-102 0 -196 26.5t-176.5 75t-150.5 116.5t-116.5 150.5t-75 177t-26.5 195.5zM264 716q0 -127 48.5 -239.5t132.5 -196.5t196.5 -132.5
t239.5 -48.5t239.5 49t197 133t133.5 196t49 239q0 85 -22.5 163.5t-63 147.5t-97.5 125.5t-125.5 97t-147 62.5t-163.5 22q-127 0 -239.5 -49t-196.5 -133t-132.5 -196.5t-48.5 -239.5z" />
    <glyph glyph-name="uni24CE" unicode="&#x24ce;" horiz-adv-x="1764" 
d="M1232 1169l-298 -569v-334h-106v331l-291 572h121l202 -408q4 -7 22 -55h2q6 21 24 55l211 408h113zM140 716q0 101 27 195.5t75.5 177t116.5 150.5t150 116.5t176.5 75.5t195.5 27t195.5 -27t177 -75.5t151 -116.5t117 -150.5t75.5 -177t27 -195.5q0 -102 -27 -196
t-75.5 -176.5t-117 -150.5t-151 -116.5t-177 -75t-195.5 -26.5q-102 0 -196 26.5t-176.5 75t-150.5 116.5t-116.5 150.5t-75 177t-26.5 195.5zM264 716q0 -127 48.5 -239.5t132.5 -196.5t196.5 -132.5t239.5 -48.5t239.5 49t197 133t133.5 196t49 239q0 85 -22.5 163.5
t-63 147.5t-97.5 125.5t-125.5 97t-147 62.5t-163.5 22q-127 0 -239.5 -49t-196.5 -133t-132.5 -196.5t-48.5 -239.5z" />
    <glyph glyph-name="uni24CF" unicode="&#x24cf;" horiz-adv-x="1764" 
d="M1217 1144l-529 -782h517v-96h-675v30l525 778h-483v95h645v-25zM140 716q0 101 27 195.5t75.5 177t116.5 150.5t150 116.5t176.5 75.5t195.5 27t195.5 -27t177 -75.5t151 -116.5t117 -150.5t75.5 -177t27 -195.5q0 -102 -27 -196t-75.5 -176.5t-117 -150.5t-151 -116.5
t-177 -75t-195.5 -26.5q-102 0 -196 26.5t-176.5 75t-150.5 116.5t-116.5 150.5t-75 177t-26.5 195.5zM264 716q0 -127 48.5 -239.5t132.5 -196.5t196.5 -132.5t239.5 -48.5t239.5 49t197 133t133.5 196t49 239q0 85 -22.5 163.5t-63 147.5t-97.5 125.5t-125.5 97t-147 62.5
t-163.5 22q-127 0 -239.5 -49t-196.5 -133t-132.5 -196.5t-48.5 -239.5z" />
    <glyph glyph-name="H18543" unicode="&#x25aa;" horiz-adv-x="1764" 
d="M658 941h448v-448h-448v448z" />
    <glyph glyph-name="H18551" unicode="&#x25ab;" horiz-adv-x="1764" 
d="M658 941h448v-448h-448v448zM777 612h210v210h-210v-210z" />
    <glyph glyph-name="triagup" unicode="&#x25b2;" horiz-adv-x="1764" 
d="M882 1434l802 -1434h-1604z" />
    <glyph glyph-name="uni25B6" unicode="&#x25b6;" horiz-adv-x="1764" 
d="M1599 717l-1434 -802v1604z" />
    <glyph glyph-name="triagdn" unicode="&#x25bc;" horiz-adv-x="1764" 
d="M80 1434h1604l-802 -1434z" />
    <glyph glyph-name="uni25C0" unicode="&#x25c0;" horiz-adv-x="1764" 
d="M1599 1519v-1604l-1434 802z" />
    <glyph glyph-name="uni25FB" unicode="&#x25fb;" horiz-adv-x="1764" 
d="M284 1296h1196v-1196h-1196v1196zM1356 1172h-948v-948h948v948z" />
    <glyph glyph-name="uni25FC" unicode="&#x25fc;" horiz-adv-x="1764" 
d="M284 1294h1196v-1196h-1196v1196z" />
    <glyph glyph-name="uni25FD" unicode="&#x25fd;" horiz-adv-x="1764" 
d="M554 1045h656v-656h-656v656zM1086 513v408h-408v-408h408z" />
    <glyph glyph-name="uni25FE" unicode="&#x25fe;" horiz-adv-x="1764" 
d="M554 1045h656v-656h-656v656z" />
    <glyph glyph-name="uni2600" unicode="&#x2600;" horiz-adv-x="1726" 
d="M1277 720q0 -86 -33 -161t-89 -131t-132 -88.5t-161 -32.5q-86 0 -161.5 32.5t-131.5 88.5t-88.5 131t-32.5 161t32.5 161.5t88.5 132t131.5 89t161.5 32.5q85 0 161 -32.5t132 -89t89 -132t33 -161.5zM371 805q-3 -20 -5.5 -41.5t-2.5 -43.5q0 -20 2.5 -41.5t5.5 -41.5
h-216q-18 0 -33.5 6.5t-27 18t-18 26.5t-6.5 32q0 35 25 60t60 25h216zM575 1128q-71 -50 -119 -120l-154 152q-26 26 -26 60t26 62q12 12 27.5 17.5t32.5 5.5q16 0 31.5 -5.5t27.5 -19.5zM1150 314q34 25 64.5 55t54.5 65l153 -154q12 -12 18.5 -28.5t6.5 -33.5
q0 -31 -24 -58q-28 -25 -61 -25q-35 0 -60 25zM1570 805q35 0 60 -25t25 -60q0 -17 -6.5 -32t-18 -26.5t-27 -18t-33.5 -6.5h-217q4 20 5.5 41.5t1.5 41.5q0 22 -1.5 43.5t-5.5 41.5h217zM947 1211q-20 5 -41.5 6t-43.5 1q-21 0 -42.5 -1t-41.5 -6v218q0 35 24.5 60t59.5 25
t60 -25t25 -60v-218zM778 231q20 -5 41.5 -6t42.5 -1q22 0 43.5 1t41.5 6v-218q0 -35 -25 -60t-60 -25t-59.5 25t-24.5 60v218zM1269 1008q-24 35 -54.5 65t-64.5 55l154 152q13 13 29 19t32 6q15 0 30.5 -5.5t27.5 -17.5q24 -26 24 -60q0 -33 -25 -60zM456 434
q48 -70 119 -120l-154 -154q-25 -25 -59 -25q-35 0 -60 25q-26 26 -26 60q0 17 6.5 32.5t19.5 27.5z" />
    <glyph glyph-name="uni2601" unicode="&#x2601;" horiz-adv-x="1779" 
d="M894 1450q88 0 163 -41t124 -110q28 8 56 13.5t57 5.5q71 0 134 -27.5t110 -75t74 -110.5t27 -135v-9q63 -38 98 -102.5t35 -141.5q0 -56 -20 -106t-54.5 -89t-82.5 -63.5t-103 -30.5h-1195q-64 0 -120 24.5t-98 67.5t-66.5 100.5t-24.5 122.5q0 64 24.5 121t67 99.5
t99.5 67.5t122 26q42 48 98 75t120 27h4q12 62 44 115.5t78.5 92.5t105 61t123.5 22z" />
    <glyph glyph-name="uni2602" unicode="&#x2602;" horiz-adv-x="1574" 
d="M799 1349q123 0 233.5 -46t193.5 -126.5t131.5 -189t48.5 -233.5h-23q-8 28 -25 52.5t-40.5 43.5t-51 30t-55.5 11q-37 0 -69.5 -11t-60.5 -30t-49.5 -43.5t-36.5 -52.5h-19q-9 28 -26.5 52.5t-41 43.5t-51.5 30t-58 11t-58 -11t-51.5 -30t-41 -43.5t-26.5 -52.5h-19
q-15 28 -36.5 52.5t-49.5 43.5t-60.5 30t-69.5 11q-28 0 -55.5 -11t-51 -30t-41 -43.5t-24.5 -52.5h-23q0 125 48.5 233.5t131.5 189t193.5 126.5t233.5 46zM853 288q0 -69 -12.5 -129.5t-40 -104.5t-71.5 -69.5t-107 -25.5q-26 0 -42 16t-16 38q0 30 19 45t39 15
q33 0 55 14.5t35 42t18.5 67.5t5.5 91v488q6 4 15 8q8 3 18.5 5.5t26.5 2.5q14 0 24 -2.5t18 -5.5q9 -4 15 -8v-488z" />
    <glyph glyph-name="uni2603" unicode="&#x2603;" 
d="M925 1210q0 -28 -19.5 -48t-45.5 -20q-28 0 -46.5 20t-18.5 48q0 27 18.5 47t46.5 20q26 0 45.5 -20t19.5 -47zM1118 638q0 -20 -7.5 -38t-21 -31.5t-31.5 -21.5t-38 -8t-37.5 8t-30 21.5t-20 31.5t-7.5 38q0 44 27.5 72.5t67.5 28.5q41 0 69.5 -28.5t28.5 -72.5z
M1118 305q0 -44 -28.5 -72.5t-69.5 -28.5q-40 0 -67.5 28.5t-27.5 72.5q0 42 27.5 70.5t67.5 28.5q20 0 38 -7.5t31.5 -21t21 -31.5t7.5 -39zM1247 1210q0 -28 -19 -48t-45 -20q-28 0 -46.5 20t-18.5 48q0 27 18.5 47t46.5 20q26 0 45 -20t19 -47zM1020 942q-39 0 -66.5 5.5
t-45.5 13t-27 14.5t-12 10q-10 9 -10 23t10 25q9 9 22 9t22 -9h1q4 -3 27.5 -13.5t78.5 -10.5q30 0 50.5 3.5t33.5 8t19 8.5l6 4q9 9 22 9q14 0 23 -11q8 -13 8 -24q0 -12 -8 -22q-3 -3 -12.5 -10t-28 -14.5t-46.5 -13t-67 -5.5zM1972 975q21 0 35.5 -15.5t14.5 -35.5
q0 -21 -14.5 -33t-35.5 -12h-118l-235 -249q28 -65 43.5 -135t15.5 -147q0 -94 -23.5 -180.5t-66 -162t-102.5 -137.5t-133 -106t-157.5 -68.5t-175.5 -24.5t-174.5 24.5t-156.5 68.5t-133 106t-103 137.5t-66.5 162t-23.5 180.5q0 77 15 147t43 135l-235 249h-118
q-19 0 -34 12t-15 33q0 20 15 35.5t34 15.5h114v116q0 22 13.5 36.5t35.5 14.5q19 0 34 -14.5t15 -36.5v-123l208 -219q22 29 44.5 55.5t48.5 50.5q-36 62 -57 134t-21 150q0 54 8.5 106t26.5 102h-66q-26 0 -43 17.5t-17 44.5q0 29 17 47t43 18h133v271q0 29 18.5 48
t46.5 19h701q30 0 47.5 -19t17.5 -48v-271h132q26 0 44.5 -18t18.5 -47q0 -27 -18.5 -44.5t-44.5 -17.5h-63q17 -51 26 -102.5t9 -105.5q0 -78 -21 -150t-57 -134q24 -24 46.5 -50.5t43.5 -55.5l212 219v123q0 22 14 36.5t34 14.5q19 0 34 -14.5t15 -36.5v-116h111z
M1020 -232q116 0 218 45.5t178 124.5t120 184.5t44 225.5q0 125 -47.5 237t-135.5 195l-61 58l42 70q31 52 48 111t17 120q0 51 -11.5 104t-33.5 104h-757q-20 -51 -30.5 -104t-10.5 -104q0 -61 15.5 -120t47.5 -111l44 -70l-61 -58q-89 -83 -137.5 -195t-48.5 -237
q0 -120 44 -225.5t120 -184.5t178 -124.5t218 -45.5zM224 1807q0 -16 -5.5 -30t-16 -24.5t-24.5 -16.5t-30 -6q-15 0 -28.5 6t-23.5 16.5t-15.5 24.5t-5.5 30q0 34 21 56t52 22q32 0 54 -22t22 -56zM168 1366q0 -16 -5.5 -30t-16 -24.5t-24.5 -16.5t-30 -6q-15 0 -28.5 6
t-23.5 16.5t-15.5 24.5t-5.5 30q0 34 21 56t52 22q32 0 54 -22t22 -56zM537 1897q0 -16 -5.5 -30t-16 -24.5t-24.5 -16.5t-30 -6q-15 0 -28.5 6t-23.5 16.5t-15.5 24.5t-5.5 30q0 34 21 56t52 22q32 0 54 -22t22 -56zM388 1572q0 -16 -5.5 -30t-16 -24.5t-24.5 -16.5t-30 -6
q-15 0 -28.5 6t-23.5 16.5t-15.5 24.5t-5.5 30q0 34 21 56t52 22q32 0 54 -22t22 -56zM1817 1807q0 34 22 56t54 22q31 0 52 -22t21 -56q0 -16 -5.5 -30t-15.5 -24.5t-23.5 -16.5t-28.5 -6q-16 0 -30 6t-24.5 16.5t-16 24.5t-5.5 30zM1873 1366q0 34 22 56t54 22
q31 0 52 -22t21 -56q0 -16 -5.5 -30t-15.5 -24.5t-23.5 -16.5t-28.5 -6q-16 0 -30 6t-24.5 16.5t-16 24.5t-5.5 30zM1504 1897q0 34 22 56t54 22q31 0 52 -22t21 -56q0 -16 -5.5 -30t-15.5 -24.5t-23.5 -16.5t-28.5 -6q-16 0 -30 6t-24.5 16.5t-16 24.5t-5.5 30zM1653 1572
q0 34 22 56t54 22q31 0 52 -22t21 -56q0 -16 -5.5 -30t-15.5 -24.5t-23.5 -16.5t-28.5 -6q-16 0 -30 6t-24.5 16.5t-16 24.5t-5.5 30z" />
    <glyph glyph-name="uni260E" unicode="&#x260e;" 
d="M1523 721q0 7 -0.5 14t-2.5 15q73 -33 138 -77.5t114 -110t78 -156.5t30 -217q2 -5 2 -15v-137q0 -27 -10.5 -51t-28.5 -42.5t-42 -29t-52 -10.5h-1441q-28 0 -53 10.5t-44 28.5t-30 42t-11 52v137q0 2 1 2.5t1 2.5h-2q0 129 29 222t78.5 159.5t115 111.5t139.5 78
l-3 -29q0 -103 39.5 -193.5t107 -158t158 -106.5t192.5 -39t192.5 39t158 106.5t107 158t39.5 193.5zM701 721q0 67 25.5 126t69.5 103t103 69.5t127 25.5q67 0 127 -25.5t104 -69.5t70 -103t26 -126q0 -68 -26 -127t-70 -103t-104 -69.5t-127 -25.5q-68 0 -127 25.5
t-103 69.5t-69.5 103t-25.5 127zM1951 1030q0 -22 -8 -41t-22.5 -33.5t-33 -22.5t-39.5 -8h-372q-29 64 -74 118t-103.5 92.5t-127.5 60t-145 21.5q-75 0 -143.5 -21.5t-126.5 -60t-104 -92.5t-76 -118h-369q-21 0 -40 8t-33.5 22.5t-22.5 33.5t-8 41v32q0 112 64 201.5
t185 150.5q78 41 172 67q104 29 228.5 45t273.5 16q218 0 389.5 -34t290.5 -96.5t182 -151t63 -198.5v-32z" />
    <glyph glyph-name="uni260F" unicode="&#x260f;" 
d="M1523 721q0 7 -0.5 14t-2.5 15q75 -32 141 -78.5t115 -115t77.5 -162t28.5 -220.5v-137q0 -27 -10.5 -51t-28.5 -42.5t-42 -29t-52 -10.5h-1441q-28 0 -53 10.5t-44 28.5t-30 42t-11 52v137q0 131 29 225t78.5 161t115 112t139.5 78l-3 -29q0 -103 39.5 -193.5t107 -158
t158 -106.5t192.5 -39t192.5 39t158 106.5t107 158t39.5 193.5zM1951 1030q0 -22 -8 -41t-22.5 -33.5t-33 -22.5t-39.5 -8h-372q-29 64 -74.5 117.5t-103.5 92.5t-127 60.5t-145 21.5q-75 0 -143.5 -21.5t-126.5 -60t-104 -92.5t-76 -118h-369q-21 0 -40 8t-33.5 22.5
t-22.5 33.5t-8 41v32q0 103 45.5 179t121 129t172.5 86.5t199.5 52.5t202.5 26t182 7q217 0 389 -34t291 -96.5t182 -151.5t63 -198v-32zM250 37q0 -22 17 -37.5t41 -15.5h1441q22 0 37.5 15.5t15.5 37.5v77.5t-0.5 41t-1 16.5t-0.5 4q-1 92 -18.5 162t-45 123t-63.5 90.5
t-75 63.5q-14 -97 -64.5 -182.5t-127 -149.5t-174 -101.5t-206.5 -37.5q-108 0 -205 39t-173.5 104t-127 150t-65.5 178q-42 -28 -79.5 -64.5t-65 -88.5t-44 -122.5t-16.5 -165.5v-137zM1871 1062q0 91 -57.5 165t-166.5 126t-265.5 80.5t-355.5 28.5q-75 0 -166.5 -5.5
t-185 -21.5t-182 -44t-157.5 -72.5t-110.5 -107.5t-41.5 -149v-32q0 -11 7 -18t17 -7h319q37 65 90 119t117 92.5t138 59.5t155 21q82 0 156 -21t138 -59.5t116 -92.5t89 -119h323q10 0 16.5 7t6.5 18v32zM781 721q0 -51 19 -95.5t52.5 -78t78 -52.5t95.5 -19t96 19
t78.5 52.5t53 78t19.5 95.5t-19.5 95.5t-53 77.5t-78.5 52t-96 19t-95.5 -19t-78 -52t-52.5 -77.5t-19 -95.5zM701 721q0 67 25.5 126t69.5 103t103 69.5t127 25.5q67 0 127 -25.5t104 -69.5t70 -103t26 -126q0 -68 -26 -127t-70 -103t-104 -69.5t-127 -25.5
q-68 0 -127 25.5t-103 69.5t-69.5 103t-25.5 127z" />
    <glyph glyph-name="uni2610" unicode="&#x2610;" horiz-adv-x="1764" 
d="M165 1434h1434v-1434h-1434v1434zM1475 124v1186h-1186v-1186h1186z" />
    <glyph glyph-name="uni2611" unicode="&#x2611;" horiz-adv-x="1764" 
d="M695 226l-324 474h252l144 -228l381 743h228l-506 -989h-175zM165 1434h1434v-1434h-1434v1434zM1475 124v1186h-1186v-1186h1186z" />
    <glyph glyph-name="uni2612" unicode="&#x2612;" horiz-adv-x="1764" 
d="M165 1434h1434v-1434h-1434v1434zM1475 124v1186h-1186v-1186h1186zM976 717l428 -428l-94 -94l-428 428l-428 -428l-94 94l428 428l-428 429l94 94l428 -429l428 429l94 -94z" />
    <glyph glyph-name="uni2614" unicode="&#x2614;" horiz-adv-x="1574" 
d="M313 1427q0 -13 -7.5 -27t-18.5 -25t-25 -18.5t-27 -7.5q-16 0 -30.5 7.5t-25 18.5t-17 25t-6.5 27q0 17 12 44t27 53q18 31 40 64q21 -33 39 -64q14 -26 26.5 -53t12.5 -44zM1417 1427q0 -13 -6 -27t-16.5 -25t-25 -18.5t-30.5 -7.5q-21 0 -35.5 7.5t-24 18.5t-14 25
t-4.5 27q0 17 12 44t27 53q17 31 39 64q21 -33 39 -64q14 -26 26.5 -53t12.5 -44zM873 1588q0 -13 -6 -27t-16.5 -25t-25 -18.5t-30.5 -7.5q-22 0 -39.5 7.5t-29.5 18.5t-18.5 25t-6.5 27q0 20 14.5 50t32.5 57q20 32 47 65q21 -33 39 -65q14 -27 26.5 -57t12.5 -50z
M1147 1803q0 -16 -6 -34t-16.5 -33t-25 -24.5t-30.5 -9.5q-22 0 -39.5 9.5t-29.5 24.5t-18.5 33t-6.5 34q0 14 14.5 38.5t32.5 49.5q20 29 47 61q21 -32 39 -61q14 -25 26.5 -49.5t12.5 -38.5zM603 1803q0 -16 -7 -34t-19.5 -33t-29.5 -24.5t-38 -9.5q-16 0 -30.5 9.5
t-25 24.5t-17 33t-6.5 34q0 14 12 38.5t27 49.5q18 29 40 61q26 -32 47 -61q17 -25 32 -49.5t15 -38.5zM799 1349q123 0 233.5 -46t193.5 -126.5t131.5 -189t48.5 -233.5h-23q-8 28 -25 52.5t-40.5 43.5t-51 30t-55.5 11q-37 0 -69.5 -11t-60.5 -30t-49.5 -43.5t-36.5 -52.5
h-19q-9 28 -26.5 52.5t-41 43.5t-51.5 30t-58 11t-58 -11t-51.5 -30t-41 -43.5t-26.5 -52.5h-19q-15 28 -36.5 52.5t-49.5 43.5t-60.5 30t-69.5 11q-28 0 -55.5 -11t-51 -30t-41 -43.5t-24.5 -52.5h-23q0 125 48.5 233.5t131.5 189t193.5 126.5t233.5 46zM853 288
q0 -69 -12.5 -129.5t-40 -104.5t-71.5 -69.5t-107 -25.5q-26 0 -42 16t-16 38q0 30 19 45t39 15q33 0 55 14.5t35 42t18.5 67.5t5.5 91v488q6 4 15 8q8 3 18.5 5.5t26.5 2.5q14 0 24 -2.5t18 -5.5q9 -4 15 -8v-488z" />
    <glyph glyph-name="uni2615" unicode="&#x2615;" horiz-adv-x="1700" 
d="M1168 947q3 -17 5.5 -36.5t5.5 -40.5q4 -37 7 -88t3 -113q0 -92 -10.5 -202t-41.5 -224.5t-85.5 -226.5t-141.5 -208h-448q-58 57 -100.5 125t-73.5 142.5t-50 153.5t-31 157t-15.5 152t-3.5 139q0 60 2 108.5t5 85.5q3 40 8 76h965zM872 1048q-13 0 -38.5 14t-50.5 39.5
t-43.5 61.5t-18.5 81q0 30 9 58t22 54.5t29 52t29.5 50.5t23 49.5t9.5 48.5q0 49 -10.5 78.5t-23 48.5t-22.5 30.5t-10 21.5q0 21 8.5 30t27.5 9q14 0 40.5 -18t51.5 -48.5t44.5 -71.5t19.5 -85q0 -46 -19 -84.5t-41 -74.5t-41 -71t-19 -75q0 -39 9.5 -64t20.5 -41.5
t21 -29.5t10 -29q0 -17 -8.5 -26t-29.5 -9zM598 1051q-10 0 -28.5 7t-36.5 22.5t-32 38.5t-14 56q0 25 8.5 48t18 44t18 40t8.5 38q0 34 -8 52.5t-16.5 28.5t-15.5 15.5t-7 13.5q0 28 26 28q11 0 30 -10t37.5 -28.5t32.5 -44.5t14 -60q0 -25 -8 -45t-18 -38.5t-18 -37.5
t-8 -42q0 -28 6.5 -43t15 -23.5l15 -15t6.5 -18.5q0 -26 -26 -26zM1265 947q95 -33 167 -93q32 -26 62 -60.5t53.5 -80.5t37.5 -102t14 -125q0 -76 -20.5 -138t-53.5 -111.5t-76 -87.5t-88 -65q-106 -68 -238 -100l62 162q81 25 146 72q27 19 53 44t46.5 58t33 72t12.5 87
q0 50 -9.5 89.5t-24.5 70.5t-34 54t-38 40q-47 38 -105 54v160z" />
    <glyph glyph-name="uni261A" unicode="&#x261a;" horiz-adv-x="1741" 
d="M699 193q-16 0 -34.5 8.5t-34 23.5t-25.5 36t-10 46t10 45.5t25 36.5q-16 0 -34 7.5t-33.5 21t-26 33.5t-10.5 45t12.5 48t27.5 38q-9 4 -20 11t-22 18.5t-18 29t-7 42.5q0 24 12 47t27 38h-191q-16 0 -34 7.5t-33.5 21.5t-26 34t-10.5 45t10.5 46t26 36t33.5 23.5
t34 8.5h544q-5 8 -12 20t-13 27t-10.5 32t-4.5 35q0 35 12.5 56.5t30.5 33.5t38 16.5t35 4.5q3 0 28 -15t63 -41.5t84.5 -63.5t95.5 -81.5t95.5 -95t82.5 -105t58 -110.5t22 -111q0 -83 -31.5 -156t-85.5 -127t-126.5 -85t-154.5 -31h-399z" />
    <glyph glyph-name="uni261B" unicode="&#x261b;" horiz-adv-x="1741" 
d="M642 193q-82 0 -154.5 31t-126.5 85t-85.5 127t-31.5 156q0 55 22 111t58 110.5t82.5 105t95.5 95t95.5 81.5t84.5 63.5t63 41.5t28 15q15 0 35 -4.5t38 -16.5t30.5 -33.5t12.5 -56.5q0 -18 -4.5 -35t-10.5 -32t-13 -27t-12 -20h544q16 0 34 -8.5t33.5 -23.5t26 -36
t10.5 -46t-10.5 -45t-26 -34t-33.5 -21.5t-34 -7.5h-191q15 -15 27 -38t12 -47q0 -25 -7 -42.5t-18 -29t-22 -18.5t-20 -11q15 -15 27.5 -38t12.5 -48t-10.5 -45t-26 -33.5t-33.5 -21t-34 -7.5q15 -16 25 -36.5t10 -45.5t-10 -46t-25.5 -36t-34 -23.5t-34.5 -8.5h-399z" />
    <glyph glyph-name="uni261C" unicode="&#x261c;" horiz-adv-x="1741" 
d="M1086 237q73 0 137.5 27.5t113 76t76.5 113t28 138.5q0 49 -20 99.5t-52.5 100t-74.5 96t-85.5 88t-86.5 76t-77 59.5t-56 39t-26 14q-26 0 -45.5 -16t-19.5 -43q0 -20 5.5 -38.5t15.5 -37.5t24 -39.5t31 -43.5h-611q-14 0 -26.5 -6t-21.5 -16t-14.5 -23t-5.5 -27
q0 -28 20 -46.5t48 -18.5h445q12 0 19.5 -7.5t7.5 -19.5t-7.5 -20.5t-19.5 -8.5h-188q-29 0 -49 -19t-20 -47q0 -29 20 -47.5t49 -18.5h161q12 0 19.5 -8t7.5 -19t-7.5 -18t-19.5 -7h-138q-15 0 -27.5 -6t-22 -16.5t-15 -23.5t-5.5 -27t5.5 -27t15 -23t22 -15.5t27.5 -5.5
h165q12 0 19.5 -5t7.5 -17q0 -10 -7.5 -16t-19.5 -6h-97q-14 0 -26 -6t-21.5 -16t-15 -23.5t-5.5 -28.5q0 -14 5.5 -26.5t15 -22t21.5 -15.5t26 -6h375zM699 193q-16 0 -34.5 8.5t-34 23.5t-25.5 36t-10 46t10 45.5t25 36.5q-16 0 -34 7.5t-33.5 21t-26 33.5t-10.5 45
t12.5 48t27.5 38q-9 4 -20 11t-22 18.5t-18 29t-7 42.5q0 24 12 47t27 38h-191q-16 0 -34 7.5t-33.5 21.5t-26 34t-10.5 45t10.5 46t26 36t33.5 23.5t34 8.5h544q-5 8 -12 20t-13 27t-10.5 32t-4.5 35q0 35 12.5 56.5t30.5 33.5t38 16.5t35 4.5q3 0 28 -15t63 -41.5
t84.5 -63.5t95.5 -81.5t95.5 -95t82.5 -105t58 -110.5t22 -111q0 -83 -31.5 -156t-85.5 -127t-126.5 -85t-154.5 -31h-399z" />
    <glyph glyph-name="uni261D" unicode="&#x261d;" horiz-adv-x="1024" 
d="M979 858q0 14 -6 26t-15.5 21.5t-22 15t-26.5 5.5q-15 0 -28.5 -5.5t-23.5 -15t-16 -21.5t-6 -26v-97q0 -12 -6 -19.5t-16 -7.5q-12 0 -17 7.5t-5 19.5v165q0 15 -5.5 27.5t-15.5 22t-23 15t-27 5.5t-27 -5.5t-23.5 -15t-16.5 -22t-6 -27.5v-138q0 -12 -7 -19.5t-18 -7.5
t-19 7.5t-8 19.5v161q0 29 -18.5 49t-47.5 20q-28 0 -47 -20t-19 -49v-188q0 -12 -8.5 -19.5t-20.5 -7.5t-19.5 7.5t-7.5 19.5v445q0 28 -18.5 48t-46.5 20q-14 0 -27 -5.5t-23 -14.5t-16 -21.5t-6 -26.5v-611q-23 17 -43.5 31t-39.5 24t-37.5 15.5t-38.5 5.5
q-27 0 -43 -19.5t-16 -45.5q0 -4 14 -26t39 -56t59.5 -77t76 -86.5t88 -85.5t96 -74.5t100 -52.5t99.5 -20q74 0 138.5 28t113 76.5t76 113t27.5 137.5v375zM1023 471q0 -82 -31 -154.5t-85 -126.5t-127 -85.5t-156 -31.5q-55 0 -111 22t-110.5 58t-105 82.5t-95 95.5
t-81.5 95.5t-63.5 84.5t-41.5 63t-15 28q0 15 4.5 35t16.5 38t33.5 30.5t56.5 12.5q18 0 35 -4.5t32 -10.5t27 -13t20 -12v544q0 16 8.5 34t23.5 33.5t36 26t46 10.5t45 -10.5t34 -26t21.5 -33.5t7.5 -34v-191q15 15 38 27t47 12q25 0 42.5 -7t29 -18t18.5 -22t11 -20
q15 15 38 27.5t48 12.5t45 -10.5t33.5 -26t21 -33.5t7.5 -34q16 15 36.5 25t45.5 10t46 -10t36 -25.5t23.5 -34t8.5 -34.5v-399z" />
    <glyph glyph-name="uni261E" unicode="&#x261e;" horiz-adv-x="1741" 
d="M1029 237q14 0 26 6t21.5 15.5t15 22t5.5 26.5q0 15 -5.5 28.5t-15 23.5t-21.5 16t-26 6h-97q-12 0 -19.5 6t-7.5 16q0 12 7.5 17t19.5 5h165q15 0 27.5 5.5t22 15.5t15 23t5.5 27t-5.5 27t-15 23.5t-22 16.5t-27.5 6h-138q-12 0 -19.5 7t-7.5 18t7.5 19t19.5 8h161
q29 0 49 18.5t20 47.5q0 28 -20 47t-49 19h-188q-12 0 -19.5 8.5t-7.5 20.5t7.5 19.5t19.5 7.5h445q28 0 48 18.5t20 46.5q0 14 -5.5 27t-14.5 23t-21.5 16t-26.5 6h-611q17 23 31 43.5t24 39.5t15.5 37.5t5.5 38.5q0 27 -19.5 43t-45.5 16q-4 0 -26 -14t-56 -39t-77 -59.5
t-86.5 -76t-85.5 -88t-74.5 -96t-52.5 -100t-20 -99.5q0 -74 28 -138.5t76.5 -113t113 -76t137.5 -27.5h375zM642 193q-82 0 -154.5 31t-126.5 85t-85.5 127t-31.5 156q0 55 22 111t58 110.5t82.5 105t95.5 95t95.5 81.5t84.5 63.5t63 41.5t28 15q15 0 35 -4.5t38 -16.5
t30.5 -33.5t12.5 -56.5q0 -18 -4.5 -35t-10.5 -32t-13 -27t-12 -20h544q16 0 34 -8.5t33.5 -23.5t26 -36t10.5 -46t-10.5 -45t-26 -34t-33.5 -21.5t-34 -7.5h-191q15 -15 27 -38t12 -47q0 -25 -7 -42.5t-18 -29t-22 -18.5t-20 -11q15 -15 27.5 -38t12.5 -48t-10.5 -45
t-26 -33.5t-33.5 -21t-34 -7.5q15 -16 25 -36.5t10 -45.5t-10 -46t-25.5 -36t-34 -23.5t-34.5 -8.5h-399z" />
    <glyph glyph-name="uni261F" unicode="&#x261f;" horiz-adv-x="1024" 
d="M45 540q0 -14 6 -26t15.5 -21.5t22 -15t26.5 -5.5q15 0 28.5 5.5t23.5 15t16 21.5t6 26v97q0 12 6 19.5t16 7.5q12 0 17 -7.5t5 -19.5v-165q0 -15 5.5 -27.5t15.5 -22t23 -15t27 -5.5t27 5.5t23.5 15t16.5 22t6 27.5v138q0 12 7 19.5t18 7.5t19 -7.5t8 -19.5v-161
q0 -29 18.5 -49t47.5 -20q28 0 47 20t19 49v188q0 12 8.5 19.5t20.5 7.5t19.5 -7.5t7.5 -19.5v-445q0 -28 18.5 -48t46.5 -20q14 0 27 5.5t23 14.5t16 21.5t6 26.5v611q23 -17 43.5 -31t39.5 -24t37.5 -15.5t38.5 -5.5q27 0 43 19.5t16 45.5q0 4 -14 26t-39 56t-59.5 77
t-76 86.5t-88 85.5t-96 74.5t-100 52.5t-99.5 20q-74 0 -138.5 -28t-113 -76.5t-76 -113t-27.5 -137.5v-375zM1 927q0 82 31 154.5t85 126.5t127 85.5t156 31.5q55 0 111 -22t110.5 -58t105 -82.5t95 -95.5t81.5 -95.5t63.5 -84.5t41.5 -63t15 -28q0 -15 -4.5 -35t-16.5 -38
t-33.5 -30.5t-56.5 -12.5q-18 0 -35 4.5t-32 10.5t-27 13t-20 12v-544q0 -16 -8.5 -34t-23.5 -33.5t-36 -26t-46 -10.5t-45 10.5t-34 26t-21.5 33.5t-7.5 34v191q-15 -15 -38 -27t-47 -12q-25 0 -42.5 7t-29 18t-18.5 22t-11 20q-15 -15 -38 -27.5t-48 -12.5t-45 10.5
t-33.5 26t-21 33.5t-7.5 34q-16 -15 -36.5 -25t-45.5 -10t-46 10t-36 25.5t-23.5 34t-8.5 34.5v399z" />
    <glyph glyph-name="uni2639" unicode="&#x2639;" 
d="M1447 359q21 -14 21 -38q0 -15 -10 -30q-17 -20 -42 -20q-21 0 -33 9q-102 73 -194.5 101.5t-173.5 28.5q-74 0 -135.5 -17.5t-107 -39.5t-73.5 -42t-35 -26l-2 -1q-18 -13 -37 -13q-23 0 -38 15t-15 35q0 11 5.5 20.5t13.5 17.5q8 6 42 30.5t89.5 51t130.5 47.5t165 21
q95 0 204 -33t225 -117zM711 901q0 -22 -3.5 -40t-17.5 -31q-6 1 -17 6t-23 9.5t-24.5 8.5t-21.5 4q-8 0 -19.5 -4t-23.5 -8.5t-23 -9.5t-17 -6q-14 13 -17.5 31t-3.5 40v48q0 36 14 70q-6 -3 -15.5 -5t-20 -4t-20.5 -3t-16 -1q-12 0 -21.5 6.5t-9.5 20.5q0 9 6 23
q6 11 21.5 23.5t38 25t50.5 23.5t58 18q21 5 44.5 10t46.5 9t45 6.5t40 2.5q30 0 41 -8q11 -7 15.5 -14t4.5 -15q0 -18 -17 -26q-10 -5 -28 -13t-37.5 -15.5t-38.5 -13t-31 -6.5q19 -20 29.5 -49.5t10.5 -64.5zM1447 1147q30 -7 57.5 -17.5t50 -23t38.5 -25.5t22 -25
q5 -9 5 -20q0 -14 -9.5 -22t-22.5 -8q-10 0 -31 2.5t-31 6.5q11 -31 11 -66v-48q0 -22 -3 -40t-17 -31q-6 1 -16.5 6t-22.5 9.5t-23.5 8.5t-20.5 4t-20.5 -4t-23.5 -8.5t-22.5 -9.5t-17.5 -6q-14 14 -17.5 32.5t-3.5 41.5v45q0 35 11 64.5t28 49.5q-13 1 -32.5 6.5t-40 13
t-39 15.5t-29.5 13q-7 5 -11.5 11.5t-4.5 14.5q0 16 20 32q11 7 39 7q18 0 40 -2.5t45.5 -6.5t47 -9.5t44.5 -10.5zM1018 1705q131 0 252.5 -34t227 -96t192 -148.5t148.5 -192t96 -227t34 -252.5q0 -192 -71.5 -364.5t-207.5 -308.5q-67 -67 -144.5 -118.5t-163 -87
t-177 -53.5t-186.5 -18q-131 0 -252.5 34t-227 95.5t-192 148t-148.5 192t-96 227.5t-34 253t34 252.5t96 227t148.5 192t192 148.5t227 96t252.5 34zM1018 -101q118 0 227.5 30.5t204.5 86.5t173 134t134 173t86.5 204.5t30.5 227.5t-30.5 227t-86.5 204t-134 173.5
t-173 134.5t-204.5 86.5t-227.5 30.5t-227.5 -30.5t-204.5 -86.5t-173 -134.5t-134 -173.5t-86.5 -204t-30.5 -227t30.5 -227.5t86.5 -204.5t134 -173t173 -134t204.5 -86.5t227.5 -30.5z" />
    <glyph glyph-name="smileface" unicode="&#x263a;" 
d="M1424 1099q43 0 73 -32t30 -89v-44q0 -15 -2 -28t-11 -24q-3 5 -12.5 9t-22 7t-27.5 4.5t-28 1.5q-14 0 -28.5 -1.5t-28 -4.5t-23.5 -7t-13 -9q-9 12 -11 27.5t-2 33.5v35q0 57 31 89t75 32zM618 1099q44 0 74 -32t30 -89v-42q0 -16 -2 -29.5t-11 -24.5q-3 5 -12.5 9
t-22.5 7t-28 4.5t-28 1.5t-28 -1.5t-27.5 -4.5t-22 -7t-12.5 -9q-10 12 -13 27.5t-3 32.5v36q0 57 31.5 89t74.5 32zM1507 620q20 -5 32 -19.5t12 -33.5q0 -5 -2 -15q-22 -92 -71.5 -168t-119.5 -131t-155.5 -85t-179.5 -30q-95 0 -181 30.5t-155.5 86t-119 132.5t-71.5 169
q-1 3 -1 6.5v6.5q0 20 12 35.5t32 19.5q8 2 13 2q20 0 35.5 -12t19.5 -32q18 -72 57 -132.5t94 -103.5t123 -67t142 -24t141.5 23.5t122.5 66.5t94 102t57 131q5 20 21 31.5t36 11.5q8 0 12 -1zM1021 1704q131 0 252.5 -34t227 -96t192 -148.5t148.5 -192t96 -227t34 -252.5
q0 -192 -71.5 -364.5t-207.5 -308.5q-67 -67 -144.5 -118.5t-163 -87t-177 -53.5t-186.5 -18q-131 0 -252.5 34t-227 95.5t-192 148t-148.5 192t-96 227.5t-34 253t34 252.5t96 227t148.5 192t192 148.5t227 96t252.5 34zM1021 -102q118 0 227.5 30.5t204.5 86.5t173 134
t134 173t86.5 204.5t30.5 227.5t-30.5 227t-86.5 204t-134 173.5t-173 134.5t-204.5 86.5t-227.5 30.5t-227.5 -30.5t-204.5 -86.5t-173 -134.5t-134 -173.5t-86.5 -204t-30.5 -227t30.5 -227.5t86.5 -204.5t134 -173t173 -134t204.5 -86.5t227.5 -30.5z" />
    <glyph glyph-name="invsmileface" unicode="&#x263b;" 
d="M1424 1099q-44 0 -75 -32t-31 -89v-35q0 -18 2 -33.5t11 -27.5q3 5 13 9t23.5 7t28 4.5t28.5 1.5q13 0 28 -1.5t27.5 -4.5t22 -7t12.5 -9q9 11 11 24t2 28v44q0 57 -30 89t-73 32zM618 1099q-43 0 -74.5 -32t-31.5 -89v-36q0 -17 3 -32.5t13 -27.5q3 5 12.5 9t22 7
t27.5 4.5t28 1.5t28 -1.5t28 -4.5t22.5 -7t12.5 -9q9 11 11 24.5t2 29.5v42q0 57 -30 89t-74 32zM1507 620q-4 1 -12 1q-20 0 -36 -11.5t-21 -31.5q-18 -72 -57 -131t-94 -102t-122.5 -66.5t-141.5 -23.5t-142 24t-123 67t-94 103.5t-57 132.5q-4 20 -19.5 32t-35.5 12
q-5 0 -13 -2q-20 -4 -32 -19.5t-12 -35.5v-6.5t1 -6.5q22 -92 71.5 -169t119 -132.5t155.5 -86t181 -30.5q94 0 179.5 30t155.5 85t119.5 131t71.5 168q2 10 2 15q0 19 -12 33.5t-32 19.5zM1021 -102q-118 0 -227.5 30.5t-204.5 86.5t-173 134t-134 173t-86.5 204.5
t-30.5 227.5t30.5 227t86.5 204t134 173.5t173 134.5t204.5 86.5t227.5 30.5t227.5 -30.5t204.5 -86.5t173 -134.5t134 -173.5t86.5 -204t30.5 -227t-30.5 -227.5t-86.5 -204.5t-134 -173t-173 -134t-204.5 -86.5t-227.5 -30.5z" />
    <glyph glyph-name="uni263F" unicode="&#x263f;" horiz-adv-x="1128" 
d="M264 1464q0 -72 23 -133t63.5 -106t95 -70t117.5 -25t117.5 25t95.5 70t64.5 106t23.5 133h200q0 -69 -15 -132t-43 -117.5t-66.5 -100t-85.5 -78.5q47 -33 85.5 -76.5t66.5 -94.5t43 -108.5t15 -118.5q0 -90 -31 -170.5t-85 -144.5t-127.5 -108t-158.5 -60v-126h223
v-194h-223v-223h-193v223h-224v194h224v125q-86 16 -160 60t-128.5 108t-85.5 145t-31 171q0 61 15 118.5t42 108.5t65.5 94.5t85.5 76.5q-95 69 -151.5 180t-56.5 248h200zM264 638q0 -66 23 -121.5t63.5 -96t95 -63.5t117.5 -23t117.5 23t95.5 63.5t64.5 96t23.5 121.5
t-23.5 121.5t-64.5 96t-95.5 63.5t-117.5 23t-117.5 -23t-95 -63.5t-63.5 -96t-23 -121.5z" />
    <glyph glyph-name="female" unicode="&#x2640;" horiz-adv-x="1128" 
d="M885 193h-223v-223h-193v223h-224v194h224v125q-86 16 -160 60t-128.5 108t-85.5 145t-31 171q0 101 40 190.5t108 156.5t159 106t192 39t192 -39t159.5 -106t109 -156.5t40.5 -190.5q0 -90 -31 -170.5t-85 -144.5t-127.5 -108t-158.5 -60v-126h223v-194zM264 996
q0 -66 23 -121.5t63.5 -96t95 -63.5t117.5 -23t117.5 23t95.5 63.5t64.5 96t23.5 121.5t-23.5 121.5t-64.5 96t-95.5 63.5t-117.5 23t-117.5 -23t-95 -63.5t-63.5 -96t-23 -121.5z" />
    <glyph glyph-name="uni2641" unicode="&#x2641;" horiz-adv-x="1128" 
d="M885 1047h-223v-127q85 -17 158.5 -61.5t127.5 -108t85 -143.5t31 -169q0 -101 -40.5 -190.5t-109 -156.5t-159.5 -106t-192 -39t-192 39t-159 106t-108 156.5t-40 190.5q0 90 31 171t85.5 145t128.5 107.5t160 59.5v126h-224v194h224v223h193v-223h223v-194zM264 438
q0 -66 23 -121.5t63.5 -96t95 -63.5t117.5 -23t117.5 23t95.5 63.5t64.5 96t23.5 121.5t-23.5 121.5t-64.5 96t-95.5 63.5t-117.5 23t-117.5 -23t-95 -63.5t-63.5 -96t-23 -121.5z" />
    <glyph glyph-name="male" unicode="&#x2642;" horiz-adv-x="1421" 
d="M64 438q0 101 40 190.5t108 156.5t159 106t192 39q72 0 140.5 -20.5t127.5 -56.5l225 225q-28 -1 -56 -1h-53l-165 165l545 -9l21 -21l10 -545l-165 165l1 112l-223 -223q43 -61 68 -132.5t25 -150.5q0 -101 -40.5 -190.5t-109 -156.5t-159.5 -106t-192 -39t-192 39
t-159 106t-108 156.5t-40 190.5zM264 438q0 -66 23 -121.5t63.5 -96t95 -63.5t117.5 -23t117.5 23t95.5 63.5t64.5 96t23.5 121.5t-23.5 121.5t-64.5 96t-95.5 63.5t-117.5 23t-117.5 -23t-95 -63.5t-63.5 -96t-23 -121.5z" />
    <glyph glyph-name="uni2643" unicode="&#x2643;" horiz-adv-x="1575" 
d="M94 465h399q67 0 122 23.5t94 63.5t60.5 92.5t21.5 110.5t-19 107t-53.5 85t-83 56.5t-108.5 20.5q-121 0 -189.5 -71t-76.5 -202h-165q0 80 29 157t84 137t135.5 96.5t183.5 36.5t184 -33.5t136.5 -89.5t84.5 -129.5t29 -153.5q0 -100 -34 -177.5t-99 -129.5h394v969
h164v-1434h-164v313h-1129v152z" />
    <glyph glyph-name="uni2644" unicode="&#x2644;" horiz-adv-x="1096" 
d="M336 1202v-348h4q64 97 145 146t191 49q86 0 147.5 -32.5t100.5 -85t57.5 -119t18.5 -134.5q0 -57 -10 -102t-25 -83.5t-33 -73t-33 -69.5t-25 -73t-10 -85q0 -50 10 -96t30 -96h-172q-17 45 -25.5 93.5t-8.5 110.5q0 53 10 97t25.5 82t33.5 72.5t33.5 68.5t25.5 70
t10 77q0 53 -11.5 96.5t-37 75t-67 49t-100.5 17.5q-62 0 -114.5 -27.5t-90 -73.5t-58.5 -105t-21 -123v-580h-164v1202h-133v133h133v181h164v-181h334v-133h-334z" />
    <glyph glyph-name="uni2645" unicode="&#x2645;" horiz-adv-x="1454" 
d="M60 1434h315v-436h285v436h133v-436h286v436h315v-142h-162v-739h162v-142h-315v453h-286v-351q39 -8 77 -27.5t69 -51.5t50 -77.5t19 -105.5t-20.5 -110.5t-57 -87.5t-88 -57.5t-113.5 -20.5t-113 20.5t-88 57.5t-57 87.5t-20 110.5t17.5 105t47 76.5t67 51.5t77.5 30
v350h-285v-453h-315v142h162v739h-162v142zM729 400q-66 0 -107 -40.5t-41 -108.5q0 -34 10.5 -62t29.5 -48.5t46 -32t60 -11.5t60.5 11.5t47.5 32t31 48.5t11 62t-11 61.5t-30.5 47t-46.5 30t-60 10.5z" />
    <glyph glyph-name="uni2646" unicode="&#x2646;" horiz-adv-x="1688" 
d="M166 1148l-124 -124v141l184 178h4l185 -178v-141l-125 125v-99q0 -132 29.5 -245.5t90 -198.5t153.5 -134.5t219 -53.5v877l-123 -123v142l184 177h4l185 -176v-143l-125 125v-879q123 4 215 53.5t152.5 134.5t91 198.5t30.5 245.5v97l-123 -123v141l184 178h4l185 -178
v-141l-125 125v-99q0 -160 -37.5 -296t-113.5 -236.5t-191.5 -159.5t-271.5 -66v-160h270v-133h-270v-174h-125v174h-271v133h271v160q-156 7 -272 66t-192.5 159.5t-114 236.5t-37.5 296v98z" />
    <glyph glyph-name="uni2647" unicode="&#x2647;" horiz-adv-x="1147" 
d="M356 614v-462h684v-152h-852v1434h394q114 0 204 -26.5t152 -77t94.5 -123.5t32.5 -167q0 -108 -42 -188t-113.5 -133t-166 -79t-198.5 -26h-189zM356 1282v-517h176q175 0 266 70t91 196q0 251 -336 251h-197z" />
    <glyph glyph-name="uni2648" unicode="&#x2648;" horiz-adv-x="1982" 
d="M1436 1599q75 0 144.5 -19.5t130.5 -55.5t110.5 -86t85.5 -111t55.5 -131t19.5 -145q0 -76 -19.5 -146t-55.5 -130.5t-85.5 -110t-110.5 -85t-130.5 -55t-144.5 -19.5v204q71 0 133.5 27t109 73.5t73 109t26.5 132.5q0 71 -26.5 133t-73 108.5t-109 73.5t-133.5 27
t-133.5 -27t-109.5 -73.5t-74 -108.5t-27 -133v-1051h-202v1051q0 71 -27 133t-73.5 108.5t-109 73.5t-132.5 27q-71 0 -133 -27t-108.5 -73.5t-73.5 -108.5t-27 -133q0 -70 27 -132.5t72.5 -109t107 -73.5t130.5 -27v-204q-111 0 -210 42.5t-173 116.5t-117 173.5
t-43 213.5q0 113 43 213t117.5 174.5t174.5 117.5t213 43q68 0 132 -16.5t121 -46.5t105 -73t85 -95q38 52 86.5 95t105.5 73t121 46.5t132 16.5z" />
    <glyph glyph-name="uni2649" unicode="&#x2649;" horiz-adv-x="1985" 
d="M1451 1614q40 81 98 127.5t127.5 70.5t148 30t160.5 6v-204q-93 0 -153.5 -7t-99 -22t-60 -38t-36.5 -54q-28 -49 -55 -98t-59 -96t-73.5 -90t-98.5 -80q66 -44 120.5 -102t92.5 -127.5t59 -148t21 -163.5q0 -135 -51.5 -253t-140 -206.5t-207 -139.5t-253.5 -51
q-134 0 -252 51t-206.5 139.5t-139.5 206.5t-51 253q0 85 20.5 163.5t59 148t92.5 127.5t120 102q-57 37 -100.5 81.5t-77 92.5t-59.5 97t-48 93q-16 31 -37.5 54t-60 38t-98.5 22t-153 7v204q83 0 161.5 -6t147.5 -30t126 -70.5t98 -127.5q31 -62 66 -124t86.5 -111.5
t125 -80.5t180.5 -31q108 0 182 30.5t125.5 80t87 111.5t65.5 125zM1436 618q0 92 -35 173t-95.5 141.5t-141.5 95.5t-173 35t-172.5 -35t-140.5 -95.5t-95 -141.5t-35 -173t35 -173.5t95 -142t140.5 -95.5t172.5 -35t173 35t141.5 95.5t95.5 142t35 173.5z" />
    <glyph glyph-name="uni264A" unicode="&#x264a;" horiz-adv-x="1759" 
d="M1319 182q121 -11 229.5 -29.5t210.5 -44.5l-49 -199q-182 45 -392.5 68t-439.5 23q-226 0 -436.5 -23t-392.5 -68l-49 199q100 26 210 44.5t228 29.5v1107q-237 26 -438 74l49 199q182 -45 391.5 -68t437.5 -23q229 0 438 23t391 68l50 -199q-100 -24 -208.5 -42.5
t-229.5 -31.5v-1107zM640 199q59 4 118 6t120 2q62 0 122 -2t119 -6v1073q-59 -2 -119 -3.5t-122 -1.5q-61 0 -120 1.5t-118 3.5v-1073z" />
    <glyph glyph-name="uni264B" unicode="&#x264b;" horiz-adv-x="1993" 
d="M1117 629q18 72 59 133.5t97.5 106.5t126 70.5t144.5 25.5h6q100 -1 182 -39t140 -100t89.5 -142t31.5 -165q0 -71 -23 -141t-73 -133q-66 -95 -158 -161t-197.5 -109.5t-219 -67t-222.5 -33.5q-69 -6 -136 -6q-242 0 -462.5 74t-410.5 222l126 160q82 -65 171.5 -112.5
t184 -78t192.5 -45.5t199 -15q97 0 193.5 13t193.5 38q-59 30 -105 73t-77.5 94.5t-48 110.5t-16.5 120q0 55 13 107zM878 823q-18 -73 -59.5 -135t-99.5 -107.5t-128 -71t-146 -25.5q-100 0 -182 38t-140.5 101t-90.5 143.5t-32 165.5q0 72 23.5 142t74.5 133
q66 95 157.5 161t197 109t219 66.5t223.5 32.5q69 6 138 6q241 0 460.5 -73t408.5 -221l-126 -162q-165 132 -354 191.5t-391 59.5q-192 0 -386 -50q59 -30 104.5 -72.5t77 -94.5t47.5 -111t16 -120q0 -54 -12 -106zM442 1168q-50 0 -93 -19.5t-75 -52.5t-50.5 -77
t-18.5 -92q0 -50 20 -93t54 -74.5t77.5 -49.5t91.5 -18q50 0 93 19t75 51t50 75t18 91q0 51 -20 94.5t-53 76t-77 51t-92 18.5zM1545 760q-50 0 -93 -19.5t-75 -52.5t-50.5 -77t-18.5 -92q0 -50 20 -93t54 -74.5t77.5 -49.5t91.5 -18q50 0 93 19t75 51t50 75t18 91
q0 51 -20 94.5t-53 76t-77 51t-92 18.5z" />
    <glyph glyph-name="uni264C" unicode="&#x264c;" horiz-adv-x="1638" 
d="M1443 -81l195 -64q-18 -57 -53 -102t-80.5 -76.5t-99 -48t-108.5 -16.5q-40 0 -79 8.5t-77 27.5q-47 23 -83 58t-61.5 77t-38.5 89.5t-13 97.5q0 40 8.5 79t27.5 77l278 703q18 36 26.5 73t8.5 75q0 60 -20.5 116.5t-58 102t-90.5 77t-117 42.5q-14 2 -26.5 3t-26.5 1
q-69 0 -131 -26.5t-109 -72.5t-75 -108t-28 -133q0 -11 5.5 -40.5t15 -72.5t22.5 -97t27.5 -113.5t30 -123t31.5 -124.5q5 -20 7 -42t2 -41q0 -81 -33 -148.5t-87 -117t-124 -77t-143 -27.5q-69 0 -137 26.5t-125 86.5q-54 57 -79 122.5t-25 132.5q0 73 27.5 141.5t77 122
t118.5 85.5t151 32q21 0 43 -2.5t45 -7.5q-23 92 -38 165.5t-15 139.5q0 62 15.5 121t51.5 125q33 60 80 109.5t104 85.5t121.5 57.5t132.5 26.5q10 1 19 1h19q116 0 216 -46t173.5 -123t115.5 -177.5t42 -208.5q0 -57 -13 -114.5t-40 -114.5l-281 -706q-19 -37 -19 -72
q0 -32 13.5 -59t36 -47t51.5 -31t59 -11q42 0 81 24t56 80zM378 158q40 0 71.5 15t53.5 39t33.5 55t11.5 63q0 31 -10.5 61.5t-31.5 54.5t-53 39t-75 15q-42 0 -74 -15t-53.5 -39.5t-32.5 -55.5t-11 -64q0 -32 10.5 -62t31.5 -53.5t53 -38t76 -14.5z" />
    <glyph glyph-name="uni264D" unicode="&#x264d;" horiz-adv-x="1983" 
d="M1926 1235q1 -25 1.5 -49t0.5 -48q0 -143 -17 -275.5t-47 -252t-71.5 -225.5t-90.5 -194q48 -74 94 -129.5t84.5 -93.5t65 -59.5t34.5 -27.5q1 -1 2 -1l1 -1l-113 -170q-5 3 -30.5 22t-65 55t-89 89.5t-103.5 126.5q-53 -73 -103.5 -127.5t-90.5 -91.5q-47 -43 -89 -74
l-116 170q5 3 30.5 22.5t64.5 57.5t87.5 96t98.5 136q-46 85 -86.5 187t-71 221.5t-48 256.5t-17.5 293v40.5t1 40.5v2q-2 33 -14 58.5t-31.5 43t-44 26t-49.5 8.5q-24 0 -47.5 -8.5t-42.5 -25t-31.5 -42.5t-14.5 -60v-1232h-202v1232q0 33 -11.5 58.5t-31 42.5t-44 25.5
t-49.5 8.5t-49 -8.5t-43 -25t-32 -42t-15 -59.5v-1232h-212v1232q0 29 -11 54t-29.5 43t-42.5 28.5t-50 10.5q-14 0 -28 -3t-28 -10l-89 185q73 34 147 34q65 0 126.5 -25t112.5 -76q51 51 112.5 75.5t126.5 24.5q66 0 128 -25t113 -75q51 51 112.5 75.5t125.5 24.5
q66 0 128 -25t111 -75q53 52 115 76t125 24q65 0 126.5 -24t109 -68.5t77 -107t30.5 -138.5zM1446 1143q0 -111 10.5 -211.5t29.5 -191t44 -170.5t54 -150q29 70 54 149t43.5 168t29 188.5t10.5 210.5v96q-2 34 -14.5 59.5t-31.5 42t-42.5 25t-47.5 8.5q-25 0 -50 -9.5
t-44.5 -27t-32 -42.5t-12.5 -56v-89z" />
    <glyph glyph-name="uni264E" unicode="&#x264e;" horiz-adv-x="1853" 
d="M0 0v204h1853v-204h-1853zM1400 679h453v-202h-760v204h7q45 24 82.5 59t64 78t41 93t14.5 105q0 77 -30 145.5t-81 119.5t-119.5 81t-146.5 30q-77 0 -145.5 -30t-119.5 -81t-81 -119.5t-30 -145.5q0 -55 15 -105t42 -93t64.5 -78t82.5 -59h5v-204h-758v202h451
q-51 74 -78.5 158t-27.5 179q0 80 21 154t58.5 138.5t90.5 117.5t117.5 90.5t138.5 58.5t154 21q81 0 155.5 -21t139 -58.5t117.5 -90.5t90.5 -117.5t58 -138.5t20.5 -154q0 -95 -27 -179t-79 -158z" />
    <glyph glyph-name="uni264F" unicode="&#x264f;" horiz-adv-x="1963" 
d="M1685 110l278 -275l-278 -276l-71 74l101 103h-133q-70 0 -132.5 26t-109 71.5t-73.5 106.5t-27 131h2v1164q0 27 -10.5 51.5t-29.5 43t-44 29.5t-53 11q-29 0 -54 -11t-44 -29.5t-29.5 -43t-10.5 -51.5v-1235h-202v1235q0 27 -11 51.5t-30.5 43t-45 29.5t-53.5 11
t-52.5 -11t-43 -29.5t-29 -43t-10.5 -51.5v-1235h-202v1235q-2 27 -13.5 51.5t-30.5 43t-43.5 29.5t-52.5 11q-17 0 -31.5 -3.5t-27.5 -8.5l-89 184q68 34 148 34q70 0 131 -25.5t107 -72.5q47 47 108.5 72.5t130.5 25.5q70 0 132.5 -25.5t108.5 -72.5q47 47 107.5 72.5
t131.5 25.5t132.5 -26.5t107 -73t71.5 -108.5t26 -133v-1164q0 -29 11.5 -53t31 -42t44.5 -28t53 -10h133l-101 101z" />
    <glyph glyph-name="uni2650" unicode="&#x2650;" horiz-adv-x="1719" 
d="M1674 1591v-888h-202v538l-779 -777l233 -236l-145 -145l-236 236l-372 -372l-145 143l372 374l-234 234l145 145l234 -234l780 780h-539v202h888z" />
    <glyph glyph-name="uni2651" unicode="&#x2651;" horiz-adv-x="2255" 
d="M890 -417v201h148q6 0 18 1t27.5 7t33 18.5t34.5 35.5l182 243q-48 75 -78 162t-30 185v512q0 28 -10 53.5t-28 44t-42.5 29.5t-52.5 11q-24 0 -54 -14t-64.5 -53t-72 -107t-77.5 -176q-6 -11 -8.5 -20t-4.5 -14q-22 -50 -39 -108.5t-28.5 -140t-17.5 -192t-6 -263.5
h-209q0 174 -13 302t-29.5 213.5t-31 131t-18.5 54.5q-1 1 -1 2v1q-25 69 -51 130q-11 26 -23 52.5t-24.5 50t-25 42.5t-24.5 30q-17 20 -31.5 35t-29.5 24.5t-32.5 14.5t-41.5 5q-30 0 -54 -10l-81 187q33 15 66.5 23.5t68.5 8.5q61 0 106 -15t79.5 -38.5t59.5 -50.5
t45 -51q25 -26 55 -75q26 -42 60.5 -114.5t74.5 -186.5q15 42 36 98t50.5 115t67.5 116t86 102t107 72.5t130 27.5t133 -27.5t108.5 -75t73.5 -110.5t27 -134v-512q0 -86 34 -162q28 37 56.5 73t46.5 56q62 66 141 104t167 38q78 0 146.5 -30.5t119.5 -83t80.5 -121.5
t29.5 -147q0 -77 -29.5 -145.5t-80.5 -119.5t-119.5 -81t-146.5 -30q-106 0 -210 39t-193 111l-163 -214q-34 -45 -70.5 -72.5t-72.5 -42.5t-69.5 -20t-60.5 -5h-150zM1599 104q61 -54 134.5 -80t145.5 -26q35 0 66.5 12.5t55 34t37 52t13.5 66.5q0 35 -13.5 66t-37 54
t-55 36.5t-66.5 13.5q-57 0 -96.5 -22.5t-63.5 -48.5q-8 -9 -21.5 -26t-29.5 -38.5t-34 -45.5t-35 -48z" />
    <glyph glyph-name="uni2652" unicode="&#x2652;" horiz-adv-x="2244" 
d="M1464 -33q-23 0 -43.5 10t-35.5 27l-263 317l-263 -317q-15 -18 -36 -26.5t-43 -8.5q-23 0 -43.5 8.5t-35.5 26.5l-263 317l-280 -332l-158 130l359 428q13 17 35 27t44 10q24 0 44.5 -10.5t34.5 -26.5l263 -317l263 317q15 17 35.5 26t43.5 9q22 0 43 -9t36 -26
l263 -317l263 317q14 17 35 27t44 10q24 0 44.5 -10t34.5 -27l359 -428l-158 -130l-280 332l-263 -317q-15 -17 -35 -27t-44 -10zM1464 788q-23 0 -44 10t-35 27l-263 315l-263 -315q-15 -18 -36 -27t-44 -9q-22 0 -43 9t-35 27l-263 318l-280 -335l-158 133l359 425
q17 20 37 28.5t42 8.5q24 0 45 -9t34 -28l263 -314l263 314q15 17 35.5 26t43.5 9q22 0 43 -9t36 -26l263 -314l263 314q15 19 35.5 28t43.5 9q47 0 79 -37l359 -425l-158 -133l-280 335l-263 -318q-14 -20 -34.5 -28.5t-44.5 -8.5z" />
    <glyph glyph-name="uni2653" unicode="&#x2653;" horiz-adv-x="1454" 
d="M1446 909v-202h-305q17 -173 84.5 -330.5t180.5 -289.5l-155 -133q-139 158 -218 350t-96 403h-421q-17 -211 -97.5 -404.5t-219.5 -353.5l-155 136q115 131 183 290t85 332h-305v202h305q-17 174 -85 332.5t-183 289.5l152 136q141 -160 222 -353.5t98 -404.5h421
q17 211 97.5 404.5t221.5 353.5l153 -136q-115 -131 -183 -289.5t-85 -332.5h305z" />
    <glyph glyph-name="spade" unicode="&#x2660;" horiz-adv-x="1402" 
d="M924 0h-446v47q38 26 64.5 52t43.5 55.5t26 64t13 77.5v25q-47 -35 -103 -55t-118 -20q-77 0 -145 29t-118 79.5t-79 118t-29 144.5q0 69 22.5 130t64.5 109q5 6 10.5 12t23 23.5l52.5 52.5l97.5 97.5l159 159l237.5 237.5q140 -140 235.5 -235t157.5 -156.5t95.5 -95
l49.5 -49.5t19.5 -20t5.5 -6q56 -63 81 -126.5t25 -132.5q0 -77 -29 -144.5t-79.5 -118t-118 -79.5t-144.5 -29q-64 0 -120 20t-104 55v-25q4 -43 13.5 -77.5t27 -64t44.5 -55.5t65 -52v-47z" />
    <glyph glyph-name="uni2661" unicode="&#x2661;" horiz-adv-x="1402" 
d="M622 1062q-20 26 -45.5 50t-54 42.5t-59.5 29.5t-64 11q-60 0 -112.5 -22.5t-92 -61.5t-62.5 -91.5t-23 -112.5q0 -28 6 -64.5t26.5 -82.5t59 -101.5t104 -121.5t161.5 -142.5t231 -164.5q131 85 226.5 161.5t161.5 143.5t107 124.5t63.5 104t30 82.5t7.5 61
q0 60 -22.5 112.5t-61.5 91.5t-91.5 61.5t-112.5 22.5q-33 0 -65 -11t-60.5 -29.5t-54 -42.5t-45.5 -50h-158zM701 1123q26 34 59.5 65t72.5 55t82 38t90 14q80 0 151 -30.5t123.5 -83t83 -123.5t30.5 -151q0 -30 -8.5 -74t-34 -100t-73 -124t-124.5 -146.5t-189 -167
t-267 -184.5q-157 99 -269 187t-188.5 165t-122 143.5t-69.5 122t-31.5 100t-7.5 78.5q0 80 31 151t84 123.5t124 83t151 30.5q46 0 89 -14t81.5 -38t72 -55t59.5 -65z" />
    <glyph glyph-name="uni2662" unicode="&#x2662;" horiz-adv-x="1402" 
d="M701 1272l-553 -553l553 -553l553 553zM1396 719l-695 -695l-695 695l695 695z" />
    <glyph glyph-name="club" unicode="&#x2663;" horiz-adv-x="1388" 
d="M1049 948q70 -5 131 -34t106 -76t71 -109.5t26 -133.5q0 -74 -28 -139.5t-76 -114t-112 -77t-137 -28.5q-80 0 -147 31.5t-118 83.5v-19q4 -41 13 -81t26.5 -77t43 -70t62.5 -58v-46h-429v44q36 26 61.5 59t42 70.5t26 77.5t13.5 81v19q-51 -52 -118.5 -83.5
t-145.5 -31.5q-74 0 -138.5 28.5t-112.5 77t-76 114t-28 139.5q0 71 26 133.5t71.5 109.5t107 76t131.5 34q-2 8 -2 13.5v13.5q0 74 28 138.5t76 112.5t112.5 76t138.5 28t138.5 -28t112.5 -76t76 -112.5t28 -138.5v-27z" />
    <glyph glyph-name="uni2664" unicode="&#x2664;" horiz-adv-x="1402" 
d="M995 -24h-584v181q16 11 30 21t25 21h-31q-89 0 -166.5 33.5t-135.5 91t-91 135t-33 165.5q0 77 27.5 148.5t72.5 126.5l593 596q75 -81 139 -144.5t118 -115t99.5 -93.5t85 -79t73 -71.5t64.5 -71.5q60 -72 88 -145t28 -151q0 -88 -33.5 -165.5t-91 -135t-135 -91
t-165.5 -33.5h-33q12 -11 25.5 -21t30.5 -21v-181zM905 109q-35 23 -59 46.5t-40 50.5t-24.5 58t-12.5 70v23q43 -32 94 -50t109 -18q74 0 135.5 28t106 76t69.5 112t25 136q0 26 -7.5 55.5t-22 59.5t-34 59t-43.5 53v1l-8.5 8.5l-18.5 18.5l-43 43t-83 82.5t-138 137
t-208 207.5l-214 -214l-144 -144t-88.5 -88t-47.5 -47t-21 -22t-9 -11q-38 -44 -58.5 -98.5t-20.5 -117.5q0 -69 26 -130t71.5 -106.5t107 -72t131.5 -26.5q56 0 106.5 18t92.5 50v-23q-3 -39 -11.5 -70t-23.5 -58t-39 -50.5t-58 -46.5v-42h403v42z" />
    <glyph glyph-name="heart" unicode="&#x2665;" horiz-adv-x="1402" 
d="M701 1123q26 34 59.5 65t72.5 55t82 38t90 14q80 0 151 -30.5t123.5 -83t83 -123.5t30.5 -151q0 -30 -8.5 -74t-34 -100t-73 -124t-124.5 -146.5t-189 -167t-267 -184.5q-157 99 -269 187t-188.5 165t-122 143.5t-69.5 122t-31.5 100t-7.5 78.5q0 80 31 151t84 123.5
t124 83t151 30.5q46 0 89 -14t81.5 -38t72 -55t59.5 -65z" />
    <glyph glyph-name="diamond" unicode="&#x2666;" horiz-adv-x="1402" 
d="M1396 719l-695 -695l-695 695l695 695z" />
    <glyph glyph-name="uni2667" unicode="&#x2667;" horiz-adv-x="1388" 
d="M694 1335q76 0 144 -26.5t120.5 -73.5t87 -110.5t43.5 -136.5q64 -17 118 -53t93.5 -86t62 -112t22.5 -131q0 -83 -31 -155.5t-85 -127.5t-126.5 -86.5t-154.5 -31.5q-16 0 -31.5 1t-31.5 3q11 -10 21.5 -19t24.5 -19v-172h-551v170q14 11 25.5 20.5t21.5 20.5
q-16 -2 -32.5 -3.5t-32.5 -1.5q-83 0 -155.5 31.5t-126.5 86.5t-85.5 127.5t-31.5 155.5q0 69 22 131t61.5 112t93.5 85.5t118 52.5q9 74 43.5 137.5t87.5 110.5t120.5 73.5t144.5 26.5zM1005 937q0 65 -24.5 121.5t-66.5 98.5t-98.5 66.5t-121.5 24.5t-121.5 -24.5
t-98.5 -66.5t-66.5 -98.5t-24.5 -121.5v-11t2 -12q-62 -4 -115.5 -29.5t-93 -66.5t-62.5 -95.5t-23 -116.5q0 -65 24.5 -121.5t66.5 -99.5t98.5 -67.5t121.5 -24.5q69 0 127.5 27.5t103.5 72.5v-17q-4 -35 -12 -70t-22.5 -67.5t-36.5 -61.5t-54 -52v-38h375v40
q-32 22 -54.5 50.5t-37.5 61t-23.5 67.5t-11.5 70v17q45 -45 104 -72.5t128 -27.5q64 0 120.5 24.5t98.5 67.5t66.5 99.5t24.5 121.5q0 62 -23 116.5t-62.5 95.5t-93 66.5t-114.5 29.5v23z" />
    <glyph glyph-name="uni2668" unicode="&#x2668;" horiz-adv-x="1764" 
d="M1280 548q76 -19 140.5 -46t110.5 -62t72 -77t26 -91q0 -53 -30 -97.5t-83 -80t-124.5 -63t-154.5 -45.5t-174 -27.5t-181 -9.5q-91 0 -181.5 9.5t-173.5 27.5t-155 45.5t-125 63t-83 80t-30 97.5q0 50 28.5 93t78.5 78.5t118 62.5t148 46q-20 20 -36 44t-22 56
q-1 5 -1 10v11q0 23 10 52.5t39 61.5q23 21 32 42t9 39v3q-1 14 -6.5 26t-11.5 20q-7 10 -16 18q-16 14 -16 35q0 11 5 21q12 21 33 21q9 0 17 -5q4 -2 21.5 -12t38 -28.5t39.5 -44.5t25 -59q1 -5 1 -9.5v-9.5q0 -24 -10.5 -54t-40.5 -63q-39 -44 -39 -79v-6
q0 -14 5.5 -25.5t11.5 -19.5q7 -10 16 -17l5 -6q48 7 99 12.5t102 8.5q-29 28 -51.5 63.5t-29.5 80.5q-3 16 -3 34q0 89 80 174q79 85 79 166v10q-3 30 -14.5 55t-25 42t-24 26.5t-11.5 9.5q-16 14 -16 36q0 11 5 21q12 20 34 20q5 0 9 -1t9 -3q3 -2 31 -18t62.5 -45.5
t65 -71.5t39.5 -95q3 -17 3 -32q0 -91 -81 -178q-78 -84 -78 -161q0 -10 1 -15q3 -42 22.5 -72.5t34.5 -47.5q45 -2 88.5 -6t86.5 -11q-11 14 -21 33.5t-15 42.5q-1 5 -1 9.5v9.5q0 23 10 53t42 62q38 41 38 79v6q-2 14 -7 26t-11 20q-7 10 -16 18q-16 13 -16 35q0 9 5 21
q12 21 32 21q9 0 19 -5q4 -2 21.5 -12t38.5 -28.5t39 -44.5t24 -59q1 -5 1 -10v-10q0 -24 -10.5 -53.5t-40.5 -62.5q-40 -45 -40 -80v-5q1 -14 6.5 -25t12 -19.5t12 -13t6.5 -4.5q2 -8 7.5 -14.5t10.5 -17.5zM858 85q14 0 24 11t10 28q0 16 -10 26.5t-24 10.5
q-115 0 -201.5 13t-144.5 31t-87.5 37t-29.5 31q0 3 5.5 11.5t21.5 19t44.5 23.5t74.5 25q13 3 20.5 13.5t7.5 24.5q0 5 -1 7q-9 30 -37 30h-6q-203 -55 -203 -154q0 -32 21.5 -58.5t59.5 -47.5t89.5 -36t111 -25.5t124.5 -15.5t130 -5zM1413 244q3 7 3.5 14t0.5 14
q0 11 -5 27.5t-25 36.5q-26 25 -72.5 45t-109 34t-138 21t-157.5 7q-35 0 -70.5 -1.5t-71.5 -3.5q-17 -3 -26.5 -15t-9.5 -28q2 -14 12 -24t24 -10h4q76 6 144 6q96 0 173.5 -10t133.5 -24.5t87.5 -31t35.5 -29.5q-3 -8 -3 -14q0 -11 5.5 -21.5t16.5 -15.5h14q23 0 34 23z
" />
    <glyph glyph-name="uni2672" unicode="&#x2672;" horiz-adv-x="1831" 
d="M687 965l222 382q-18 23 -39 33.5t-59 10.5q-19 0 -33.5 -4t-27 -13t-24 -24t-24.5 -37l-155 -259l100 11zM926 1391q14 -8 24.5 -20.5t18.5 -26.5l324 -563l-59 -31l192 -27l75 180l-64 -38l-259 455q-8 14 -18.5 27t-24 22.5t-31 15.5t-41.5 6h-137zM616 1012l-159 -15
l203 342q29 48 63.5 71.5t86.5 23.5h261q31 0 53.5 -5.5t39.5 -17t31 -28.5t27 -39l234 -411l110 64l16 -30l-125 -299l-313 44l-17 31l97 56l-287 499l-255 -437zM1403 577l188 -332q51 8 76 37.5t25 69.5q0 22 -6.5 44t-17.5 43l-114 208l-36 -87zM1622 201
q-15 -7 -37 -9.5t-48 -2.5h-625v68l-116 -152l116 -156v74h522q22 0 39 2t31.5 9t27 18.5t25.5 31.5zM1493 607l62 140l154 -288q15 -29 21.5 -54.5t6.5 -48.5t-5 -42.5t-13 -32.5l-126 -226q-26 -46 -65.5 -63.5t-92.5 -17.5h-473v-128h-36l-197 258l197 250h36v-115h577
l-225 392zM662 189h-372q-10 -29 -10 -56q0 -58 39 -84.5t103 -26.5h236l-69 84zM235 167q4 44 29 83l299 499l71 -40l-82 190l-208 -26l74 -42l-253 -411q-11 -21 -17.5 -38t-6.5 -34q0 -14 4.5 -29t16.5 -36zM649 105l98 -131h-326q-49 0 -91 14.5t-71 59.5l-140 218
q-25 39 -25 83q0 48 27 93l230 373l-108 61l14 29l323 45l119 -294l-13 -24l-103 56l-270 -449h445z" />
    <glyph glyph-name="uni2673" unicode="&#x2673;" horiz-adv-x="1801" 
d="M979 417h-119v406q-11 -10 -26 -19.5t-31 -18t-31.5 -14t-27.5 -7.5v98q45 14 81 34t71 47h83v-526zM912 -197h-5l-194 266l194 263h5v-195h538q63 0 91.5 25.5t28.5 67.5q0 32 -12 66.5t-43 87.5l-97 163l117 71l109 -187q31 -53 47 -105t16 -100t-16 -89t-48 -71.5
t-80 -48t-113 -17.5h-540zM237 947l3 6l328 30l128 -298l-2 -3l-165 98l-269 -464q-14 -25 -20.5 -43.5t-6.5 -35.5q0 -54 34.5 -77t110.5 -23h254v-137h-254q-61 0 -113 13.5t-90 41t-59.5 70.5t-21.5 103q0 35 11.5 74.5t37.5 83.5l268 465zM1572 950l3 -5l-132 -303
l-321 31l-2 5l165 98l-262 442q-30 50 -53 73.5t-59 23.5q-37 0 -63 -23t-55 -72l-128 -216l-116 71l128 214q26 43 50.5 75t51.5 53t59 31t74 10q38 0 69 -10.5t58 -31.5t51 -53t50 -75l261 -441z" />
    <glyph glyph-name="uni2674" unicode="&#x2674;" horiz-adv-x="1801" 
d="M751 899q27 25 70 36.5t82 11.5q45 0 77.5 -11.5t54 -32t32 -48t10.5 -59.5q0 -65 -32.5 -111.5t-83.5 -74.5q-41 -23 -66 -43t-25 -48h202v-102h-345v27q0 37 7 68.5t23.5 59t43 52t64.5 47.5q22 13 38.5 24.5t28 24t17 27t5.5 34.5q0 10 -2.5 21.5t-10 21.5t-21.5 16
t-38 6q-38 0 -71.5 -17t-59.5 -35v105zM912 -197h-5l-194 266l194 263h5v-195h538q63 0 91.5 25.5t28.5 67.5q0 32 -12 66.5t-43 87.5l-97 163l117 71l109 -187q31 -53 47 -105t16 -100t-16 -89t-48 -71.5t-80 -48t-113 -17.5h-540zM237 947l3 6l328 30l128 -298l-2 -3
l-165 98l-269 -464q-14 -25 -20.5 -43.5t-6.5 -35.5q0 -54 34.5 -77t110.5 -23h254v-137h-254q-61 0 -113 13.5t-90 41t-59.5 70.5t-21.5 103q0 35 11.5 74.5t37.5 83.5l268 465zM1572 950l3 -5l-132 -303l-321 31l-2 5l165 98l-262 442q-30 50 -53 73.5t-59 23.5
q-37 0 -63 -23t-55 -72l-128 -216l-116 71l128 214q26 43 50.5 75t51.5 53t59 31t74 10q38 0 69 -10.5t58 -31.5t51 -53t50 -75l261 -441z" />
    <glyph glyph-name="uni2675" unicode="&#x2675;" horiz-adv-x="1801" 
d="M912 -197h-5l-194 266l194 263h5v-195h538q63 0 91.5 25.5t28.5 67.5q0 32 -12 66.5t-43 87.5l-97 163l117 71l109 -187q31 -53 47 -105t16 -100t-16 -89t-48 -71.5t-80 -48t-113 -17.5h-540zM237 947l3 6l328 30l128 -298l-2 -3l-165 98l-269 -464q-14 -25 -20.5 -43.5
t-6.5 -35.5q0 -54 34.5 -77t110.5 -23h254v-137h-254q-61 0 -113 13.5t-90 41t-59.5 70.5t-21.5 103q0 35 11.5 74.5t37.5 83.5l268 465zM1572 950l3 -5l-132 -303l-321 31l-2 5l165 98l-262 442q-30 50 -53 73.5t-59 23.5q-37 0 -63 -23t-55 -72l-128 -216l-116 71l128 214
q26 43 50.5 75t51.5 53t59 31t74 10q38 0 69 -10.5t58 -31.5t51 -53t50 -75l261 -441zM741 544q59 -41 125 -41q43 0 65 17t22 48q0 32 -28 50t-79 18h-51v95h47q95 0 95 63q0 57 -71 57q-50 0 -105 -38v103q55 29 131 29q79 0 124 -36.5t45 -95.5q0 -94 -88 -126
q50 -11 77 -43t27 -78q0 -72 -54 -115t-148 -43q-84 0 -134 25v111z" />
    <glyph glyph-name="uni2676" unicode="&#x2676;" horiz-adv-x="1801" 
d="M1038 937v-323h62v-87h-62v-110h-111v110h-225v84q71 77 127 160.5t94 165.5h115zM927 614v176q-12 -23 -28.5 -49t-34 -50t-34.5 -44.5t-29 -32.5h126zM1572 950l3 -5l-132 -303l-321 31l-2 5l165 98l-262 442q-30 50 -53 73.5t-59 23.5q-37 0 -63 -23t-55 -72
l-128 -216l-116 71l128 214q26 43 50.5 75t51.5 53t59 31t74 10q38 0 69 -10.5t58 -31.5t51 -53t50 -75l261 -441zM237 947l3 6l328 30l128 -298l-2 -3l-165 98l-269 -464q-14 -25 -20.5 -43.5t-6.5 -35.5q0 -54 34.5 -77t110.5 -23h254v-137h-254q-61 0 -113 13.5t-90 41
t-59.5 70.5t-21.5 103q0 35 11.5 74.5t37.5 83.5l268 465zM912 -197h-5l-194 266l194 263h5v-195h538q63 0 91.5 25.5t28.5 67.5q0 32 -12 66.5t-43 87.5l-97 163l117 71l109 -187q31 -53 47 -105t16 -100t-16 -89t-48 -71.5t-80 -48t-113 -17.5h-540z" />
    <glyph glyph-name="uni2677" unicode="&#x2677;" horiz-adv-x="1801" 
d="M912 -197h-5l-194 266l194 263h5v-195h538q63 0 91.5 25.5t28.5 67.5q0 32 -12 66.5t-43 87.5l-97 163l117 71l109 -187q31 -53 47 -105t16 -100t-16 -89t-48 -71.5t-80 -48t-113 -17.5h-540zM237 947l3 6l328 30l128 -298l-2 -3l-165 98l-269 -464q-14 -25 -20.5 -43.5
t-6.5 -35.5q0 -54 34.5 -77t110.5 -23h254v-137h-254q-61 0 -113 13.5t-90 41t-59.5 70.5t-21.5 103q0 35 11.5 74.5t37.5 83.5l268 465zM1572 950l3 -5l-132 -303l-321 31l-2 5l165 98l-262 442q-30 50 -53 73.5t-59 23.5q-37 0 -63 -23t-55 -72l-128 -216l-116 71l128 214
q26 43 50.5 75t51.5 53t59 31t74 10q38 0 69 -10.5t58 -31.5t51 -53t50 -75l261 -441zM741 539q30 -17 59 -26.5t58 -9.5q44 0 67 20t23 54q0 37 -24.5 54.5t-78.5 17.5q-38 0 -89 -6l24 294h268v-101h-179l-9 -94l4 1q9 1 18.5 1.5t17.5 0.5q81 0 126.5 -42.5t45.5 -115.5
q0 -42 -17.5 -75t-45.5 -56.5t-64.5 -35.5t-73.5 -12q-46 0 -75 7t-55 18v106z" />
    <glyph glyph-name="uni2678" unicode="&#x2678;" horiz-adv-x="1801" 
d="M912 -197h-5l-194 266l194 263h5v-195h538q63 0 91.5 25.5t28.5 67.5q0 32 -12 66.5t-43 87.5l-97 163l117 71l109 -187q31 -53 47 -105t16 -100t-16 -89t-48 -71.5t-80 -48t-113 -17.5h-540zM237 947l3 6l328 30l128 -298l-2 -3l-165 98l-269 -464q-14 -25 -20.5 -43.5
t-6.5 -35.5q0 -54 34.5 -77t110.5 -23h254v-137h-254q-61 0 -113 13.5t-90 41t-59.5 70.5t-21.5 103q0 35 11.5 74.5t37.5 83.5l268 465zM1572 950l3 -5l-132 -303l-321 31l-2 5l165 98l-262 442q-30 50 -53 73.5t-59 23.5q-37 0 -63 -23t-55 -72l-128 -216l-116 71l128 214
q26 43 50.5 75t51.5 53t59 31t74 10q38 0 69 -10.5t58 -31.5t51 -53t50 -75l261 -441zM1063 824q-23 13 -45.5 20t-44.5 7q-51 0 -84 -38t-36 -104q20 24 45 34.5t57 10.5q67 0 106 -44.5t39 -119.5q0 -39 -15 -72.5t-39.5 -57.5t-57.5 -38t-69 -14q-89 0 -139 63.5
t-50 177.5q0 57 14 110.5t43.5 94.5t74 66t104.5 25q63 0 97 -14v-107zM919 662q-31 0 -48 -21t-17 -53q0 -35 18 -60t47 -25q28 0 45 22.5t17 57.5q0 79 -62 79z" />
    <glyph glyph-name="uni2679" unicode="&#x2679;" horiz-adv-x="1801" 
d="M1099 879q-68 -106 -114 -218t-67 -244h-128q9 61 25.5 115.5t39.5 105t52 99.5t63 99h-237v101h366v-58zM912 -197h-5l-194 266l194 263h5v-195h538q63 0 91.5 25.5t28.5 67.5q0 32 -12 66.5t-43 87.5l-97 163l117 71l109 -187q31 -53 47 -105t16 -100t-16 -89
t-48 -71.5t-80 -48t-113 -17.5h-540zM237 947l3 6l328 30l128 -298l-2 -3l-165 98l-269 -464q-14 -25 -20.5 -43.5t-6.5 -35.5q0 -54 34.5 -77t110.5 -23h254v-137h-254q-61 0 -113 13.5t-90 41t-59.5 70.5t-21.5 103q0 35 11.5 74.5t37.5 83.5l268 465zM1572 950l3 -5
l-132 -303l-321 31l-2 5l165 98l-262 442q-30 50 -53 73.5t-59 23.5q-37 0 -63 -23t-55 -72l-128 -216l-116 71l128 214q26 43 50.5 75t51.5 53t59 31t74 10q38 0 69 -10.5t58 -31.5t51 -53t50 -75l261 -441z" />
    <glyph glyph-name="uni267A" unicode="&#x267a;" horiz-adv-x="1801" 
d="M912 -197h-5l-194 266l194 263h5v-195h538q63 0 91.5 25.5t28.5 67.5q0 32 -12 66.5t-43 87.5l-97 163l117 71l109 -187q31 -53 47 -105t16 -100t-16 -89t-48 -71.5t-80 -48t-113 -17.5h-540zM237 947l3 6l328 30l128 -298l-2 -3l-165 98l-269 -464q-14 -25 -20.5 -43.5
t-6.5 -35.5q0 -54 34.5 -77t110.5 -23h254v-137h-254q-61 0 -113 13.5t-90 41t-59.5 70.5t-21.5 103q0 35 11.5 74.5t37.5 83.5l268 465zM1572 950l3 -5l-132 -303l-321 31l-2 5l165 98l-262 442q-30 50 -53 73.5t-59 23.5q-37 0 -63 -23t-55 -72l-128 -216l-116 71l128 214
q26 43 50.5 75t51.5 53t59 31t74 10q38 0 69 -10.5t58 -31.5t51 -53t50 -75l261 -441z" />
    <glyph glyph-name="uni267B" unicode="&#x267b;" horiz-adv-x="1806" 
d="M980 1228q-36 -9 -69.5 -26.5t-62.5 -41.5t-52.5 -55t-38.5 -67l-371 154q11 45 40 90t72 90q24 25 53.5 47.5t60.5 39t62 26.5t59 10q7 0 14.5 -0.5t14.5 -1.5l423 -65q46 -5 86.5 -40.5t70 -86.5t46.5 -110.5t17 -110.5q0 -20 -3 -38l158 -10l-357 -328l-314 372
l137 -9q-5 37 -15.5 77t-30.5 84zM1591 840q24 -25 42.5 -56t31.5 -62.5t21 -62t13 -55.5q4 -23 6 -45.5t2 -43.5q0 -42 -6.5 -78.5t-22.5 -63.5q-5 -9 -20 -30l-35 -49t-44.5 -61t-48.5 -66q-57 -77 -126 -170q-35 -40 -92.5 -59t-120.5 -19q-61 0 -118 17t-96 49l-86 -140
l-104 483l466 109l-74 -119q63 -30 157 -39q7 23 9.5 45t2.5 45q0 57 -16.5 109.5t-47.5 96.5zM549 417l-58 129q-61 -42 -115 -121q52 -55 111.5 -82.5t131.5 -27.5h11t13 1l54 -413q-27 -8 -62 -8q-48 0 -106.5 13.5t-113.5 41t-98.5 68.5t-61.5 95q-1 2 -7.5 20t-17 46.5
t-24 64.5t-26.5 74q-32 87 -71 198q-2 12 -3.5 24.5t-1.5 26.5q0 49 19 101.5t50.5 99t72 82t82.5 50.5l-70 150l451 -166z" />
    <glyph glyph-name="uni267C" unicode="&#x267c;" horiz-adv-x="1670" 
d="M94 717q0 102 25 197t72 177t113.5 150t148.5 116t178.5 74.5t203.5 26.5t203.5 -26.5t178.5 -74.5t148.5 -116t113.5 -150t72 -177t25 -197t-25 -197t-72 -177t-113.5 -150t-148.5 -116t-178.5 -74.5t-203.5 -26.5t-203.5 26.5t-178.5 74.5t-148.5 116t-113.5 150
t-72 177t-25 197zM756 1284q35 -1 53 -13.5t32 -38.5l222 -382l-62 -36l183 -28l68 174l-64 -38l-177 310q-15 26 -33.5 39t-53.5 13h-168zM673 921l162 279l-12 22q-23 41 -67 41q-26 0 -43.5 -11.5t-36.5 -43.5l-123 -208l86 10zM1380 511q-19 -31 -42 -39t-45 -8h-446v71
l-116 -142l116 -146v72h359q30 0 50.5 7t37.5 37zM1214 743l-99 14l158 -272h20q43 0 62.5 24t19.5 57q0 18 -5.5 36t-14.5 35l-109 191zM386 346q-7 17 -9.5 25.5t-2.5 19.5q0 17 4.5 31t9.5 22l228 387l60 -36l-64 170l-183 -27l63 -37l-185 -307q-16 -26 -16 -51
q0 -23 14 -47zM677 392l58 72h-310l-16 -28q-7 -12 -9 -23t-2 -21q0 -38 24.5 -55.5t57.5 -17.5h255z" />
    <glyph glyph-name="uni267D" unicode="&#x267d;" horiz-adv-x="1670" 
d="M94 717q0 102 25 197t72 177t113.5 150t148.5 116t178.5 74.5t203.5 26.5t203.5 -26.5t178.5 -74.5t148.5 -116t113.5 -150t72 -177t25 -197t-25 -197t-72 -177t-113.5 -150t-148.5 -116t-178.5 -74.5t-203.5 -26.5t-203.5 26.5t-178.5 74.5t-148.5 116t-113.5 150
t-72 177t-25 197zM194 717q0 -90 23 -173.5t65 -156t101 -131.5t130 -101.5t152.5 -65.5t169.5 -23q143 0 261 51t202.5 139.5t131 207t46.5 253.5t-46.5 253.5t-131 207t-202.5 139.5t-261 51q-131 0 -247.5 -51t-204 -139.5t-138.5 -207t-51 -253.5zM924 1284
q35 0 53.5 -13t33.5 -39l177 -310l64 38l-68 -174l-183 28l62 36l-222 382q-14 26 -32 38.5t-53 13.5h168zM639 1010l-86 -10l123 208q19 32 36.5 43.5t43.5 11.5q44 0 67 -41l12 -22l-162 -279zM1294 363q-17 -30 -37.5 -37t-50.5 -7h-359v-72l-116 146l116 142v-71h446
q22 0 45 8t42 39zM1246 828l109 -191q9 -17 14.5 -35t5.5 -36q0 -33 -19.5 -57t-62.5 -24h-20l-158 272l99 -14zM305 496q-14 24 -14 47q0 25 16 51l185 307l-63 37l183 27l64 -170l-60 36l-228 -387q-5 -8 -9.5 -22t-4.5 -31q0 -11 2.5 -19.5t9.5 -25.5zM735 319h-255
q-33 0 -57.5 17.5t-24.5 55.5q0 10 2 21t9 23l16 28h310l-58 -72z" />
    <glyph glyph-name="uni267F" unicode="&#x267f;" horiz-adv-x="1324" 
d="M619 1312q0 -28 -10.5 -53t-29 -43.5t-43.5 -29t-53 -10.5q-29 0 -53.5 10.5t-42.5 29t-28.5 43.5t-10.5 53t10.5 53t28.5 44t42.5 30t53.5 11q28 0 53 -11t43.5 -30t29 -44t10.5 -53zM580 81q54 0 104 17.5t91 48.5t71.5 73.5t45.5 92.5l99 -172q-33 -51 -77.5 -92
t-97 -70t-112.5 -45t-124 -16q-102 0 -192 38.5t-157 105.5t-106 156.5t-39 191.5q0 67 17.5 129t49 116t75.5 99t98 78l49 -167q-57 -45 -90.5 -111t-33.5 -144q0 -68 26 -128t71 -104.5t104.5 -70.5t127.5 -26zM1252 177q11 -20 11 -40q0 -23 -12 -42t-30 -30
q-19 -11 -42 -11q-25 0 -43.5 12.5t-26.5 29.5l-209 368h-281q-45 0 -82 25.5t-47 73.5l-111 383q-3 10 -4 19.5t-1 18.5q0 45 27 81t73 49q9 3 18.5 4t18.5 1q45 0 81.5 -26.5t50.5 -71.5q4 -16 9 -34q5 -16 10.5 -37.5t13.5 -46.5h232q22 0 37.5 -17t15.5 -40
q0 -22 -15.5 -39.5t-37.5 -17.5h-201q8 -32 16.5 -60.5t15.5 -51.5q8 -26 14 -49h194q23 0 44 -11.5t29 -29.5z" />
    <glyph glyph-name="uni2693" unicode="&#x2693;" horiz-adv-x="1401" 
d="M1328 411q23 0 39.5 -16.5t16.5 -40.5v-167q0 -23 -16.5 -39.5t-39.5 -16.5q-22 0 -38.5 16.5t-16.5 39.5v40q-47 -74 -109 -133t-136 -100.5t-157.5 -64t-171.5 -22.5t-171 22.5t-157 64t-137 100.5t-110 133v-40q0 -23 -15.5 -39.5t-37.5 -16.5q-23 0 -39 16.5
t-16 39.5v167q0 24 16 40.5t39 16.5h163q23 0 39 -16.5t16 -40.5q0 -23 -16 -39t-39 -16h-23q35 -60 83 -109t106 -84q37 -17 72 -17q33 0 59.5 14.5t44.5 37t28 49t10 51.5v676h-218v115h301q-45 0 -84.5 17t-69 46.5t-46.5 69.5t-17 86q0 47 17.5 88.5t47 72t69.5 48.5
t85 18q46 0 85.5 -18t69 -48.5t46.5 -72t17 -88.5q0 -46 -16.5 -86t-45.5 -69.5t-68.5 -46.5t-85.5 -17h301v-115h-218v-676q0 -25 9.5 -51.5t28 -48.5t45.5 -36.5t61 -14.5q16 0 34 3.5t38 12.5q57 33 105 83t84 110h-25q-23 0 -38.5 17t-15.5 40t15.5 39t38.5 16h164z
M699 1141q23 0 43 9t35 24t23.5 35t8.5 42q0 24 -8.5 45t-23.5 36t-35 24t-43 9t-42.5 -9t-34 -24t-23 -36t-8.5 -45q0 -22 8.5 -42t23.5 -35t34.5 -24t41.5 -9z" />
    <glyph glyph-name="uni26A0" unicode="&#x26a0;" horiz-adv-x="1764" 
d="M1693 -62h-1626q-17 0 -30.5 10t-21.5 24t-8 30q0 15 8 31l812 1442q8 14 22 21t30 7t30 -7t22 -21l814 -1442q8 -16 8 -31q0 -16 -8 -30t-21.5 -24t-30.5 -10zM171 66h1416l-708 1254zM972 430h-186v555h186v-555zM1000 248q0 -26 -9.5 -48t-26 -38.5t-38.5 -26
t-47 -9.5t-47 9.5t-38 26t-25 38.5t-9 48q0 25 9 48t25 39.5t38 26.5t47 10t47 -10t38.5 -26.5t26 -39.5t9.5 -48z" />
    <glyph glyph-name="uni26A1" unicode="&#x26a1;" horiz-adv-x="934" 
d="M125 774l759 684l27 -24l-554 -620l487 -110l2 -47l-800 -682l-23 25l576 622l-474 104v48z" />
    <glyph glyph-name="uni26A2" unicode="&#x26a2;" horiz-adv-x="1637" 
d="M1394 193h-223v-223h-193v223h-134v194h134v125q-42 8 -84 24t-77 37q-37 -22 -76 -36t-79 -23v-127h133v-194h-133v-223h-193v223h-224v194h224v125q-86 16 -160 60t-128.5 108t-85.5 145t-31 171q0 101 40 190.5t108 156.5t159 106t192 39q68 0 133 -19t122 -52
q57 33 121 52t133 19q101 0 192 -39t159.5 -106t109 -156.5t40.5 -190.5q0 -90 -31 -170.5t-85 -144.5t-127.5 -108t-158.5 -60v-126h223v-194zM264 996q0 -66 23 -121.5t63.5 -96t95 -63.5t117.5 -23q54 0 104 18q-94 122 -94 286q0 85 22 154t71 132q-50 18 -103 18
q-63 0 -117.5 -23t-95 -63.5t-63.5 -96t-23 -121.5zM1064 996q0 -83 -24 -153.5t-72 -132.5q48 -18 104 -18q63 0 117.5 23t95.5 63.5t64.5 96t23.5 121.5t-23.5 121.5t-64.5 96t-95.5 63.5t-117.5 23q-27 0 -53 -5t-50 -13q46 -61 70.5 -133t24.5 -153zM743 996
q0 -64 20 -118.5t55 -98.5q35 44 55.5 98.5t20.5 118.5q0 63 -20.5 118t-55.5 98q-35 -43 -55 -98t-20 -118z" />
    <glyph glyph-name="uni26A3" unicode="&#x26a3;" horiz-adv-x="1789" 
d="M64 804q0 101 40 190.5t108 156.5t159 106t192 39q72 0 140.5 -20.5t127.5 -56.5l225 225q-28 -1 -56 -1h-53l-165 165l545 -9l21 -21l7 -341q84 -2 171 -2.5t169 -2.5l21 -21l10 -545l-165 165l1 112l-223 -223q43 -61 68 -132.5t25 -150.5q0 -101 -40.5 -190.5
t-109 -156.5t-159.5 -106t-192 -39q-88 0 -167.5 29t-144 80t-110 121t-64.5 151q-81 20 -150.5 64.5t-120.5 107.5t-80.5 141t-29.5 165zM682.5 263q27.5 -40 65.5 -69t84.5 -45t98.5 -16q63 0 117.5 23t95.5 63.5t64.5 96t23.5 121.5q0 48 -13 90.5t-36.5 78.5t-56 64
t-71.5 45q-15 -80 -55 -149t-97.5 -122t-130.5 -86.5t-119 -38.5q2 -16 29.5 -56zM264 804q0 -48 13 -91.5t36 -79.5t55.5 -63.5t71.5 -44.5q15 75 51 141t89 118t120 87.5t142 49.5q-17 42 -45 76.5t-64 59t-79 38t-91 13.5q-63 0 -117.5 -23t-95 -63.5t-63.5 -96
t-23 -121.5zM1194 1310l-223 -223q30 -41 48.5 -81.5t30.5 -91.5q40 -10 77 -25t72 -37l225 225q-28 -1 -56 -1h-53l-122 122zM892 768q-58 -6 -108 -30.5t-88.5 -63.5t-62.5 -90.5t-30 -111.5q58 7 108 31.5t88.5 63.5t62.5 90t30 111z" />
    <glyph glyph-name="uni26A4" unicode="&#x26a4;" horiz-adv-x="1789" 
d="M885 -326h-223v-175h-193v175h-224v194h224v86q-86 16 -160 59.5t-128.5 107.5t-85.5 145t-31 171q0 86 29.5 163.5t80.5 140.5t120.5 108t150.5 65q20 82 65.5 152t109.5 121t143.5 80t167.5 29q72 0 140.5 -20.5t127.5 -56.5l225 225q-28 -1 -56 -1h-53l-165 165
l545 -9l21 -21l10 -545l-165 165l1 112l-223 -223q43 -61 68 -132.5t25 -150.5q0 -86 -29.5 -163.5t-80.5 -140.5t-121 -107.5t-151 -64.5q-16 -71 -52 -132.5t-86.5 -110t-114 -82t-135.5 -48.5v-87h223v-194zM1232 804q0 66 -23.5 121.5t-64.5 96t-95.5 63.5t-117.5 23
q-47 0 -90.5 -13.5t-79.5 -38.5t-64 -59.5t-44 -76.5q76 -14 142.5 -49t119.5 -86.5t89 -117.5t51 -141q79 35 128 108t49 170zM264 437q0 -66 23 -121.5t63.5 -96t95 -63.5t117.5 -23q48 0 91.5 13.5t80 38t64 59t44.5 76.5q-77 13 -144 48t-119.5 87t-88.5 118t-51 142
q-39 -17 -71.5 -44.5t-56 -63t-36 -79t-12.5 -91.5zM892 472q-6 60 -30 111t-62.5 90t-88.5 63.5t-108 31.5q6 -60 30 -111.5t62.5 -90.5t88.5 -63.5t108 -30.5z" />
    <glyph glyph-name="uni26A5" unicode="&#x26a5;" horiz-adv-x="1421" 
d="M64 718q0 101 40 190.5t108 156.5t159 106t192 39q72 0 140.5 -20.5t127.5 -56.5l225 225q-28 -1 -56 -1h-53l-165 165l545 -9l21 -21l10 -545l-165 165l1 112l-223 -223q43 -61 68 -132.5t25 -150.5q0 -90 -31 -170.5t-85 -144.5t-127.5 -108t-158.5 -60v-126h223v-194
h-223v-223h-193v223h-224v194h224v125q-86 16 -160 60t-128.5 108t-85.5 145t-31 171zM264 718q0 -66 23 -121.5t63.5 -96t95 -63.5t117.5 -23t117.5 23t95.5 63.5t64.5 96t23.5 121.5t-23.5 121.5t-64.5 96t-95.5 63.5t-117.5 23t-117.5 -23t-95 -63.5t-63.5 -96
t-23 -121.5z" />
    <glyph glyph-name="uni26A6" unicode="&#x26a6;" horiz-adv-x="1421" 
d="M64 438q0 101 40 190.5t108 156.5t159 106t192 39q72 0 140.5 -20.5t127.5 -56.5l25 25l-186 186l123 125l188 -186l125 125q-28 -1 -56 -1h-53l-165 165l545 -9l21 -21l10 -545l-165 165l1 112l-126 -126l190 -187l-127 -126l-189 187l-21 -21q43 -61 68 -132.5
t25 -150.5q0 -101 -40.5 -190.5t-109 -156.5t-159.5 -106t-192 -39t-192 39t-159 106t-108 156.5t-40 190.5zM264 438q0 -66 23 -121.5t63.5 -96t95 -63.5t117.5 -23t117.5 23t95.5 63.5t64.5 96t23.5 121.5t-23.5 121.5t-64.5 96t-95.5 63.5t-117.5 23t-117.5 -23
t-95 -63.5t-63.5 -96t-23 -121.5z" />
    <glyph glyph-name="uni26A7" unicode="&#x26a7;" horiz-adv-x="1585" 
d="M796 1353l-215 -151q5 -6 9.5 -12t12.5 -17q44 17 91 27t97 10q51 0 98 -10t91 -28q53 76 103 147.5t106 151.5q-28 -5 -55 -10t-52 -10l-192 134l527 84l33 -2l108 -549l-192 134l-18 108q-23 -33 -49 -70t-52.5 -75.5l-53 -77t-50.5 -72.5q66 -67 107.5 -156.5
t41.5 -190.5q0 -90 -31 -170.5t-85 -144.5t-127.5 -108t-158.5 -60v-126h223v-194h-223v-223h-193v223h-224v194h224v125q-86 16 -160 60t-128.5 108t-85.5 145t-31 171q0 103 40 192.5t109 156.5l-18 25q-52 -36 -110.5 -77t-107.5 -75l-104 148l219 151q-17 25 -39 57.5
t-47 67.5q-5 -27 -9.5 -55.5t-8.5 -52.5l-192 -135l108 549l33 2l527 -84l-192 -134l-107 20q7 -10 18 -26t23 -33.5l24 -35t21 -30.5q52 36 111.5 76t107.5 74zM492 718q0 -66 23 -121.5t63.5 -96t95 -63.5t117.5 -23t117.5 23t95.5 63.5t64.5 96t23.5 121.5t-23.5 121.5
t-64.5 96t-95.5 63.5t-117.5 23t-117.5 -23t-95 -63.5t-63.5 -96t-23 -121.5z" />
    <glyph glyph-name="uni26A8" unicode="&#x26a8;" horiz-adv-x="1128" 
d="M64 438q0 90 31 171t85.5 145t128.5 107.5t160 59.5v47h-267v175h267v147q-21 -20 -41.5 -40.5l-38.5 -38.5h-235l409 393l406 -393h-233l-78 80v-148h265v-175h-265v-47q85 -16 159.5 -60t129 -108t86 -144.5t31.5 -170.5q0 -101 -40.5 -190.5t-109 -156.5t-159.5 -106
t-192 -39t-192 39t-159 106t-108 156.5t-40 190.5zM264 438q0 -66 23 -121.5t63.5 -96t95 -63.5t117.5 -23t117.5 23t95.5 63.5t64.5 96t23.5 121.5t-23.5 121.5t-64.5 96t-95.5 63.5t-117.5 23t-117.5 -23t-95 -63.5t-63.5 -96t-23 -121.5z" />
    <glyph glyph-name="uni26A9" unicode="&#x26a9;" horiz-adv-x="1728" 
d="M1265 1078v-268h147q-20 21 -40.5 41.5l-38.5 38.5v235l393 -409l-393 -406v233l80 78h-148v-265h-175v265h-35q-16 -85 -60 -157.5t-109 -125t-147.5 -82.5t-175.5 -30q-106 0 -197 39t-158 106t-105.5 156.5t-38.5 190.5t40 190.5t108 156.5t159 106t192 39
q90 0 172 -30.5t147.5 -84t110.5 -127t62 -158.5h35v267zM264 718q0 -66 23 -121.5t63.5 -96t95 -63.5t117.5 -23t117.5 23t95.5 63.5t64.5 96t23.5 121.5t-23.5 121.5t-64.5 96t-95.5 63.5t-117.5 23t-117.5 -23t-95 -63.5t-63.5 -96t-23 -121.5z" />
    <glyph glyph-name="uni26AA" unicode="&#x26aa;" horiz-adv-x="1726" 
d="M1496 732q0 -131 -50 -245t-136 -198t-201 -132.5t-246 -48.5t-246 48.5t-201 132.5t-136 198t-50 245t50 244.5t136 197.5t201 132.5t246 48.5t246 -48.5t201 -132.5t136 -197.5t50 -244.5zM1346 732q0 103 -36.5 192.5t-101.5 155.5t-153.5 104t-191.5 38
q-104 0 -192 -38t-153 -104t-101.5 -155.5t-36.5 -192.5q0 -104 36.5 -193.5t101.5 -155.5t153 -104t192 -38q103 0 191.5 38t153.5 104t101.5 155.5t36.5 193.5z" />
    <glyph glyph-name="uni26AB" unicode="&#x26ab;" horiz-adv-x="1726" 
d="M1496 732q0 -131 -50 -245t-136 -198t-201 -132.5t-246 -48.5t-246 48.5t-201 132.5t-136 198t-50 245t50 244.5t136 197.5t201 132.5t246 48.5t246 -48.5t201 -132.5t136 -197.5t50 -244.5z" />
    <glyph glyph-name="uni26BD" unicode="&#x26bd;" horiz-adv-x="1847" 
d="M922 1552q114 0 221 -30t199 -84t168 -130t130.5 -168t84.5 -198.5t30 -221.5t-30 -221t-84.5 -198.5t-130.5 -168t-168 -129.5t-199 -84t-221 -30t-220.5 30t-198.5 84t-167.5 129.5t-129.5 168t-84 199t-30 220.5q0 115 30 221.5t84 198.5t129.5 168t167.5 130
t198.5 84t220.5 30zM1234 44q78 36 144.5 87.5t119.5 115.5t91 140t58 160l-134 -75l-183 236l150 293l144 -34q-47 135 -140 241.5t-218 171.5l26 -125l-338 -75l-189 188l73 89q-112 -13 -211 -56.5t-183 -111.5l-48 -332l-208 -131q-3 -13 -5 -30q-2 -14 -3 -34t-1 -45
q0 -44 6.5 -99.5t26.5 -117.5l208 -84l106 -325q62 -39 128 -64.5t140 -37.5l166 202l336 53l23 -118zM889 957l209 -288l-209 -290l-340 111v356z" />
    <glyph glyph-name="uni26BE" unicode="&#x26be;" horiz-adv-x="1764" 
d="M684 255q0 26 17 45t43 22l9 1q26 0 45.5 -17t24.5 -43v-4q0 -28 -17.5 -48t-44.5 -24l-9 -1q-25 0 -44 17t-23 43zM710 451q0 26 16.5 46.5t42.5 24.5l9 1q26 0 45.5 -17t23.5 -43v-6q0 -26 -16.5 -46.5t-44.5 -24.5l-9 -1q-26 0 -44.5 17.5t-22.5 42.5v6zM655 647
q0 26 17 45.5t43 23.5l9 1q25 0 44 -17t23 -43l1 -9q0 -26 -17 -44.5t-43 -22.5l-9 -1q-26 0 -45 17t-23 43v7zM532 807q0 26 17 45t43 21l9 1q24 0 43.5 -16.5t23.5 -43.5l1 -9q0 -25 -17 -44t-43 -23l-9 -1q-27 0 -46.5 17.5t-21.5 45.5v7zM354 907q0 26 17.5 44.5
t42.5 22.5h6q26 0 46.5 -16.5t24.5 -44.5l1 -9q0 -25 -17 -44t-43 -23h-6q-26 0 -46.5 16.5t-24.5 44.5zM1007 1252q28 0 47.5 -19.5t19.5 -49.5q0 -27 -19.5 -46.5t-47.5 -19.5q-29 0 -49 19.5t-20 46.5q0 30 20 49.5t49 19.5zM1052 987q0 -28 -20.5 -47.5t-48.5 -19.5
t-48.5 19.5t-20.5 47.5q0 29 20.5 49t48.5 20t48.5 -20t20.5 -49zM1103 795q0 -30 -20.5 -49.5t-48.5 -19.5t-48.5 19.5t-20.5 49.5q0 28 20.5 48.5t48.5 20.5t48.5 -20.5t20.5 -48.5zM1221 635q0 -28 -19.5 -48.5t-49.5 -20.5q-27 0 -46.5 20.5t-19.5 48.5t19.5 48.5
t46.5 20.5q30 0 49.5 -20.5t19.5 -48.5zM1396 534q0 -28 -20.5 -47t-48.5 -19t-48.5 19t-20.5 47q0 29 20.5 49t48.5 20t48.5 -20t20.5 -49zM879 1506q109 0 210 -28t188.5 -79.5t159 -123t123 -159t79.5 -188t28 -209.5q0 -108 -28 -208.5t-79.5 -187.5t-123 -159
t-159 -123t-188.5 -79t-210 -28q-108 0 -208.5 28t-187.5 79t-158.5 123t-122.5 159t-79 187.5t-28 208.5q0 109 28 209.5t79 188t122.5 159t158.5 123t187.5 79.5t208.5 28zM879 35q105 0 201 30t177 84t144 129t103 165q-20 5 -34.5 22.5t-14.5 41.5q0 28 20 48.5t49 20.5
q5 0 11 -1.5t13 -3.5q15 73 15 148q0 103 -29 197t-81 174t-124 143.5t-159 104.5q-6 -20 -23 -34.5t-41 -14.5q-28 0 -48.5 20t-20.5 49q0 12 5 25q-39 9 -79.5 15.5t-83.5 6.5q-105 0 -201 -30.5t-177.5 -86t-145 -132t-103.5 -167.5q32 -16 39 -52l1 -9q0 -25 -17.5 -44
t-44.5 -23h-17q-10 -33 -14 -69t-4 -73q0 -103 29 -197t81.5 -174t124.5 -143.5t159 -103.5q8 17 22.5 29.5t34.5 14.5l9 1q25 0 44 -17t23 -43q0 -8 -0.5 -16t-4.5 -13q39 -10 80 -16t82 -6z" />
    <glyph glyph-name="uni26C4" unicode="&#x26c4;" 
d="M925 1210q0 -28 -19.5 -48t-45.5 -20q-28 0 -46.5 20t-18.5 48q0 27 18.5 47t46.5 20q26 0 45.5 -20t19.5 -47zM1118 638q0 -20 -7.5 -38t-21 -31.5t-31.5 -21.5t-38 -8t-37.5 8t-30 21.5t-20 31.5t-7.5 38q0 44 27.5 72.5t67.5 28.5q41 0 69.5 -28.5t28.5 -72.5z
M1118 305q0 -44 -28.5 -72.5t-69.5 -28.5q-40 0 -67.5 28.5t-27.5 72.5q0 42 27.5 70.5t67.5 28.5q20 0 38 -7.5t31.5 -21t21 -31.5t7.5 -39zM1247 1210q0 -28 -19 -48t-45 -20q-28 0 -46.5 20t-18.5 48q0 27 18.5 47t46.5 20q26 0 45 -20t19 -47zM1020 942q-39 0 -66.5 5.5
t-45.5 13t-27 14.5t-12 10q-10 9 -10 23t10 25q9 9 22 9t22 -9h1q4 -3 27.5 -13.5t78.5 -10.5q30 0 50.5 3.5t33.5 8t19 8.5l6 4q9 9 22 9q14 0 23 -11q8 -13 8 -24q0 -12 -8 -22q-3 -3 -12.5 -10t-28 -14.5t-46.5 -13t-67 -5.5zM1972 975q21 0 35.5 -15.5t14.5 -35.5
q0 -21 -14.5 -33t-35.5 -12h-118l-235 -249q28 -65 43.5 -135t15.5 -147q0 -94 -23.5 -180.5t-66 -162t-102.5 -137.5t-133 -106t-157.5 -68.5t-175.5 -24.5t-174.5 24.5t-156.5 68.5t-133 106t-103 137.5t-66.5 162t-23.5 180.5q0 77 15 147t43 135l-235 249h-118
q-19 0 -34 12t-15 33q0 20 15 35.5t34 15.5h114v116q0 22 13.5 36.5t35.5 14.5q19 0 34 -14.5t15 -36.5v-123l208 -219q22 29 44.5 55.5t48.5 50.5q-36 62 -57 134t-21 150q0 54 8.5 106t26.5 102h-66q-26 0 -43 17.5t-17 44.5q0 29 17 47t43 18h133v271q0 29 18.5 48
t46.5 19h701q30 0 47.5 -19t17.5 -48v-271h132q26 0 44.5 -18t18.5 -47q0 -27 -18.5 -44.5t-44.5 -17.5h-63q17 -51 26 -102.5t9 -105.5q0 -78 -21 -150t-57 -134q24 -24 46.5 -50.5t43.5 -55.5l212 219v123q0 22 14 36.5t34 14.5q19 0 34 -14.5t15 -36.5v-116h111z
M1020 -232q116 0 218 45.5t178 124.5t120 184.5t44 225.5q0 125 -47.5 237t-135.5 195l-61 58l42 70q31 52 48 111t17 120q0 51 -11.5 104t-33.5 104h-757q-20 -51 -30.5 -104t-10.5 -104q0 -61 15.5 -120t47.5 -111l44 -70l-61 -58q-89 -83 -137.5 -195t-48.5 -237
q0 -120 44 -225.5t120 -184.5t178 -124.5t218 -45.5z" />
    <glyph glyph-name="uni26C5" unicode="&#x26c5;" 
d="M238 880q2 -8 3.5 -14.5t1.5 -12.5h-158q-26 0 -45 20t-21 47q0 29 20.5 50t48.5 21h155q-6 -41 -6 -79v-16t1 -16zM206 1279q-21 21 -21 50q0 27 18 48q20 20 49 20q28 0 50 -20l108 -108q-28 -20 -52 -45.5t-44 -52.5zM727 1348q-15 2 -30.5 3.5t-32.5 1.5
q-23 0 -45 -3q-14 0 -29 -5v153q0 29 19.5 49t48.5 20h3q27 0 46.5 -20t19.5 -47v-152zM1008 1178q-20 28 -44.5 52.5t-54.5 43.5l109 108q10 9 21 14.5t25 5.5q28 0 50 -20q20 -22 20 -48q0 -28 -20 -48zM432 698q-45 45 -69 103.5t-24 125.5t25.5 126.5t69.5 103.5
t103 69.5t126 25.5q51 0 98 -15.5t86 -42.5t69 -64.5t47 -81.5q-26 -38 -44.5 -78t-26.5 -85h-2q-72 0 -137 -29.5t-112 -83.5q-59 -2 -111.5 -21t-97.5 -53zM1667 907q76 0 142.5 -29t116.5 -79t79 -117t29 -144q0 -70 -25 -133.5t-68 -113t-101.5 -82.5t-125.5 -42h-1068
q-53 0 -99 20.5t-80 55t-54 81t-20 99.5q0 52 20 98.5t54 80.5t80 54t99 20q22 0 47 -5q28 54 80 86t117 32q28 0 53 -6.5t48 -17.5q-2 13 -3.5 24.5t-1.5 24.5q0 62 23.5 116.5t64.5 95.5t95.5 64.5t116.5 23.5q52 0 98.5 -16.5t84.5 -46t65.5 -70t41.5 -88.5q23 5 45 9.5
t46 4.5zM319 674q18 -27 44 -50q-50 -68 -61 -162q-8 -5 -18.5 -10t-24.5 -5q-11 0 -23 4.5t-25 15.5q-11 10 -15.5 22.5t-4.5 26.5q0 29 20 49z" />
    <glyph glyph-name="uni26C7" unicode="&#x26c7;" 
d="M925 1210q0 27 -19.5 47t-45.5 20q-28 0 -46.5 -20t-18.5 -47q0 -28 18.5 -48t46.5 -20q26 0 45.5 20t19.5 48zM1118 638q0 44 -28.5 72.5t-69.5 28.5q-40 0 -67.5 -28.5t-27.5 -72.5q0 -20 7.5 -38t20 -31.5t30 -21.5t37.5 -8t38 8t31.5 21.5t21 31.5t7.5 38zM1118 305
q0 21 -7.5 39t-21 31.5t-31.5 21t-38 7.5q-40 0 -67.5 -28.5t-27.5 -70.5q0 -44 27.5 -72.5t67.5 -28.5q41 0 69.5 28.5t28.5 72.5zM1247 1210q0 27 -19 47t-45 20q-28 0 -46.5 -20t-18.5 -47q0 -28 18.5 -48t46.5 -20q26 0 45 20t19 48zM1020 942q39 0 67 5.5t46.5 13
t28 14.5t12.5 10q8 10 8 22q0 11 -8 24q-9 11 -23 11q-13 0 -22 -9l-6 -4q-6 -4 -19 -8.5t-33.5 -8t-50.5 -3.5q-55 0 -78.5 10.5t-27.5 13.5h-1q-9 9 -22 9t-22 -9q-10 -11 -10 -25t10 -23q3 -3 12 -10t27 -14.5t45.5 -13t66.5 -5.5zM1972 975q21 0 35.5 -15.5t14.5 -35.5
q0 -21 -14.5 -33t-35.5 -12h-118l-235 -249q28 -65 43.5 -135t15.5 -147q0 -94 -23.5 -180.5t-66 -162t-102.5 -137.5t-133 -106t-157.5 -68.5t-175.5 -24.5t-174.5 24.5t-156.5 68.5t-133 106t-103 137.5t-66.5 162t-23.5 180.5q0 77 15 147t43 135l-235 249h-118
q-19 0 -34 12t-15 33q0 20 15 35.5t34 15.5h114v116q0 22 13.5 36.5t35.5 14.5q19 0 34 -14.5t15 -36.5v-123l208 -219q22 29 44.5 55.5t48.5 50.5q-36 62 -57 134t-21 150q0 54 8.5 106t26.5 102h-66q-26 0 -43 17.5t-17 44.5q0 29 17 47t43 18h133v271q0 29 18.5 48
t46.5 19h701q30 0 47.5 -19t17.5 -48v-271h132q26 0 44.5 -18t18.5 -47q0 -27 -18.5 -44.5t-44.5 -17.5h-63q17 -51 26 -102.5t9 -105.5q0 -78 -21 -150t-57 -134q24 -24 46.5 -50.5t43.5 -55.5l212 219v123q0 22 14 36.5t34 14.5q19 0 34 -14.5t15 -36.5v-116h111z
M224 1807q0 -16 -5.5 -30t-16 -24.5t-24.5 -16.5t-30 -6q-15 0 -28.5 6t-23.5 16.5t-15.5 24.5t-5.5 30q0 34 21 56t52 22q32 0 54 -22t22 -56zM168 1366q0 -16 -5.5 -30t-16 -24.5t-24.5 -16.5t-30 -6q-15 0 -28.5 6t-23.5 16.5t-15.5 24.5t-5.5 30q0 34 21 56t52 22
q32 0 54 -22t22 -56zM537 1897q0 -16 -5.5 -30t-16 -24.5t-24.5 -16.5t-30 -6q-15 0 -28.5 6t-23.5 16.5t-15.5 24.5t-5.5 30q0 34 21 56t52 22q32 0 54 -22t22 -56zM388 1572q0 -16 -5.5 -30t-16 -24.5t-24.5 -16.5t-30 -6q-15 0 -28.5 6t-23.5 16.5t-15.5 24.5t-5.5 30
q0 34 21 56t52 22q32 0 54 -22t22 -56zM1817 1807q0 34 22 56t54 22q31 0 52 -22t21 -56q0 -16 -5.5 -30t-15.5 -24.5t-23.5 -16.5t-28.5 -6q-16 0 -30 6t-24.5 16.5t-16 24.5t-5.5 30zM1873 1366q0 34 22 56t54 22q31 0 52 -22t21 -56q0 -16 -5.5 -30t-15.5 -24.5
t-23.5 -16.5t-28.5 -6q-16 0 -30 6t-24.5 16.5t-16 24.5t-5.5 30zM1504 1897q0 34 22 56t54 22q31 0 52 -22t21 -56q0 -16 -5.5 -30t-15.5 -24.5t-23.5 -16.5t-28.5 -6q-16 0 -30 6t-24.5 16.5t-16 24.5t-5.5 30zM1653 1572q0 34 22 56t54 22q31 0 52 -22t21 -56
q0 -16 -5.5 -30t-15.5 -24.5t-23.5 -16.5t-28.5 -6q-16 0 -30 6t-24.5 16.5t-16 24.5t-5.5 30z" />
    <glyph glyph-name="uni26CE" unicode="&#x26ce;" 
d="M2023 891q-84 -97 -191.5 -158t-229.5 -85v-187q0 -81 -20.5 -155.5t-58 -139t-90.5 -118t-117.5 -91t-139 -58.5t-155.5 -21q-80 0 -154 21t-138.5 58.5t-117.5 91t-90.5 118t-58.5 139t-21 155.5v474q-76 -22 -144 -64t-122 -103l-155 135q85 95 191.5 156.5
t229.5 85.5v344h202v-330q124 -9 238.5 -56t208.5 -131q65 -57 145 -90t165 -43v650h202v-632q78 22 145 65t121 104zM1021 84q78 0 146.5 29.5t120.5 80.5t82 120t30 147v172q-122 9 -236.5 56t-209.5 130q-66 58 -146 92t-165 42v-492q0 -78 30 -147t81.5 -120
t120.5 -80.5t146 -29.5z" />
    <glyph glyph-name="uni26D4" unicode="&#x26d4;" 
d="M1022 1642q123 0 237 -32t213 -89.5t180 -139t139 -180t90 -212.5t32 -237t-32 -236t-90 -212t-139 -180t-180 -139t-213 -90t-237 -32q-122 0 -235.5 32t-212 90t-180 139t-139 180t-89.5 212.5t-32 235.5q0 123 32 237t89.5 212.5t139 180t180 139t212 89.5t235.5 32z
M370 584h1304v335h-1304v-335z" />
    <glyph glyph-name="uni26DD" unicode="&#x26dd;" 
d="M142 1639h1762v-1762h-1762v1762zM400 -20h1245l-622 623zM1802 137v1244l-620 -622zM245 1381v-1239l618 619zM1022 919l617 617h-1233z" />
    <glyph glyph-name="uni26E3" unicode="&#x26e3;" 
d="M1623 1488q0 -30 -11 -56.5t-30 -46t-45 -31t-56 -11.5t-56 11.5t-45.5 31t-30.5 46t-11 56.5t11 56t30.5 45.5t45.5 30.5t56 11t56 -11t45 -30.5t30 -45.5t11 -56zM691 1488q0 -30 -11 -56.5t-30.5 -46t-45.5 -31t-56 -11.5t-56.5 11.5t-46 31t-31 46t-11.5 56.5
t11.5 56t31 45.5t46 30.5t56.5 11t56 -11t45.5 -30.5t30.5 -45.5t11 -56zM1832 566q0 -109 -30 -212q-14 -50 -34.5 -97.5t-47.5 -92.5q-26 -44 -58.5 -84t-67.5 -77q-37 -35 -78 -66.5t-87 -57.5q-45 -26 -92.5 -46t-101.5 -34q-52 -14 -105 -19.5t-107 -5.5q-56 0 -108 6
t-104 20q-101 27 -191 80q-88 51 -163 124q-37 36 -69.5 76t-59.5 85t-47.5 92t-34.5 97q-30 103 -30 212q0 80 14.5 152t42.5 141q28 70 67.5 130.5t87.5 112.5q95 106 228 172q67 34 138 54.5t145 29.5v352h160v-350q76 -5 144 -25t137 -54q66 -33 125 -76.5t111 -97.5
q50 -52 89 -113t68 -130q59 -139 59 -298zM1640 566q0 66 -12 127t-35 118q-23 58 -56 108t-74 92q-42 43 -91.5 76t-104.5 57q-113 49 -244 49q-128 0 -241 -49q-112 -47 -197 -135q-82 -84 -130 -197q-47 -112 -47 -246q0 -131 47 -244q24 -57 56 -105.5t74 -93.5
q81 -85 194 -133q58 -24 118.5 -36.5t125.5 -12.5q131 0 244 49q57 24 105.5 58.5t90.5 77.5q41 42 74 92t56 107q23 56 35 116t12 125z" />
    <glyph glyph-name="uni26EA" unicode="&#x26ea;" 
d="M889 1323l99 617h68l99 -617h-266zM1224 818l588 -585l-74 -71l-716 716l-716 -716l-71 71l585 585v232h69v211h266v-211h69v-232zM1022 710l617 -615v-342h-484v282q0 27 -10.5 51t-28.5 41t-42.5 27t-51.5 10t-51.5 -10.5t-42.5 -28.5t-28.5 -42.5t-10.5 -52.5v-277
h-484v342z" />
    <glyph glyph-name="uni26F2" unicode="&#x26f2;" 
d="M950 1174v20t2 20q-8 49 -32 91.5t-60 74t-81.5 49.5t-96.5 18q-57 0 -106.5 -21.5t-86 -58.5t-57.5 -87t-21 -106v-334q0 -28 -21.5 -48.5t-49.5 -20.5q-30 0 -49.5 20.5t-19.5 48.5v334q0 85 32.5 159.5t88 130t130.5 87.5t160 32q106 0 194.5 -49.5t143.5 -132.5
q28 41 65.5 74.5t82 57.5t94.5 37t103 13q85 0 160 -32t130.5 -87.5t88 -130t32.5 -159.5v-334q0 -28 -21 -48.5t-50 -20.5q-28 0 -47.5 20.5t-19.5 48.5v334q0 56 -21.5 106t-58.5 87t-87 58.5t-106 21.5q-57 0 -107 -21.5t-87.5 -58.5t-59 -87t-21.5 -106v-484h-140v484z
M1026 -149q-90 0 -165 18.5t-135.5 49t-107.5 69.5t-83 80q-84 96 -129 218h1232q-43 -122 -125 -218q-35 -41 -81.5 -80t-106.5 -69.5t-134.5 -49t-164.5 -18.5zM1023 338q-60 0 -109.5 12.5t-89.5 32.5t-71 46.5t-55 53.5q-55 63 -85 145h819q-28 -82 -83 -145
q-23 -27 -54.5 -53.5t-71.5 -46.5t-90 -32.5t-110 -12.5zM746 1135q0 29 -18.5 49t-45.5 20q-30 0 -49.5 -20t-19.5 -49v-152q0 -28 -20.5 -47.5t-48.5 -19.5t-50 19.5t-22 47.5v152q0 42 16.5 80t45 66t66.5 44.5t82 16.5q42 0 79.5 -16.5t65 -44.5t43.5 -66t16 -80v-445
h-140v445zM1161 1138q0 42 16 79.5t43.5 65t65 43.5t79.5 16q43 0 79.5 -16t63.5 -43.5t42 -65t15 -79.5v-153q0 -28 -17.5 -48.5t-46.5 -20.5q-28 0 -47.5 20.5t-19.5 48.5v153q0 27 -20.5 47.5t-48.5 20.5q-29 0 -51 -20.5t-22 -47.5v-448h-131v448z" />
    <glyph glyph-name="uni26F3" unicode="&#x26f3;" horiz-adv-x="1764" 
d="M935 1723l765 -435l-765 -408v843zM866 186q114 -6 212 -29t170 -59t113.5 -82t41.5 -98q0 -56 -47.5 -106t-130 -87t-193.5 -58.5t-237 -21.5t-236.5 21.5t-193 58.5t-130.5 87t-48 106q0 52 41.5 98t114 82t170.5 59t211 29v1508q3 28 23 47t48 19q29 0 49 -19t22 -47
v-1508z" />
    <glyph glyph-name="uni26F5" unicode="&#x26f5;" horiz-adv-x="1764" 
d="M11 215h1738q0 -18 -5.5 -40.5t-14 -48t-19.5 -51.5t-23 -51q-27 -58 -61 -121q-114 -15 -226 -27q-48 -6 -99.5 -11.5t-102.5 -10.5t-99 -9t-89 -7q-46 -3 -91.5 -5t-91.5 -2q-124 0 -249 15.5t-256 54.5q-42 13 -79 34.5t-68 47.5q-46 38 -77 78t-51 75q-23 40 -36 79z
M889 1605v-1246h-592zM1015 1210l505 -851h-505v851z" />
    <glyph glyph-name="uni26FA" unicode="&#x26fa;" 
d="M1028 551l-315 -551h-642l957 1660l957 -1660h-639z" />
    <glyph glyph-name="uni26FD" unicode="&#x26fd;" horiz-adv-x="1764" 
d="M1589 1304q43 -37 67.5 -73t37 -81t15.5 -104t3 -143v-704q0 -56 -21.5 -106t-59 -87t-87.5 -58.5t-107 -21.5q-56 0 -105.5 21.5t-86.5 58.5t-58 87t-21 106v438q0 27 -10.5 51t-29 43t-43 30t-52.5 11h-7v-917h-952v1525q0 39 14.5 72.5t40 58t59.5 39t73 14.5h580
q39 0 72.5 -14.5t58.5 -39t39.5 -58t14.5 -72.5v-475h7q56 0 104.5 -21t84.5 -57.5t56.5 -85.5t20.5 -104v-438q0 -29 11.5 -53.5t31 -42.5t44.5 -28.5t53 -10.5t53 10.5t43 28.5t28.5 42.5t10.5 53.5v723h-59q-41 0 -66.5 11t-39.5 26q-15 16 -22.5 33t-11.5 31.5
t-4.5 24.5t-0.5 12v248q-24 20 -46 36.5t-39 30.5q-19 15 -36 29l84 109q2 -1 16 -12t35.5 -28t48.5 -39t55 -44.5t55 -45t48 -40.5zM893 1030v320q0 17 -6.5 32t-17.5 26.5t-26 18.5t-31 7h-526q-34 0 -58 -25t-24 -59v-320q0 -15 6.5 -30t17.5 -26t26 -18t32 -7h526
q16 0 31 7t26 18t17.5 26t6.5 30zM1479 1018h96q-2 18 -3 41t-7.5 47.5t-21 49t-42.5 44.5l-62 57v-199q0 -4 1 -13t7 -15q5 -5 14.5 -8.5t17.5 -3.5z" />
    <glyph glyph-name="uni2701" unicode="&#x2701;" 
d="M823 741l-415 375q-50 43 -69.5 82t-19.5 86q0 38 12.5 70t36 55t56.5 36t74 13q62 0 108.5 -21t79.5 -59t53 -90t29 -114q12 -81 21.5 -135t20.5 -91.5t27.5 -62.5t43.5 -49l32 -29l838 31q34 2 46.5 2h17.5q55 0 91.5 -16t47.5 -66l-854 -90l237 -168h-245l-224 139
l-43 -8q-35 -7 -62 -21t-55.5 -41t-63 -69.5t-85.5 -106.5q-60 -74 -122 -109.5t-136 -35.5q-40 0 -77 11.5t-66 35t-46.5 58t-17.5 79.5q0 75 44 120.5t132 65.5zM664 999q9 28 12.5 59t3.5 60q0 45 -9.5 91.5t-30.5 84t-55.5 61t-84.5 23.5q-41 0 -67.5 -26t-26.5 -68
q0 -28 13.5 -50.5t47.5 -53.5zM178 432q0 -45 35 -73.5t88 -28.5q48 0 88 23.5t72 60t55 81.5t35 87l4 14l-260 -57q-25 -6 -46.5 -13.5t-37 -20t-24.5 -30.5t-9 -43z" />
    <glyph glyph-name="uni2702" unicode="&#x2702;" 
d="M1434 1143q42 17 89 30q40 11 90 21t104 10q55 0 107 -14.5t92 -51.5l-677 -376l-243 137zM1916 274q-46 -43 -102 -59t-110 -16q-38 0 -71 5t-60.5 12t-47.5 14t-30 10l-1168 645q-40 22 -72 54t-54.5 70.5t-34.5 82.5t-12 90q0 71 27 133.5t73.5 109t109 73t132.5 26.5
q71 0 133.5 -26.5t109 -73t73 -109t26.5 -133.5q0 -61 -20 -116.5t-59 -102.5q-1 -2 -1 -4q-1 -2 -1 -9q0 -11 4.5 -25t20.5 -23zM344 1182q0 -31 12 -59t33 -49.5t48.5 -34t58.5 -12.5q32 0 60.5 12.5t49.5 34t33 49.5t12 59t-12 59t-33 49t-49.5 33t-60.5 12
q-31 0 -58.5 -12t-48.5 -33t-33 -49t-12 -59zM841 225q0 -70 -27 -132.5t-73.5 -109t-109 -73.5t-132.5 -27q-71 0 -133.5 27t-109 73.5t-73 109t-26.5 132.5q0 88 38.5 160t103.5 118l244 145l246 -140q-9 -6 -16 -14q-6 -7 -10.5 -15.5t-4.5 -19.5q0 -10 6 -20
q39 -42 58 -97.5t19 -116.5zM344 225q0 -31 12 -58.5t33 -48.5t49.5 -33t60.5 -12q31 0 58.5 12t48.5 33t33 48.5t12 58.5q0 32 -12 60.5t-33 49.5t-48.5 33t-58.5 12q-32 0 -60.5 -12t-49.5 -33t-33 -49.5t-12 -60.5z" />
    <glyph glyph-name="uni2703" unicode="&#x2703;" 
d="M270 815q-88 20 -132 65.5t-44 120.5q0 45 17.5 80t46.5 58t66 35t77 12q74 0 136 -35.5t122 -110.5q51 -64 85.5 -106.5t63 -69t55.5 -40.5t62 -21l43 -8l224 139h245l-237 -168l854 -90q-6 -26 -18 -42t-30 -25t-41 -12t-50 -3h-17.5t-46.5 2l-838 31l-32 -29
q-27 -24 -43.5 -49.5t-27.5 -62.5t-20.5 -91t-21.5 -135q-9 -62 -29 -114.5t-53 -90.5t-79.5 -59t-108.5 -21q-41 0 -74 13t-56.5 36t-36 55t-12.5 71q0 48 19.5 86t69.5 81l415 375zM467 254q-34 -31 -47.5 -54t-13.5 -50q0 -42 26.5 -68.5t67.5 -26.5q50 0 84.5 23.5
t55.5 61t30.5 84t9.5 91.5q0 29 -3.5 60t-12.5 59zM178 1001q0 -25 9 -43t24.5 -30t37 -20t46.5 -13l260 -57l-4 14q-12 42 -35 87t-55 81.5t-72 60t-88 23.5q-26 0 -48.5 -7.5t-39 -21.5t-26 -33t-9.5 -41z" />
    <glyph glyph-name="uni2704" unicode="&#x2704;" horiz-adv-x="2173" 
d="M252 930q-82 42 -120 95.5t-38 131.5q0 50 17.5 92t49.5 72.5t78 47.5t103 17q58 0 104.5 -14.5t85 -44t70 -75.5t60.5 -109q30 -70 51.5 -117t39.5 -77.5t36.5 -48.5t44.5 -30l20 -10l965 293q34 11 55 13.5t41 2.5q54 0 94.5 -29t69.5 -106l-860 -317l860 -318
q-15 -38 -32 -64t-37.5 -42t-44 -22.5t-50.5 -6.5q-20 0 -41 3t-55 14l-965 292l-20 -10q-26 -12 -44.5 -30t-36.5 -48.5t-39.5 -77t-51.5 -116.5q-29 -63 -60.5 -109t-70 -76t-85 -44.5t-104.5 -14.5q-57 0 -103 17t-78 47.5t-49.5 72.5t-17.5 92q0 79 38 132.5t120 95.5
l418 213zM778 717l-502 -260q-66 -34 -97.5 -76.5t-31.5 -104.5q0 -38 13.5 -70t39 -55.5t61.5 -37t81 -13.5q48 0 87.5 12.5t71.5 39t59.5 66.5t51.5 95q33 75 56 124t44 82t43 53.5t54 37.5l39 21l985 -299q20 -6 41 -10.5t41 -4.5q32 0 53.5 11.5t38.5 42.5l-942 346
l942 346q-17 31 -38.5 42t-53.5 11q-20 0 -41 -4t-41 -10l-985 -299l-39 20q-32 17 -54 37.5t-43 53.5t-44 82.5t-56 123.5q-24 55 -51.5 95.5t-59.5 66.5t-71.5 38.5t-87.5 12.5q-45 0 -81 -13.5t-61.5 -37t-39 -56t-13.5 -69.5q0 -62 31.5 -104t97.5 -76zM340 180
q-50 0 -78.5 25.5t-28.5 70.5q0 31 18.5 57.5t67.5 51.5l238 123v-14q0 -50 -14 -105.5t-41 -102t-67.5 -76.5t-94.5 -30zM340 1253q54 0 94.5 -30t67.5 -76.5t41 -101.5t14 -105v-14l-238 123q-49 24 -67.5 50.5t-18.5 57.5q0 45 28.5 70.5t78.5 25.5zM340 1200
q-26 0 -39.5 -12t-13.5 -29q0 -18 12 -33t41 -30l156 -80q-8 35 -22 68.5t-33.5 59t-44.5 41t-56 15.5zM340 233q31 0 56 15.5t44.5 41.5t33.5 59.5t22 68.5l-156 -80q-29 -16 -41 -30.5t-12 -33.5q0 -17 13.5 -29t39.5 -12z" />
    <glyph glyph-name="uni2705" unicode="&#x2705;" 
d="M1707 1523q-3 2 -7 5q-4 2 -9 3.5t-10 1.5q-8 0 -16.5 -3.5t-16.5 -14.5l-804 -1038l-470 507q-5 5 -13.5 8t-18.5 3q-8 0 -15 -2t-12 -7l-172 -160q-14 -11 -14 -29q0 -16 11 -30l723 -779l1036 1333q9 10 9 27q0 22 -16 32zM1569 1579q27 32 55 44t54 12q32 0 57 -11.5
t36 -19.5l185 -143q8 -6 18 -17t18.5 -25.5t14 -32t5.5 -38.5q0 -42 -32 -91l-1035 -1331q-14 -18 -36.5 -29t-47.5 -11q-20 0 -39.5 7t-34.5 26l-721 777q-20 21 -29 47t-9 52q0 59 46 108l172 157q24 22 49.5 31.5t49.5 9.5q32 0 59 -13.5t44 -34.5l388 -416z" />
    <glyph glyph-name="uni2708" unicode="&#x2708;" horiz-adv-x="2044" 
d="M635 -84l209 701h-411l-125 -138h-162l103 241l-103 236h162l123 -135h411l-207 694l162 12l448 -706h568q43 0 73.5 -28t30.5 -73q0 -21 -8 -39.5t-22.5 -33t-33.5 -22.5t-40 -8h-565l-451 -713z" />
    <glyph glyph-name="uni2709" unicode="&#x2709;" horiz-adv-x="2032" 
d="M1738 1316q37 0 58 -8.5t31.5 -23.5t13.5 -35t3 -42v-1011q0 -21 -8.5 -40.5t-22.5 -34t-33.5 -23t-41.5 -8.5h-1449q-26 0 -46 4t-33.5 15t-20 32t-6.5 55v1011q0 23 4 43t16 34.5t32.5 23t53.5 8.5h1449zM377 1168l640 -482l643 482h-1283zM1696 230v790l-637 -485
q-20 -15 -42 -15q-25 0 -44 15l-640 485v-790h1363z" />
    <glyph glyph-name="uni270A" unicode="&#x270a;" 
d="M1359 1224v-411q0 -21 -8.5 -39.5t-23 -33t-34 -22.5t-40.5 -8t-40.5 8t-34 22.5t-23 33t-8.5 39.5v411q0 21 8.5 40t23 33.5t34 22.5t40.5 8t40.5 -8t34 -22.5t23 -33.5t8.5 -40zM813 1054h-212v170q0 21 8.5 40t23 33.5t34 22.5t40.5 8t40 -8t34 -22.5t23.5 -33.5
t8.5 -40v-170zM1632 1121v-239q0 -21 -8.5 -39.5t-23 -33t-33 -22.5t-39.5 -8q-22 0 -41.5 8t-34.5 22.5t-23.5 33t-8.5 39.5v239q0 21 8.5 39.5t23.5 33t34.5 22.5t41.5 8q21 0 39.5 -8t33 -22.5t23 -33t8.5 -39.5zM1086 813q0 -21 -8.5 -39.5t-23.5 -33t-34 -22.5t-40 -8
q-26 0 -47 11.5t-34 30.5q29 22 46.5 55t17.5 75q0 51 -25 88t-64 57v266q0 21 8.5 40t23 33t34 22t40.5 8t40 -8t34 -22t23.5 -33t8.5 -40v-480zM1528 695q28 0 54.5 9t49.5 26v-148q0 -106 -45.5 -199.5t-121.5 -163.5t-175.5 -110.5t-206.5 -40.5q-76 0 -146 21.5
t-144 69.5q-89 60 -154 121t-112 126.5t-78.5 137.5t-51.5 154q-13 53 -13 96q0 29 4 50.5t9 42.5q10 36 33 55.5t46 28.5q27 11 59 12h238q45 0 74.5 -29t29.5 -72q0 -21 -8 -39.5t-22 -32t-33 -21.5t-41 -8h-172v-179q0 -15 11 -25t26 -10t24.5 10t9.5 25v108h101
q17 0 27 1t25 6q12 -19 29.5 -35.5t38 -29t43 -19.5t44.5 -7q42 0 77.5 10t57.5 42q24 -32 59.5 -42t78.5 -10q56 0 99.5 23t60.5 71q22 -19 52 -22t63 -3z" />
    <glyph glyph-name="uni270B" unicode="&#x270b;" 
d="M1602 399q0 -106 -40 -199.5t-110 -163.5t-163.5 -110.5t-200.5 -40.5q-38 0 -70.5 3.5t-66 13.5t-71 27.5t-83.5 45.5q-26 16 -64 51t-81.5 81t-90 98.5t-89.5 103t-80 95t-61 74.5q-5 6 -9.5 11.5t-8.5 10.5q-24 20 -34 40.5t-10 38.5q0 17 7.5 31.5t19.5 25t26.5 16.5
t28.5 6q15 0 24 -5q41 -10 92 -35.5t105 -68.5v898q0 20 8.5 38t22.5 31.5t33 21.5t39 8t38.5 -8t32.5 -21.5t22 -31.5t8 -38v-644q0 -17 12 -28.5t27 -11.5t27 11.5t12 28.5v711q0 41 27.5 69.5t68.5 28.5q20 0 38 -7.5t31.5 -21t21.5 -31.5t8 -38v-672q0 -17 8.5 -28
t25.5 -11t26 11t9 28v576q0 21 9.5 39t24.5 31.5t34.5 21.5t39.5 8q21 0 39.5 -8t33 -21.5t22.5 -31.5t8 -39v-615q0 -17 8.5 -28.5t23.5 -11.5q17 0 23.5 11.5t6.5 28.5v310q0 21 9.5 39t25.5 31.5t36.5 21.5t41.5 8q20 0 38 -8t31.5 -21.5t21 -31.5t7.5 -39v-714z" />
    <glyph glyph-name="uni270C" unicode="&#x270c;" horiz-adv-x="1024" 
d="M15 1267q-3 12 -3 24q0 19 8 34.5t20.5 26t29 16.5t33.5 6q26 0 48.5 -15t31.5 -47l126 -468q4 -14 14.5 -27t30.5 -13q15 0 25.5 10t15.5 27l138 527q11 33 32.5 47.5t47.5 14.5q17 0 33.5 -6t29 -16.5t20.5 -26t8 -34.5q0 -12 -3 -24l-129 -496l-77 -132
q-22 26 -50.5 36.5t-54.5 10.5h-247zM390 682q35 0 60 -23.5t25 -58.5q0 -18 -6.5 -34t-18 -28t-27 -19t-33.5 -7h-176v-171q1 -9 5 -15q3 -5 9 -9.5t17 -4.5t16.5 4.5t8.5 9.5q4 6 4 15v116h128q19 0 40.5 9t34.5 22q8 -7 21.5 -19t21.5 -17q31 -18 71 -18q38 0 70 18
q0 -8 2 -12q14 -56 67 -89q29 -19 70 -19q22 0 41.5 6.5t36 17t28.5 23.5t20 26l83 143q-7 -66 -19 -128q-11 -54 -29 -113.5t-46 -104.5q-31 -51 -74 -93t-94.5 -72t-110.5 -46.5t-122 -16.5t-127.5 18t-129.5 56q-53 31 -93 80.5t-66.5 111.5t-40 134.5t-13.5 149.5v17
q2 39 13 70q5 13 12 26t17.5 23t25 16t33.5 6h245zM759 401q-21 12 -32.5 32t-11.5 43t12 43l123 213q12 20 31.5 31.5t42.5 11.5t44 -12q20 -11 31 -31t11 -43q0 -25 -11 -44l-122 -211q-9 -16 -31 -30t-48 -14q-21 0 -39 11zM736 912q23 0 43 -10q21 -13 32.5 -33
t11.5 -43q0 -22 -11 -42l-145 -251q-9 -14 -30 -28.5t-46 -14.5q-20 0 -42 12q-20 13 -31.5 33t-11.5 42t12 43l143 249q13 22 33 32.5t42 10.5z" />
    <glyph glyph-name="uni270E" unicode="&#x270e;" 
d="M716 1268l-267 -267q-20 -20 -44 -20q-20 0 -34 14q-4 4 -12 13.5t-17.5 20.5t-19.5 23t-17 20q-15 17 -22.5 43t-7.5 56q0 48 19.5 100t60.5 93q42 42 91 60t94 18q32 0 59.5 -7.5t46.5 -21.5l77 -67q12 -15 12 -34q0 -25 -19 -44zM526 844q-15 15 -15 36q0 22 17 39
l269 268q19 19 42 19q21 0 36 -15l770 -770q15 -15 15 -35q0 -24 -19 -43l-271 -271q-17 -15 -39 -15q-20 0 -34 14zM1731 -52l-169 32q-5 2 -10 3.5t-9 4.5q-7 7 -7 16q0 14 15 29l137 137q7 6 14 10t14 4q6 0 14 -6q7 -9 10 -20l32 -169l1 -9q0 -14 -8 -24q-11 -9 -26 -9
q-5 0 -8 1z" />
    <glyph glyph-name="uni270F" unicode="&#x270f;" 
d="M519 453q-22 0 -37 15.5t-15 38.5v380q2 26 16 42t37 16h1089q23 0 37.5 -17t14.5 -41v-383q-2 -21 -15 -37t-36 -16zM353 887v-378q0 -25 -14 -42t-37 -17q-5 0 -17.5 1t-27.5 2.5t-30 2.5t-26 2q-29 2 -59.5 22.5t-55.5 53.5t-40.5 75.5t-15.5 89.5q0 52 16.5 94.5
t42 73.5t55.5 49.5t57 23.5l102 7q22 -2 36 -18.5t14 -41.5zM2004 671l-142 -96q-5 -3 -9.5 -5.5t-9.5 -2.5q-14 0 -20 11t-6 26v194q1 14 5.5 24.5t18.5 10.5q11 0 21 -7l142 -97q8 -5 13 -12.5t5 -15.5t-5 -16.5t-13 -13.5z" />
    <glyph glyph-name="uni2710" unicode="&#x2710;" 
d="M1297 1317q14 14 34 14q22 0 39 -15l271 -271q19 -19 19 -43q0 -20 -15 -35l-770 -770q-15 -15 -36 -15q-23 0 -42 19l-269 268q-17 17 -17 39q0 21 15 36zM716 120q19 -19 19 -44q0 -19 -12 -34l-77 -67q-19 -14 -46.5 -21.5t-59.5 -7.5q-45 0 -94 18t-91 60
q-41 41 -60.5 93t-19.5 100q0 30 7.5 56t22.5 43q7 8 17 20t19.5 23t17.5 20.5t12 13.5q14 14 34 14q24 0 44 -20zM1731 1440q3 1 8 1q15 0 26 -9q8 -10 8 -24l-1 -9l-32 -169q-3 -11 -10 -20q-8 -6 -14 -6q-7 0 -14 4t-14 10l-137 137q-15 15 -15 29q0 9 7 16q4 3 9 4.5
t10 3.5z" />
    <glyph glyph-name="uni2712" unicode="&#x2712;" 
d="M528 1622l476 -475q30 -31 43.5 -71t11.5 -83q-2 -44 -19.5 -84.5t-51.5 -74.5l-147 -147q-34 -34 -75.5 -51.5t-85.5 -19.5q-41 -2 -81 11t-69 43l-476 476zM1061 761q38 39 63 88q57 -42 122 -91.5t125.5 -95.5t110.5 -83.5t77 -57.5q5 -4 9 -7.5t8 -6.5q26 -26 42 -67
t34 -107q6 -25 14.5 -63t19 -81.5t24 -90.5t34.5 -90l-279 279q3 11 5 20t3 20q1 22 -7 44.5t-24 38.5q-18 18 -40 25.5t-45 7.5q-49 -3 -87 -41t-40 -87q-4 -49 32 -85q17 -17 39 -24.5t45 -6.5q10 0 19.5 2t19.5 6l279 -279q-44 20 -90.5 34t-90.5 24t-82 18t-63 15
q-64 19 -105 35.5t-68 42.5q-3 3 -6.5 7.5t-7.5 9.5q-19 25 -56 75.5t-82.5 111.5t-94.5 126t-92 121q23 13 42.5 27t39.5 34z" />
    <glyph glyph-name="uni2713" unicode="&#x2713;" horiz-adv-x="1534" 
d="M147 489q-23 23 -38 41.5t-15 32.5q0 15 13.5 26.5t32.5 19t40.5 11t36.5 3.5q16 0 26.5 -7.5t24.5 -21.5q94 -94 170.5 -202t141.5 -214q125 346 291 671t374 609q20 28 62.5 43t95.5 15q17 0 27 -6.5t10 -18.5t-3 -20.5t-14 -22.5q-111 -147 -215.5 -308t-199.5 -339.5
t-180 -374.5t-156 -412q-2 -6 -11 -10.5t-22 -7.5t-29 -4.5t-32 -1.5q-23 0 -42 4.5t-28 19.5q-48 82 -89 144.5t-83 116.5t-87.5 105t-101.5 109z" />
    <glyph glyph-name="uni2714" unicode="&#x2714;" horiz-adv-x="1640" 
d="M550 0l-470 689h367l209 -332l556 1080h332l-738 -1437h-256z" />
    <glyph glyph-name="uni2715" unicode="&#x2715;" horiz-adv-x="1673" 
d="M743 717l-649 649l94 92l648 -649l649 649l94 -92l-649 -649l649 -649l-94 -93l-649 648l-648 -648l-94 93z" />
    <glyph glyph-name="uni2716" unicode="&#x2716;" horiz-adv-x="1673" 
d="M647 717l-553 553l191 188l551 -553l553 553l190 -188l-553 -553l553 -553l-190 -189l-553 551l-551 -551l-191 189z" />
    <glyph glyph-name="uni2717" unicode="&#x2717;" horiz-adv-x="1673" 
d="M541 1415l14 -31q65 -140 129.5 -268.5t132.5 -255.5q112 162 230 317t245 304q14 15 25 23t22 12l2 -23l35 23l-16 -39l51 24l-12 -31l33 5l-31 -41l41 18q-5 -11 -9.5 -19t-11.5 -16q-140 -165 -270 -338.5t-254 -363.5q78 -139 165.5 -285t188.5 -309q7 -11 13 -23.5
t14 -29.5l-27 2l6 -35l-43 26l17 -51l-37 17l-2 -27l-35 43l6 -35l-22 25v-10q-100 148 -182.5 280.5t-155.5 261.5q-109 -174 -209.5 -360t-196.5 -387l-16 -29l-14 16l-25 -32v49l-37 -49v39l-35 -25l17 61l-39 -32l6 37l-16 -11q3 11 5 18.5t7 16.5q99 209 217 418.5
t254 417.5q-33 60 -72 135t-79 156.5t-78.5 163.5t-69.5 155l-19 43l29 -20l-12 51l26 -17l-6 39l41 -35l-16 48l27 -19v21l24 -31l-4 27l29 -31v16z" />
    <glyph glyph-name="uni2718" unicode="&#x2718;" horiz-adv-x="1673" 
d="M1458 1399q-6 -14 -12 -24t-14 -21q-127 -165 -244.5 -323.5t-226.5 -323.5q30 -56 63 -114t70.5 -122t80.5 -135t93 -152q12 -21 21.5 -41t13.5 -39l-23 13l10 -33l-20 -2l12 -49l-55 45l16 -68l-31 17l-14 -47l-57 57l12 -62l-31 29l-6 -12l-16 18l-2 -24
q-17 17 -27.5 29.5t-19.5 27.5q-68 109 -129.5 212.5t-118.5 203.5q-47 -76 -91 -150t-88.5 -153t-91 -166.5t-98.5 -190.5l-7.5 -15t-9.5 -15.5t-14.5 -18t-21.5 -22.5l-8 36l-51 -51l16 80l-64 -55v39l-53 -25l31 72l-57 -43l14 47l-31 -6l29 59l-45 -28q3 12 7.5 25
t12.5 26q107 213 227.5 414t252.5 397q-71 132 -137.5 261.5t-133.5 266.5q-6 13 -11.5 26.5t-8.5 24.5l26 -6l-18 51l31 -2l-4 52l59 -54l-25 86l45 -32v45l56 -56l-15 54l41 -37l15 30q15 -20 24.5 -37t22.5 -40q55 -113 103.5 -208.5t94.5 -185.5q178 252 369 504
q14 17 29 31.5t37 23.5l-7 -26l39 29l-12 -58l70 53l2 -45l55 19l-35 -68l62 43l-15 -43l29 17l-29 -52z" />
    <glyph glyph-name="uni2728" unicode="&#x2728;" 
d="M1684 37l-251 -79l-75 -263l-74 263l-251 79l251 81l74 261l75 -261zM1358 -64q21 0 39 8t31.5 21.5t21 32t7.5 39.5t-7.5 40t-21 33t-31.5 22t-39 8q-20 0 -37.5 -8t-31 -22t-21.5 -33t-8 -40t8 -39.5t21.5 -32t31 -21.5t37.5 -8zM2009 1270l-348 -111l-109 -369
l-102 369l-352 111l352 110l102 367l109 -367zM1552 1139q28 0 52 11t42 29.5t28 43t10 51.5q0 29 -10 54t-28 44t-42 29.5t-52 10.5q-26 0 -49 -10.5t-40.5 -29.5t-28 -44t-10.5 -54q0 -27 10.5 -51.5t28 -43t40.5 -29.5t49 -11zM641 1612l170 -640l440 -182l-440 -182
l-170 -640l-180 640l-426 182l426 182z" />
    <glyph glyph-name="uni2731" unicode="&#x2731;" horiz-adv-x="1819" 
d="M1042 487v-487h-266v487l-422 -243l-133 229l422 244l-422 244l133 229l422 -244v488h266v-488l422 244l133 -229l-423 -244l423 -244l-133 -229z" />
    <glyph glyph-name="uni2732" unicode="&#x2732;" horiz-adv-x="1819" 
d="M768 719l-520 299l67 115l521 -302zM315 301l-67 115l520 301l68 -115zM969 600v-600h-133v600h133zM836 834v600h133v-600h-133zM1034 717l522 -301l-67 -115l-520 301zM1489 1133l67 -115l-522 -299l-65 112z" />
    <glyph glyph-name="uni2733" unicode="&#x2733;" horiz-adv-x="1819" 
d="M1714 805v-171h-608l427 -425l-119 -118l-424 428v-603h-172v603l-427 -428l-116 118l427 425h-602v171h602l-427 426l116 118l427 -427v602h172v-602l424 427l119 -118l-427 -426h608z" />
    <glyph glyph-name="uni2734" unicode="&#x2734;" horiz-adv-x="1819" 
d="M768 872l-229 759l364 -703l364 703l-230 -759l746 234l-690 -373l690 -370l-746 234l230 -760l-364 702l-364 -702l229 760l-745 -234l690 370l-690 373z" />
    <glyph glyph-name="uni2735" unicode="&#x2735;" horiz-adv-x="1819" 
d="M913 1458l123 -428l396 213l4 -4l-215 -389l430 -129v-8l-426 -125l211 -393l-4 -5l-396 213l-123 -428h-8l-129 428l-389 -213l-4 5l211 393l-426 125v8l426 129l-211 389l4 4l389 -213l129 428h8zM811 954l98 -235v590zM1008 479l-99 236v-590zM672 815l235 -96
l-415 416zM1147 618l-236 97l416 -416zM1008 954l-97 -235l416 416zM811 479l96 236l-415 -416zM1147 815l-236 -98h590zM672 618l235 99h-590z" />
    <glyph glyph-name="uni2736" unicode="&#x2736;" horiz-adv-x="1819" 
d="M268 1094l514 -164l123 528h8l117 -528l518 164l4 -7l-399 -370l399 -365l-4 -6l-518 158l-117 -529h-8l-121 529l-516 -158l-4 6l400 365l-400 370z" />
    <glyph glyph-name="uni2737" unicode="&#x2737;" horiz-adv-x="1819" 
d="M1626 420l-498 74l84 -492l-6 -2l-297 401l-297 -401l-6 2l84 492l-497 -74l-3 8l410 289l-405 299l2 6l493 -86l-76 496l9 2l286 -406l287 406l8 -2l-76 -496l494 86l2 -6l-405 -299l409 -289z" />
    <glyph glyph-name="uni2738" unicode="&#x2738;" horiz-adv-x="1819" 
d="M1626 420l-444 20l30 -438l-6 -2l-297 326l-297 -326l-6 2l31 438l-444 -20l-3 8l336 289l-331 299l2 6l440 -33l-23 443l9 2l286 -330l287 330l8 -2l-22 -443l440 33l2 -6l-332 -299l336 -289z" />
    <glyph glyph-name="uni2739" unicode="&#x2739;" horiz-adv-x="1819" 
d="M504 1450l315 -375l90 481h9l86 -479l315 373l6 -4l-164 -463l461 166l4 -6l-375 -320l484 -86v-8l-478 -88l371 -315l-4 -7l-463 164l168 -463l-8 -4l-317 367l-86 -477h-9l-90 487l-321 -377l-6 4l163 461l-460 -164l-5 7l373 315l-479 90v8l485 86l-372 322l2 6
l458 -164l-159 459z" />
    <glyph glyph-name="uni273A" unicode="&#x273a;" horiz-adv-x="1819" 
d="M940 557l12 -582h-86l11 582l-211 -543l-80 35l231 531l-401 -418l-62 61l418 402l-530 -232l-33 80l541 211l-582 -10v86l582 -12l-543 213l35 79l530 -233l-418 403l62 62l401 -420l-231 532l80 33l211 -540l-11 581h86l-12 -581l213 542l80 -35l-232 -530l402 418
l61 -62l-422 -405l535 235l33 -79l-543 -213l584 12v-86l-584 10l545 -211l-35 -80l-535 234l422 -404l-61 -61l-402 416l232 -529l-80 -33z" />
    <glyph glyph-name="uni273B" unicode="&#x273b;" horiz-adv-x="1819" 
d="M891 920q-13 84 -29 145t-30 108.5t-23.5 87t-9.5 82.5q0 25 8.5 46t23.5 36.5t35 24t43 8.5t43.5 -8.5t36 -24t24.5 -36.5t9 -46q0 -43 -10 -82.5t-24 -87t-30.5 -108.5t-29.5 -145h-37zM766 717q0 31 11 58t30.5 46t45.5 30t56 11t56.5 -11t46.5 -30t31.5 -46t11.5 -58
q0 -32 -11.5 -58t-31.5 -45.5t-46.5 -30t-56.5 -10.5t-56 11t-45.5 30.5t-30.5 46t-11 56.5zM928 514q13 -84 29.5 -145t30.5 -108.5t24 -87.5t10 -83q0 -24 -9 -45t-24.5 -36.5t-36 -24.5t-43.5 -9t-43 9t-35 24.5t-23.5 36.5t-8.5 45q0 43 9.5 83t23.5 87.5t30 108.5
t29 145h37zM725 803q-80 31 -140.5 47t-109 27.5t-88 23.5t-76.5 33q-29 17 -44 43t-15 55q0 22 8.5 42.5t23 36.5t34.5 25t44 9q31 0 60 -17q37 -21 67 -49.5t64 -65t78.5 -81t111.5 -98.5zM743 600q-67 -54 -111.5 -98.5t-78.5 -81t-64 -65.5t-67 -50q-30 -16 -60 -16
q-21 0 -41 8.5t-35.5 23.5t-24.5 35.5t-9 44.5q0 29 15 55.5t44 43.5q37 21 76.5 33t88 23.5t109 27.5t140.5 47zM1075 834q67 54 111.5 98.5t78.5 81t64 65t68 49.5q28 17 59 17q24 0 44.5 -9t35 -25t23 -36.5t8.5 -42.5q0 -29 -15.5 -55t-44.5 -43q-37 -21 -76 -33
t-87.5 -23.5t-109 -27.5t-140.5 -47zM1094 631q80 -31 140.5 -47t109 -27.5t87.5 -23.5t76 -33q29 -17 44.5 -43.5t15.5 -55.5q0 -24 -9.5 -44.5t-25 -35.5t-35.5 -23.5t-41 -8.5q-30 0 -59 16q-38 21 -68 50t-64 65.5t-78.5 81t-111.5 98.5z" />
    <glyph glyph-name="uni273C" unicode="&#x273c;" horiz-adv-x="1819" 
d="M707 717q0 38 12 76q-63 36 -120 54t-108 30t-96 23t-84 34q-29 17 -44 43t-15 55q0 24 8.5 44.5t23.5 36t35.5 24t45.5 8.5q28 0 57 -17q40 -23 72.5 -56.5t68 -72.5t79.5 -79.5t106 -77.5q23 32 57 51.5t76 26.5q-1 72 -14 130t-28 108.5t-27.5 95t-12.5 89.5
q0 25 8.5 46t23.5 36.5t35 24t43 8.5t43.5 -8.5t36 -24t24.5 -36.5t9 -46q0 -45 -13 -89.5t-29 -95t-29 -108.5t-13 -130q40 -7 75 -26t58 -50q62 37 106 77.5t79.5 78.5t68 71.5t72.5 56.5q28 17 57 17q25 0 45.5 -8.5t35.5 -24t23.5 -36t8.5 -44.5q0 -29 -15.5 -55
t-44.5 -43q-39 -23 -84 -34t-96 -23t-108 -30t-119 -54q6 -17 10 -36.5t4 -39.5q0 -22 -4 -40.5t-10 -37.5q62 -35 119 -53t108 -29.5t96 -23t84 -33.5q29 -17 44.5 -43.5t15.5 -55.5q0 -48 -31.5 -80t-81.5 -32q-28 0 -57 16q-40 23 -72.5 57t-68 72t-79.5 78.5t-106 77.5
q-25 -31 -59 -49.5t-74 -24.5q0 -73 13 -132t29 -109.5t29 -95t13 -89.5q0 -24 -9 -45t-24.5 -36.5t-36 -24.5t-43.5 -9t-43 9t-35 24.5t-23.5 36.5t-8.5 45q0 45 12.5 89.5t27.5 95t28 109.5t14 132q-85 12 -133 74q-62 -37 -106 -77.5t-79.5 -78.5t-68 -72t-72.5 -57
q-30 -16 -57 -16q-50 0 -81.5 32t-31.5 80q0 29 15 55.5t44 43.5q39 22 84 33.5t96 23.5t108 30t120 54q-12 34 -12 76zM766 717q0 -30 11 -56.5t30.5 -46t45.5 -30.5t56 -11t56.5 10.5t46.5 30t31.5 45.5t11.5 58q0 31 -11.5 58t-31.5 46t-46.5 30t-56.5 11t-56 -11
t-45.5 -30t-30.5 -46t-11 -58z" />
    <glyph glyph-name="uni273D" unicode="&#x273d;" horiz-adv-x="1819" 
d="M752 141q0 43 8.5 80.5t22 73.5t29 73.5t30 81.5t25.5 96.5t14 119.5q-56 -37 -96.5 -72.5t-71 -70t-55.5 -66.5t-49.5 -61.5t-53 -55.5t-66.5 -47q-43 -27 -92 -27q-31 0 -58.5 12t-48.5 33.5t-33.5 51.5t-12.5 65q0 42 22 77t66 60q38 22 74.5 33.5t74 18t78 12t85 15
t96 26.5t110.5 47q-60 30 -111 47t-95.5 26t-85 14t-78 11.5t-74 18t-74.5 34.5q-44 25 -66 60.5t-22 77.5q0 35 12.5 64.5t33.5 51t48.5 33.5t58.5 12q49 0 92 -26q57 -33 94 -75.5t75 -90.5t88.5 -100.5t134.5 -106.5q-3 66 -14 118.5t-25.5 96t-30 80.5t-29 73.5t-22 74
t-8.5 81.5q0 37 11 67.5t31.5 52.5t49.5 34t65 12q73 0 115.5 -45.5t42.5 -120.5q0 -44 -8.5 -81.5t-21.5 -74t-29 -73.5t-30.5 -80.5t-25.5 -96t-14 -118.5q56 36 96 71.5t70.5 69.5t55 66t49.5 61.5t53.5 56t66.5 48.5q45 26 92 26q31 0 59 -12t49 -33.5t33.5 -51
t12.5 -64.5q0 -42 -22.5 -77.5t-65.5 -60.5q-39 -23 -76 -34.5t-74.5 -18t-78 -11.5t-85 -14t-95 -26t-109.5 -47q59 -30 109.5 -47t95 -26.5t85 -15t78 -12t75 -18t75.5 -33.5q43 -25 65.5 -60t22.5 -77q0 -35 -12.5 -65t-33.5 -51.5t-49 -33.5t-59 -12q-23 0 -46 6.5
t-46 20.5q-38 21 -66.5 47t-53.5 55.5t-49.5 61.5t-55 66.5t-70.5 70.5t-96 72q3 -67 14 -119.5t25.5 -96.5t30 -81.5t29 -73.5t22 -73t8.5 -81q0 -37 -11 -67.5t-31.5 -52.5t-50 -34t-65.5 -12t-65 12t-49.5 34t-31.5 52.5t-11 67.5z" />
    <glyph glyph-name="uni273E" unicode="&#x273e;" horiz-adv-x="1819" 
d="M383 791q-63 35 -92 89t-29 138q0 15 1 33t3 36q57 42 105.5 63t93.5 21q57 0 117 -34q48 -29 83 -66.5t64 -80t57.5 -86.5t63.5 -85q-18 51 -41.5 97.5t-45.5 93t-37 95.5t-15 105q0 43 11 78.5t35 65.5t61.5 55.5t90.5 48.5q106 -46 152.5 -104t46.5 -144
q0 -57 -15.5 -106t-38 -95.5t-46.5 -93.5t-41 -98q36 41 64.5 85.5t57.5 87t64 80.5t84 67q60 34 117 34q45 0 93 -21t105 -63q2 -18 3 -36t1 -33q0 -84 -28.5 -138t-91.5 -89q-49 -29 -99.5 -40t-102 -15t-104 -6.5t-106.5 -12.5q54 -11 106.5 -13.5t104 -6.5t102 -15
t99.5 -39q63 -35 91.5 -89.5t28.5 -137.5q0 -16 -1 -33.5t-3 -36.5q-57 -42 -103 -62t-91 -20q-29 0 -60.5 8t-60.5 25q-50 28 -85 67t-64 82.5t-57.5 88.5t-65.5 86q17 -53 41.5 -100t47 -94.5t38.5 -97t16 -106.5q0 -43 -11 -78.5t-35 -65.5t-62 -55.5t-91 -48.5
q-53 23 -90.5 48.5t-61.5 55.5t-35 65.5t-11 78.5q0 57 15.5 106.5t37.5 96t46 93.5t42 99q-37 -41 -65 -85.5t-57.5 -87t-64 -81.5t-83.5 -67q-29 -17 -60.5 -25t-60.5 -8q-45 0 -91.5 20t-103.5 62q-2 19 -3 36.5t-1 33.5q0 83 29 137.5t92 89.5q48 28 98.5 39t102 15
t104 6.5t105.5 13.5q-54 10 -106.5 12.5t-104 6.5t-101.5 15t-98 40zM756 1210q0 -54 17 -104t39.5 -100t45 -102.5t33.5 -112.5h37q10 60 32 112.5t45 102.5t40.5 100t17.5 104q0 71 -35.5 117.5t-118.5 83.5q-41 -18 -70 -38.5t-47.5 -44.5t-27 -53t-8.5 -65zM1413 602
q-47 28 -98.5 37.5t-106.5 14.5t-112 12t-115 28l-18 -30q48 -40 82.5 -86t66 -90t66 -83.5t82.5 -66.5q26 -16 49.5 -22.5t48.5 -6.5q35 0 72.5 14.5t80.5 45.5q2 21 2 32v19q0 68 -23.5 109.5t-76.5 72.5zM406 602q-53 -31 -77 -72.5t-24 -109.5v-19t2 -32q85 -60 154 -60
q25 0 48.5 6.5t49.5 22.5q47 27 81 66.5t65.5 84t66 90.5t82.5 85l-18 30q-58 -21 -115 -28t-111.5 -12t-106 -14.5t-97.5 -37.5zM870 717q0 -17 11 -28t28 -11t28 11t11 28t-11 28t-28 11t-28 -11t-11 -28z" />
    <glyph glyph-name="uni273F" unicode="&#x273f;" horiz-adv-x="1819" 
d="M1174 717q0 54 -21 102t-57 84t-84 57t-103 21q-54 0 -102 -21t-84 -57t-57 -84t-21 -102q0 -55 21 -103t57 -84t84 -56.5t102 -20.5q55 0 103 20.5t84 56.5t57 84t21 103zM909 1458q65 0 120.5 -20t95.5 -56t62.5 -85.5t22.5 -108.5q0 -34 -7 -68.5t-27 -75.5
q49 44 104 64t111 20q57 0 108.5 -20t90.5 -57.5t62 -92t23 -124.5q0 -82 -30.5 -137t-81 -88.5t-115 -47.5t-131.5 -12q102 -45 153.5 -118.5t51.5 -164.5q0 -63 -19 -116.5t-57.5 -92t-96 -60.5t-135.5 -22q-81 0 -136.5 26.5t-91 68t-53.5 93t-24 101.5
q-5 -50 -23 -101.5t-54 -93t-91.5 -68t-136.5 -26.5q-78 0 -135.5 22t-95.5 60.5t-57 92t-19 116.5q0 91 51.5 164.5t153.5 118.5q-68 -2 -132.5 12t-114.5 47.5t-81 88.5t-31 137q0 70 23 124.5t62 92t90.5 57.5t109.5 20q56 0 111 -20t104 -64q-20 41 -27.5 75.5
t-7.5 68.5q0 59 22.5 108.5t62.5 85.5t95.5 56t120.5 20z" />
    <glyph glyph-name="uni2740" unicode="&#x2740;" horiz-adv-x="1819" 
d="M909 1458q65 0 120.5 -20t95.5 -56t62.5 -85.5t22.5 -108.5q0 -34 -7 -68.5t-27 -75.5q49 44 104 64t111 20q57 0 108.5 -20t90.5 -57.5t62 -92t23 -124.5q0 -82 -30.5 -137t-81 -88.5t-115 -47.5t-131.5 -12q102 -45 153.5 -118.5t51.5 -164.5q0 -63 -19 -116.5
t-57.5 -92t-96 -60.5t-135.5 -22q-81 0 -136.5 26.5t-91 68t-53.5 93t-24 101.5q-5 -50 -23 -101.5t-54 -93t-91.5 -68t-136.5 -26.5q-78 0 -135.5 22t-95.5 60.5t-57 92t-19 116.5q0 91 51.5 164.5t153.5 118.5q-68 -2 -132.5 12t-114.5 47.5t-81 88.5t-31 137
q0 70 23 124.5t62 92t90.5 57.5t109.5 20q56 0 111 -20t104 -64q-20 41 -27.5 75.5t-7.5 68.5q0 59 22.5 108.5t62.5 85.5t95.5 56t120.5 20zM1214 68q45 0 84 13.5t68.5 39.5t46.5 65.5t17 92.5q0 40 -12 82.5t-44.5 82t-90 73.5t-148.5 58q-13 -18 -27 -34.5t-31 -30.5
l176 -258l-41 -27l-174 260q-24 -14 -51.5 -22t-58.5 -10q4 -86 20.5 -156.5t49.5 -121.5t86 -79t130 -28zM604 68q78 0 130.5 28t86 79t49.5 121.5t21 156.5q-31 2 -58.5 10t-52.5 22l-174 -260l-41 27l176 258q-17 14 -31 30.5t-26 34.5q-92 -24 -149.5 -58t-89.5 -73.5
t-44 -82t-12 -82.5q0 -53 17 -92.5t46 -65.5t68 -39.5t84 -13.5zM236 834q0 -66 25.5 -112t67.5 -74.5t96 -41t112 -12.5q34 0 67 3t64 11q-23 51 -23 109v19t2 22l-258 65l12 47l258 -65q22 58 66 100q-60 79 -134 118.5t-147 39.5q-43 0 -80.5 -15t-66 -44t-45 -71.5
t-16.5 -98.5zM1583 834q0 56 -16.5 98.5t-45 71.5t-66.5 44t-81 15q-72 0 -146 -39.5t-134 -118.5q21 -21 37.5 -46t27.5 -54l258 65l13 -47l-259 -65q2 -14 2.5 -22t0.5 -19q0 -29 -6 -56.5t-17 -52.5q31 -8 64 -11t67 -3q58 0 112 12.5t96 41t67.5 74.5t25.5 112z
M909 1366q-60 0 -103.5 -16.5t-72.5 -45t-43 -67t-14 -82.5q0 -54 21 -111.5t59 -113.5q28 20 60 33t69 16v242h49v-242q37 -3 69 -16t60 -33q38 56 59 113.5t21 111.5q0 44 -14 82.5t-43 67t-73 45t-104 16.5z" />
    <glyph glyph-name="uni2741" unicode="&#x2741;" horiz-adv-x="1819" 
d="M387 508q-56 0 -97 16t-68 44.5t-40.5 66.5t-13.5 82t13.5 82t40.5 66.5t68 44.5t97 16h19l-13 12q-40 40 -57.5 80.5t-17 80t18 75.5t48.5 67t67 48.5t75.5 18t80 -17t80.5 -57.5l12 -12v18q0 56 16.5 97.5t44.5 68.5t66 40t82 13t82 -13t66.5 -40t44.5 -68.5t16 -97.5
v-18l12 12q40 40 81 57.5t80.5 17t75.5 -18t67 -48.5t48.5 -67t18 -75.5t-17.5 -80t-58 -80.5l-12 -12h19q56 0 97 -16t68 -44.5t40.5 -66.5t13.5 -82t-13.5 -82t-40.5 -66.5t-68 -44.5t-97 -16h-19l12 -12q40 -40 58 -81t17.5 -80t-18 -75.5t-48.5 -66.5q-31 -31 -67 -48.5
t-75.5 -18.5t-80.5 17t-81 58l-12 12v-18q0 -56 -16 -97.5t-44.5 -68.5t-66.5 -40.5t-82 -13.5t-82 13.5t-66 40.5t-44.5 68.5t-16.5 97.5v18l-12 -12q-40 -40 -80.5 -58t-80 -17t-75.5 18.5t-67 48.5q-31 30 -48.5 66.5t-18 75.5t17 80t57.5 81l13 12h-19zM694 717
q0 -45 17 -84.5t46 -68.5t68.5 -45.5t83.5 -16.5q45 0 84 16.5t68 45.5t46 68.5t17 84.5t-17 84.5t-46 68.5t-68 45.5t-84 16.5q-44 0 -83.5 -16.5t-68.5 -45.5t-46 -68.5t-17 -84.5zM1360 1167q32 -32 33.5 -72t-41.5 -83q-37 -37 -96.5 -69.5t-131.5 -74.5l17 -28
q40 18 75.5 33t67 30.5t58.5 33t49 38.5q30 30 43.5 60.5t13 60t-13.5 57t-37 51.5t-51.5 37.5t-57.5 13.5t-60.5 -13.5t-60.5 -43.5q-21 -21 -38.5 -48t-33 -58.5t-30.5 -67.5t-33 -76l29 -16q42 71 74 130.5t69 96.5q44 44 84 42t72 -34zM1360 266q-32 -32 -72 -33.5
t-84 41.5q-18 18 -35 42.5t-34 54t-35 63t-39 68.5l-29 -19q18 -40 33 -75.5t30.5 -66.5t33 -57.5t38.5 -47.5q30 -30 60.5 -43.5t60.5 -13.5t57.5 13t51.5 37t37 51.5t13.5 57.5t-13 60.5t-43.5 60.5q-22 21 -49 38t-58.5 32t-67 30t-75.5 33l-17 -29q72 -40 131.5 -73
t96.5 -68q43 -43 41.5 -83.5t-33.5 -72.5zM459 1167q32 32 72 34t83 -42q36 -37 68.5 -96.5t73.5 -130.5l28 16q-18 40 -32.5 76t-29.5 67.5t-32 58.5t-39 48q-30 30 -60.5 43.5t-60 13.5t-57 -13.5t-51.5 -37.5t-37.5 -51.5t-13.5 -57t13.5 -60t43.5 -60.5
q21 -21 47.5 -38.5t57.5 -33t67 -30.5t76 -33l18 28q-35 21 -68.5 39t-62.5 35.5t-53.5 34.5t-42.5 35q-43 43 -41.5 83t33.5 72zM909 1407q-33 0 -61.5 -10.5t-50 -31.5t-33.5 -52.5t-12 -73.5q0 -60 24.5 -124.5t54.5 -145.5l33 8q-21 78 -40 143.5t-19 118.5
q0 60 29.5 87.5t74.5 27.5t75 -27.5t30 -87.5q0 -26 -5.5 -55.5t-14.5 -62.5t-19.5 -69t-20.5 -75l33 -8q15 40 29.5 76t26 69t18 64t6.5 61q0 42 -12.5 73.5t-33.5 52.5t-50 31.5t-62 10.5zM1546 717q0 -45 -27 -75t-87 -30q-53 0 -118.5 19t-144.5 41l-8 -33
q41 -15 77 -29.5t69 -26t64 -18t61 -6.5q42 0 73.5 12.5t52 33.5t31 50t10.5 62t-10.5 61.5t-31 50t-52 33.5t-73.5 12q-60 0 -124.5 -24t-146.5 -55l8 -33q79 20 144.5 39.5t118.5 19.5q59 0 86.5 -30t27.5 -74zM459 266q-32 32 -33.5 72.5t41.5 83.5q35 35 95.5 68
t131.5 73l-18 29q-40 -18 -76 -33t-67 -30t-57.5 -32t-47.5 -38q-30 -30 -43.5 -60.5t-13.5 -60.5t13.5 -57.5t37.5 -51.5t51.5 -37t57 -13t60 13.5t60.5 43.5q22 21 39 47.5t32 57.5t29.5 66.5t32.5 75.5l-28 19q-41 -71 -73.5 -131.5t-68.5 -96.5q-43 -43 -83 -41.5
t-72 33.5zM272 717q0 45 27.5 74.5t87.5 29.5q51 0 116.5 -19.5t143.5 -39.5l8 33q-80 31 -144 55t-124 24q-42 0 -73.5 -12t-52.5 -33.5t-31.5 -50t-10.5 -61.5t10.5 -62t31.5 -50t52.5 -33.5t73.5 -12.5q30 0 60.5 6.5t63 18t68 26t76.5 29.5l-8 33q-78 -22 -143.5 -41
t-116.5 -19q-60 0 -87.5 30t-27.5 75zM909 27q33 0 62 10.5t50 31.5t33.5 52.5t12.5 73.5q0 30 -6.5 60t-18 62.5t-26 68.5t-29.5 77l-33 -8q20 -79 40 -144t20 -116q0 -60 -30 -87.5t-75 -27.5t-74.5 27.5t-29.5 87.5q0 51 19 116t40 144l-33 8q-30 -80 -54.5 -144.5
t-24.5 -123.5q0 -42 12 -73.5t33.5 -52.5t50 -31.5t61.5 -10.5z" />
    <glyph glyph-name="uni2742" unicode="&#x2742;" horiz-adv-x="1819" 
d="M166 717q0 102 26.5 196.5t74.5 176.5t116 150t150 116.5t177 75t197 26.5t197 -26.5t178 -75t151 -116.5t116.5 -150t75 -176.5t26.5 -196.5q0 -103 -26.5 -198t-75 -177.5t-116.5 -150t-151 -115.5t-178 -74.5t-197 -26.5t-197 26.5t-177 74.5t-150 115.5t-116 150
t-74.5 177.5t-26.5 198zM725 348q-60 31 -107.5 79t-78.5 108l-119 -306zM539 897q31 62 78.5 109.5t107.5 76.5l-305 121zM1274 535q-29 -60 -77 -108t-110 -79l308 -119zM1087 1083q62 -29 110 -76.5t77 -109.5l121 307zM776 1104q31 11 63.5 16.5t67.5 5.5q67 0 131 -22
l-131 303zM1038 328q-31 -11 -64 -16t-67 -5q-35 0 -67.5 5t-63.5 16l131 -301zM1294 848q23 -63 23 -131t-23 -131l303 131zM498 717q0 34 4.5 67t15.5 64l-301 -131l301 -131q-20 59 -20 131zM1266 717q0 73 -28.5 138.5t-77 114t-114 77t-139.5 28.5t-139 -28.5
t-113.5 -77t-77 -114t-28.5 -138.5q0 -74 28.5 -139.5t77 -114t113.5 -77t139 -28.5t139.5 28.5t114 77t77 114t28.5 139.5z" />
    <glyph glyph-name="uni2743" unicode="&#x2743;" horiz-adv-x="1819" 
d="M383 791q-63 35 -92 89t-29 138q0 15 1 33t3 36q57 42 105.5 63t93.5 21q57 0 117 -34q48 -29 83 -66.5t64 -80t57.5 -86.5t63.5 -85q-18 51 -41.5 97.5t-45.5 93t-37 95.5t-15 105q0 43 11 78.5t35 65.5t61.5 55.5t90.5 48.5q106 -46 152.5 -104t46.5 -144
q0 -57 -15.5 -106t-38 -95.5t-46.5 -93.5t-41 -98q36 41 64.5 85.5t57.5 87t64 80.5t84 67q60 34 117 34q45 0 93 -21t105 -63q2 -18 3 -36t1 -33q0 -84 -28.5 -138t-91.5 -89q-49 -29 -99.5 -40t-102 -15t-104 -6.5t-106.5 -12.5q54 -11 106.5 -13.5t104 -6.5t102 -15
t99.5 -39q63 -35 91.5 -89.5t28.5 -137.5q0 -16 -1 -33.5t-3 -36.5q-57 -42 -103 -62t-91 -20q-29 0 -60.5 8t-60.5 25q-50 28 -85 67t-64 82.5t-57.5 88.5t-65.5 86q17 -53 41.5 -100t47 -94.5t38.5 -97t16 -106.5q0 -43 -11 -78.5t-35 -65.5t-62 -55.5t-91 -48.5
q-53 23 -90.5 48.5t-61.5 55.5t-35 65.5t-11 78.5q0 57 15.5 106.5t37.5 96t46 93.5t42 99q-37 -41 -65 -85.5t-57.5 -87t-64 -81.5t-83.5 -67q-29 -17 -60.5 -25t-60.5 -8q-45 0 -91.5 20t-103.5 62q-2 19 -3 36.5t-1 33.5q0 83 29 137.5t92 89.5q48 28 98.5 39t102 15
t104 6.5t105.5 13.5q-54 10 -106.5 12.5t-104 6.5t-101.5 15t-98 40zM909 23q42 18 71 38.5t47.5 44.5t27 53t8.5 64q0 56 -18.5 107.5t-42 103t-46 106.5t-30.5 119h-17v-636zM756 1210q0 -56 18 -107t41 -103t46 -106.5t32 -117.5h16v635q-41 -18 -70 -38.5t-47.5 -44.5
t-27 -53t-8.5 -65zM1413 602q-48 28 -102 38t-110.5 15t-115.5 13t-118 32l-9 -12l553 -319q2 21 2 32v19q0 68 -23.5 109.5t-76.5 72.5zM307 369q85 -60 154 -60q25 0 48.5 6.5t49.5 22.5q48 28 83 69t68 87.5t69 93.5t87 86l-8 12zM1511 1063q-43 32 -80.5 46.5
t-72.5 14.5q-25 0 -48.5 -6.5t-49.5 -21.5q-50 -28 -85 -69.5t-68 -88t-69.5 -94t-87.5 -86.5l8 -13zM307 1063q-2 -22 -2 -32.5v-18.5q0 -66 24 -108t77 -73q48 -28 101.5 -38t109.5 -15.5t115 -13.5t118 -33l8 14z" />
    <glyph glyph-name="uni2744" unicode="&#x2744;" horiz-adv-x="1819" 
d="M1718 841h-408l-100 -56q5 -16 7.5 -35t2.5 -40q0 -25 -3.5 -50t-8.5 -44l96 -54h414v-175h-274v-279h-172v283l-144 87q-59 -57 -143 -79v-133l246 -248l-118 -121l-198 201l-196 -201l-118 121l229 233v149q-78 27 -133 82l-142 -85v-289h-172v279h-280v175h410l106 60
q-12 38 -12 81q0 41 10 76l-112 62h-402v178h280v284h172v-299l141 -83q26 28 59 49.5t72 32.5v151l-226 233l118 120l196 -199l198 199l118 -120l-246 -248v-133q41 -11 78.5 -31.5t66.5 -49.5l142 86v292h172v-284h274v-178z" />
    <glyph glyph-name="uni2745" unicode="&#x2745;" horiz-adv-x="1819" 
d="M289 309l-43 74l338 188l-244 146l244 145l-338 189l43 73l329 -198v305l254 -141l-6 368h86l-6 -368l254 141v-305l330 198l43 -73l-338 -189l244 -145l-244 -146l338 -188l-43 -74l-330 199v-305l-254 141l6 -369h-86l6 369l-254 -141v305zM670 895l209 -127l-7 264
l-202 113v-250zM1149 539l-209 127l6 -265l203 -112v250zM670 289l202 112l7 265l-209 -127v-250zM1149 1145l-203 -113l-6 -264l209 127v250zM434 717l199 -119l213 119l-213 119zM973 717l213 -119l198 119l-198 119z" />
    <glyph glyph-name="uni2746" unicode="&#x2746;" horiz-adv-x="1819" 
d="M1573 383l-43 -74l-164 94l61 -184l-114 -41l-107 318l-260 157l6 -303l222 -252l-93 -80l-129 146v-189h-86v189l-129 -146l-92 80l221 252l6 303l-260 -157l-106 -318l-115 41l62 184l-164 -94l-43 74l164 94l-191 39l23 121l327 -66l267 146l-267 145l-327 -65
l-23 121l191 38l-164 95l43 73l164 -94l-62 184l115 41l106 -317l260 -158l-6 303l-221 252l92 80l129 -145v188h86v-188l129 145l93 -80l-222 -252l-6 -303l260 158l107 317l114 -41l-61 -184l164 94l43 -73l-164 -95l190 -38l-22 -121l-328 65l-266 -145l266 -146l328 66
l22 -121l-190 -39z" />
    <glyph glyph-name="uni2747" unicode="&#x2747;" horiz-adv-x="1819" 
d="M3 729l702 205l4 10l201 695l203 -695l2 -10l702 -205l-702 -202l-2 -10l-203 -695l-201 695l-4 10zM612 1030l-112 -33l-273 418l418 -276zM1211 1030l-33 109l416 276l-273 -418zM1211 431l110 32l273 -417l-416 273zM612 431l33 -112l-418 -273l273 417z" />
    </font>
</defs>
</svg>
